<mxfile host="app.diagrams.net" agent="Mozilla/5.0 (X11; Linux x86_64) AppleWebKit/537.36 (KHTML, like Gecko) Chrome/134.0.0.0 Safari/537.36" version="26.1.3">
  <diagram name="Page-1" id="_Vz9h90JvrDsDxH4Oxqw">
    <mxGraphModel dx="2653" dy="2097" grid="1" gridSize="10" guides="1" tooltips="1" connect="1" arrows="1" fold="1" page="1" pageScale="1" pageWidth="850" pageHeight="1100" math="0" shadow="0">
      <root>
        <mxCell id="0" />
        <mxCell id="1" parent="0" />
        <mxCell id="JQkQiNEoeJJn7OUn5IkW-1" value="" style="shape=image;html=1;verticalLabelPosition=bottom;verticalAlign=top;imageAspect=1;aspect=fixed;image=data:image/png,iVBORw0KGgoAAAANSUhEUgAAB68AAAKjCAYAAABC9EqkAAAABHNCSVQICAgIfAhkiAAAABl0RVh0U29mdHdhcmUAZ25vbWUtc2NyZWVuc2hvdO8Dvz4AAAAtdEVYdENyZWF0aW9uIFRpbWUARnJpIDIxIEZlYiAyMDI1IDEyOjI4OjU2IFBNIEhLVPMVBzgAACAASURBVHic7N17lF1neef53/Oec0ol2ZLAYGzLhvEF2+A2xnLiNDEdMgH3SjKETJhMh4asnqx44Vx6zZpmZQKEpkkmpDsLOmnIpa9jFiQ9DcYxl0BiB4MhhIBFMPiim2XJlm3ZKqkklaQqqW7n7P0+88f77lNVkgyS7Tqn9tb3s6Dkqjp1zj773PZ+f+/zvObuLpzSgw8+qI0bNw57MwAAwAowNjamDRs2DHszAAA4LXxuAQDqhM8tAEDd8Nm1fMKwNwAAAAAAAAAAAAAAAMJrAAAAAAAAAAAAAMDQEV4DAAAAAAAAAAAAAIaO8BoAAAAAAAAAAAAAMHSE1wAAAAAAAAAAAACAoSO8BgAAAAAAAAAAAAAMHeE1AAAAAAAAAAAAAGDoCK8BAAAAAAAAAAAAAENHeA0AAAAAAAAAAAAAGDrCawAAAAAAAAAAAADA0BFeAwAAAAAAAAAAAACGjvAaAAAAAAAAAAAAADB0hNcAAAAAAAAAAAAAgKEjvAYAAAAa5MBcobd8c/ewNwMAAAAAAAA4Y4TXAAAAQIOYpL8eO6q1n9+sncfmh705AAAAAAAAwGkjvAYAAAAaJJhJMs0UUT7sjQEAAAAAAADOAOE1AAAA0CDWj6xdTnoNAAAAAACAGiG8BgAAABokVV5LKcYmvQYAAAAAAEB9EF4DAAAADZKia89fCa8BAAAAAABQH4TXAAAAQIOkyut0mE/bcAAAAAAAANRJe9gbAAAAAOCFs7TyGgAAAAAAAKgPKq8BAACABukveS3CawAAAAAAANQL4TUAAADQSCanbzgAAAAAAABqhPAaAAAAaBzahgMAAAAAAKB+CK8BAACAxjHJXRReAwAAAAAAoE4IrwEAAICmca/yawAAAAAAAKA2CK8BAACApjFb+i8AAAAAAABQA+1hbwAAAACAF5gv+QcAAAAAAACoBcJrAAAAoGEsSGYmp284AAAAAAAAaoS24QAAAEDTUHkNAAAAAACAGiK8BgAAAJrGTHLCawAAAAAAANQL4TUAAADQNO6SpX8AAAAAAACAuiC8BgAAAJrIncprAAAAAAAA1ArhNQAAANA0lr4QXwMAAAAAAKBOCK8BAACApnHltuGE1wAAAAAAAKgPwmsAAACgacwkF3XXAAAAAAAAqBXCawAAAKBpPH0hvAYAAAAAAECdEF4DAAAATWMptqZrOAAAAAAAAOqE8BoAAABoGpcko/IaAAAAAAAAtUJ4DQAAADSVDXsDAAAAAAAAgNNHeA0AAAA0kdE2HAAAAAAAAPVCeA0AAAA0kTttwwEAAAAAAFArhNcAAABA4/iirwAAAAAAAEA9EF4DAAAADWOWDvNpGw4AAAAAAIA6IbwGAAAAGsnkpNcAAAAAAACoEcJrAAAAoJFY8xoAAAAAAAD1QngNAAAANE5e85r0GgAAAAAAADXSHtQNfehDH9LTTz/d/37NmjX6gz/4A0nS1q1bdccdd2hyclKXX365brnlFq1bt+553+aHP/xhdbtdfeADH3je1wUAAADUh8lMVF4DAAAAAACgVgYWXs/MzOj973+/NmzYcNLPP/7xj+vWW2/VVVddpc9//vP69Kc/rV/5lV95Xrc3Njam0dFRrV27Vrt379bll1/+vK4PAAAAqA+X3AivAQAAAAAAUCsDC69nZ2e1evXqk36+fft2XXrppXr1q18tSXrzm9+sd7/73SqKQu32wuY988wz+sQnPqFrr71Wu3bt0szMjN7xjnfo3nvv1YEDB3T11Vfr7W9/e//ymzZt0o033qhOp6NNmzYRXgMAAOAsYpKZnL7hAAAAAAAAqJGBrXk9OzurO+64Q7/5m7+p3/3d39WWLVskSQcOHNDLXvay/uVWr16t1atX6/Dhw0s3NASNjY3puuuu03ve8x5dcskluv3223Xrrbfq/e9/vzZt2qTJyUlJUoxRDzzwgG644Qa99rWv1datW1UUxaDuKgAAADBkLsnl1F4DAAAAAACgRgYSXru7brzxRt1000368Ic/rLe+9a267bbbdOTIEXW7XXU6nSWX73Q6mp+fP+l61qxZoyuuuEKSdP755+vKK69Up9NRp9PR+vXrNTU1JWmhmnt0dFQjIyO66qqrtHnz5uW/owAAAMBK4ax5DQAAAAAAgHoZSNtwM9Mv/dIv9b+/7rrrdNlll2nnzp1atWrVSVXWs7OzWrVq1UnXs/hnIQSNjIwsuY0YoyTpvvvu09atW/Wud71LUqrEnpmZ0Q033LDk+sbGxn7gtp/OZQAAQPONj48PexOA0zJTel7y2jUxcVhjPj3sTQIwBHxuAQDqhM8tAEDd8Nm1fAYSXs/Pz2vv3r1L1p0uy1KdTkcXXHCBtm/f3v/55OSkiqLQeeed95xua2ZmRjt37tRHPvKR/prZMUa9973v1bFjx7R27dr+ZTds2PB9r2t8fPwHXgYAAJw9OC5AHUwXUbKDMpPOe8lLtOGidcPeJABDwucWAKBO+NwCANQNn13LYyBtw8uy1B/90R9p27ZtkqRt27Zp7969uvLKK3XNNddo3759euSRR1QUhe6++25t3LixHzyfqfvvv19XX331kr8PIeiaa67R/fff/4LcHwAAAGBFc5ecFa8BAAAAAABQLwOpvF6zZo1+9Vd/VZ/5zGd022236aUvfal+7dd+rV8F/c53vlOf/OQnNTk5qSuvvFK33HLLc76tTZs26U1vetNJP9+4caPuvvtuvfGNb3zO1w0AAADUgkkykzvxNQAAAAAAAOrDnBGtZ/Xggw9q48aNw94MAACwAoyNjdEKCLUwXUSt+9zDCsH0uZsu01s2rB/2JgEYAj63AAB1wucWAKBu+OxaPgNpGw4AAABggEySi7bhAAAAAAAAqBXCawAAAKBpXJIRXgMAAAAAAKBeCK8BAACAhjFLpdcsEAQAAAAAAIA6IbwGAAAAGsclNzm11wAAAAAAAKgRwmsAAACgcUwSbcMBAAAAAABQL4TXAAAAQEPRNhwAAAAAAAB1QngNAAAANBJrXgMAAAAAAKBeCK8BAACAxvFFXwEAAAAAAIB6ILwGAAAAGsfystc27A0BAAAAAAAAThvhNQAAANA4LrnJFYe9IQAAAAAAAMBpI7wGAAAAGidVXNM2HAAAAAAAAHVCeA0AAAA0Tl7zmvQaAAAAAAAANUJ4DQAAADSSU3kNAAAAAACAWiG8BgAAABqHtuEAAAAAAACoH8JrAAAAoHFcksnpGw4AAAAAAIAaIbwGAAAAGofKawAAAAAAANRPe9gbAAAAAOCF5ou+AgAAAAAAAPVA5TUAAADQMGa58pr0GgAAAAAAADVCeA0AAAA0FNk1AAAAAAAA6oS24QAAAEDjmOSSE18DAAAAAACgRgivAQAAgMaJkkn5CwAAAAAAAFALhNcAAABA4+Q1r4e8FQAAAAAAAMCZYM1rAAAAoJFoGg4AAAAAAIB6IbwGAAAAGspJrwEAAAAAAFAjhNcAAABA0/iSfwAAAAAAAIBaILwGAAAAmsbSF1cc9pYAAAAAAAAAp43wGgAAAGgad5lJTnYNAAAAAACAGiG8BgAAAJrGTO5O23AAAAAAAADUCuE1AAAA0DSe/k94DQAAAAAAgDppD3sDAAAAALzALMXWTnoNAAAAAACAGqHyGgAAAGgar/4hvQYAAAAAAEB9UHkNAAAANI7RNhwAAAAAAAC1Q3gNAAAANI6n/Jr0GgAAAAAAADVCeA0AAAA0jFlQCrBt2JsCAAAAAAAAnDbWvAYAAAAaxxd9BQAAAAAAAOqB8BoAAABoIHenbTgAAAAAAABqhfAaAAAAaCin9hoAAAAAAAA1QngNAAAANE5a65roGgAAAAAAAHVCeA0AAAA0TpQk2oYDAAAAAACgVgivAQAAgMah8hoAAAAAAAD1Q3gNAAAANFT0OOxNAAAAAAAAAE4b4TUAAADQQBaCnL7hAAAAAAAAqBHCawAAAKCJnLbhAAAAAAAAqBfCawAAAKBxfNFXAAAAAAAAoB4IrwEAAIAGcrlY8hoAAAAAAAB1QngNAAAANI6lsmuzYW8IAAAAAAAAcNoIrwEAAIBGctqGAwAAAAAAoFYIrwEAAIDGcclM7sTXAAAAAAAAqA/CawAAAKBhzNJhPtE1AAAAAAAA6oTwGgAAAGgcr/4HAAAAAAAA1AbhNQAAANA4JplE13AAAAAAAADUCeE1AAAA0DTuMqPyGgAAAAAAAPVCeA0AAAA0jUkeTU58DQAAAAAAgBohvAYAAACaxiWZ0zYcAAAAAAAAtUJ4DQAAADRN7hlOdg0AAAAAAIA6IbwGAAAAmiaXXBNeAwAAAAAAoE7aw94AAAAAAC8wS/84fcMBAAAAAABQI1ReAwAAAE3jym3DCa8BAAAAAABQH4TXAAAAQFOZDXsLAAAAAAAAgNNGeA0AAAA0kfWXvgYAAAAAAABqgfAaAAAAaCiyawAAAAAAANQJ4TUAAADQOF79DwAAAAAAAKgNwmsAAACgcUwyp204AAAAAAAAaoXwGgAAAGgYM5MU5NReAwAAAAAAoEYIrwEAAIAmciqvAQAAAAAAUC+E1wAAAEDjuGQivAYAAAAAAECtEF4DAAAAjWOSRNNwAAAAAAAA1ArhNQAAANA4Xv0PAAAAAAAAqI32sDcAAAAAwAvNcttw4msAAAAAAADUB+E1AAAA0Di+6CsAAAAAAABQD7QNBwAAQG3Mxajpoux/342u2TIOcYtWMJdkNuytAAAAAAAAAE4bldcAAACojXM/u1lvuXidJuYLXb9+tQ7MF9o2Na8tP/mqYW/aymMSXcMBAAAAAABQJ1ReAwAAoD7c9ZX9x7Vtck5upmBGa+zvw9k7AAAAAAAAqBHCawAAANSHSZLLzOQuBRFen5Iv+QcAAAAAAACoBcJrAAAA1IbJZGaSXNElkyvSG/tklr44+wYAAAAAAAA1QngNAACA+jDvL+QcPdI2/NlQeQ0AAAAAAIAaIrwGAABAfbiUyopTaB2MgPaUcnt19g0AAAAAAADqhPAaAAAAtVG1DJdL0ZUqr0loT+aSu7NvAAAAAAAAUCuE1wAAAKgVs7TutSsVGLPm9cksH+WzZwAAAAAAAFAnhNcAAACoF09folxBUpQ0W8bhbtNKk9ur0zgcAAAAAAAAdUJ4DQAAgFoxS4GsuykE05H5ni69a/uQt2qlMUmibTgAAAAAAABqpT3sDQAAAABOl8lUBbNRnv8ryJ3K6yVMEnXXAAAAAAAAqBkqrwEAAFAjOY41KUZXsNQau4qxkXn6P+E1AAAAAAAA6oTwGgAAALWRwmqlYNZMwUxypz32ifoF6oT6AAAAAAAAqA/CawAAANRGEaNCLit2l0IOaGmQfQJ3SSYn1QcAAAAAAECNEF4DAACgNkpXf53r6FHmkpsk47B2CUt7iegaAAAAAAAAdcIoHwAAAGphpowKIcjMJLniosrrGMshb90KkwqvaacOAAAAAACAWiG8BgAAQC1M9Uq15P1yYjctWvOatZ2Xci3aVQAAAAAAAEAtEF4DAACgFqZ6UW0zWSq3VnRXMKX1rjmqPQVnLXAAAAAAAADUCsN8AAAAqIWpXql2WKiwdjeZUmts2mOfyGgbDgAAAAAAgNohvAYAAEAtTBWlOmEhke23DTfaY5/MJTcqrwEAAAAAAFArhNcAAACohaleVMdMUm4bHl1BKbh2SoxPkPYRewUAAAAAcDr+6d89rr89cGzYmwEAhNcAAACoh6leqU7LVEWyUbny2glpT+a0DQcAAAAAnLa/O3BMcdgbAQAivAYAAEBNTPVKdUwySwG2u5QaYzsh7ak4TcMBAAAAAKfLFUmvAawAhNcAAACohamiVMdCLrMOivK85rUR0p7AzORUpAMAAAAATpOZKQ7pLPJ3t+3X72wdG8ptA1h52sPeAAAAAOB0TPWiRoJVyznLPbUN90hIe7Ic6lOSDgAAAKwo8zFqpnRJrtFW0OpAfRkGZz66SnetaZ3qeWeKQzqFvGd8SuvareHcOIAVh/AaAAAAtTDVK1N4LZe758rrFFy7EdIuFWUmpS8AAAAAVoof/sqjmpgv5SaNmPTUz1w77E3CWeRH7n1UV527SnfedNnJv8zn2YP2zu/u0ZPTPb1mPRM5ACSE1wAAAKiFfnjtUjUj3Fxyj3IR0i5lrHkNAMAAzZRRj0zNyfIxyQ0vXj3kLcLZ4sGjs4ou/RDPudoIeYKpxyhRaYoBM0nxWTp0mdlQzq2/On5caZL6wG8awArFVBYAAADUwlRRalUrSGaykNa5Drm6mHPcU0j5NQAAGIC2ST/8lZ36kXt3KA57Y3BWmelFve6rjw57M3AGTJK7yyzIecPAgNkPOE8s4/I+Kb9x8Lj+l79/fOkPPXVXY1I6gAqV1wAAAKiFqV7UqpDqmTzGHF6nmeHUGJ8aewUAgOXzF3uOqJBrw2hHz8z2lD55TZE0CgPEcsn1EyykiaZyOcv8YMBM0qbD0/qRe3fqOzdfdcJvfdnXvG6Z6Sv7jy3dJpOM83oAi3B4AwAAgFo4VqTw2t0lS23Dg5lktBc7JSe8BjBYP/WNx3TTV3cOezOAgfnaweP6wJZ9apnpl7+zJ/90+Qf+gcWqKl7Uhy06UOexw6CZTGam8hRniyZb9gkVIU/cWHq7onMYgCUIrwEAAFALU71So+0gy+tep9omV4zOoM9JPJ/8s18ADBbvOjibtEyKktrB0sh7Hn3ndYBBClXqg9owpcm4vF9gGMzSyXRRnqJLiD37etgvlFO9Z1m1Dvyy3jKAOiG8BgAAQC1MFVGrQsipdQqtU+U1gz4nceU1wwBgcIKUB+OBs0MrL1/SUq4W81wFy+sAAxQU1KTIp4iubsPbF1gO7tzpIIXBMzeZSeWz/L5c5qUvWnbye5ZJdA4DsAThNQAAAGphqldqtBWUTm2DotLBbLX+NRaxVJ3+wOEZfWrP4WFvDYCzhJnR8QFnjV/73h597cCUJrs9fWjHeE6t0+9iw4M3rCxNq7x+5d3b9BsP7R32ZiyrkCe4WGCNXwxeXnlL5Sk+q9IyBMvcNlwndwiztOj1sld9A6gPwmsAAACseDNl1KvXrVLHJCnKlVqFh1zxZDKVnOguSD3V9fRsT3F5J84DQJ+xViHOIk9Md3WkW8pl+sqBY/Lo/dIxsmsMUgqbmnPAZ2aNnwCSO4YzCRdDYXm21Skrr/NyGMspmE7u1JMPIJkECaBCeA0AAIAVb1UwbT46p1aoRnpShJ1Ou11mrpLz3AVW7QxqOQAMjokKMpw92ksCtryEiUsyU2xQkIiVzyzPWmyI1Hp/2FuxvIJZmvCiwKQvDFxaeSuoPNULzf2UFdkvpLCoU8nibaJtOIDFCK8BAABQG/2DV5NcppD/pfL6BK406ufNH/wDsHKkcUfedHB26IQUWLtcsWpzkkpgeR1goIKsSdm1TM1vHWxyyfKErxMrUIFllpqEuA7OzusVf73thF+alrsfQMvCSe9ZptTLnM9PABXCawAAANTG4oPXalCr6jpG5fUJcpF60wf/AKwcKbfjPQdnh7YFuSxXTaYQyvKHL42AMUih6kHdEHYWvIYWf17yuYlBq+ZLuOykc0WrOoks5+27n9RxoFp6htcDgEp70Dc4PT2tD3zgA/q5n/s5veENb5Akbd26VXfccYcmJyd1+eWX65ZbbtG6deue9219+MMfVrfb1Qc+8IHnfV0AAAAYvtQ2XPLoS8JruVQ0fG2858opvQYwIGa0e8TZox2q5/uJbcJZ8xqDFRpWuZtCrGbdpxMtnnDAchsYpA9u269nZnr5mO1Uz77l/wxrBTv1mte0DQewyMArr++8806Njo72v5+ZmdHHP/5xveMd79BHP/pRXXLJJfr0pz/9vG9nbGxMo6OjeslLXqLdu3c/7+sDAACQ0snUpXdtG9pJ1Xx0TfbKId368J3YNlyq1uwSbcMXMQuq9lDTK1cArBxmRsUMzhqdYIouRS/TUtdV5audXMkGLJe50jUfY6Pee82s8RNArH+U3qzHDivff3n8UPrMMsuV1ydcYFhrXkuysPxV3wDqY6CV1zt37tTExIRe85rX9H+2fft2XXrppXr1q18tSXrzm9+sd7/73SqKQu32wuY988wz+sQnPqFrr71Wu3bt0szMjN7xjnfo3nvv1YEDB3T11Vfr7W9/e//ymzZt0o033qhOp6NNmzbp8ssvH9wdBQAAjfbUdFfTRdS57cGvwHLl3dv18xe/SB/dePHAb3slCAs9zvontmZp+OfsjfRPxXM/QgbQAQxQjPKGVQACz6YtpYprC4qxlKp1h735VaNYOT62+5D+9dZ9jVo32eSN/yyp1rxO5zQcq2Nwqq5l1TPvxGefBdNyf4SFvNTGktvNEyA5dQVQGdiIa1EUuuOOO/SLv/iLS35+4MABvexlL+t/v3r1aq1evVqHDx9ecrkQgsbGxnTdddfpPe95jy655BLdfvvtuvXWW/X+979fmzZt0uTkpCQpxqgHHnhAN9xwg1772tdq69atKopi+e8kAAA4a/z9weO6//DMC369P/H1XfqJrz+mP3z0gF7yl1tO+n3LpN73OaN78ec36z/sGNc3Dh5f8vNvHZzWiz+/+QXf3kFrWRoVdi1ay9nTGpNUXi/l0ZdUqAPAcqvWKwTOBu1gisqD7TLZwoKdyz7wD1RCyOuuN+jN16TGT740LXQqafY9xUqz0LH+hHPqimvZOx+Eaj76otuuupfw+QmgMrDw+ktf+pKuv/56XXjhhUt+3u121el0lvys0+lofn7+pOtYs2aNrrjiCknS+eefryuvvFKdTkedTkfr16/X1NSUpIVq7tHRUY2MjOiqq67S5s31H6wFAAArx89+a7fmn+NZ3cd2H9Kb/vaxU/6ubaYiujomlUvWT0yCpG4Z9b99a7fe9PWTr2Muuj64fb++fkJ4PdIyHStOvr66SSe66Yy72v3BTGaukpGfE1gefKj/4w6gHoINviMJMCypbbhLFnIL1vRzC3Q9weCEqty/QZMV7SxovR9yhyQqTTFoKbd2mQVF91O+1gax7JRZmgC28H36l9cDgMpA2oaPj4/roYce0m/91m+d9LtVq1adVGU9OzurVatWnfKylRCCRkZG+t+bmWJMA3P33Xeftm7dqne9612SUiX2zMyMbrjhhiXXNzY29gO3/XQuAwAAmm98fFxSNTM+9azee+CAxroLxyd//PSMPrZ3Wlted/73va7u8Tl988CURu58UE++/oL+z3/sgcOaKaI2jAbNHptSGU8+FvFYanJmRkUZNTZTnnys4qnaduLolP74oWl1o+sXL1yjyeme3L22xzZVVfX0sWOKMSq61CuK1Hknn+Du3bdPYXSgq+KsSDOlp1nseQDgyNFJjY31hrtRAAau+twapLm5GXV79f2sAc7E/MyMSneVVeV1VUXp0qGJCY358R9wDcDzN3l0RtFd7rH2773V51bR62l6Zqb29+f76XbnVZalPKQJuU2+r1hZYixTp5CYgusyLj1u8+g6cmR5zx/H50rJXc+MjamTz1mLXk/Ro7rdLq8H1MowzrnOFgMZ3duyZYsmJib0vve9T5I0NzenEIIOHz6sV7ziFdq+fXv/spOTkyqKQuedd95zuq2ZmRnt3LlTH/nIR/prZscY9d73vlfHjh3T2rVr+5fdsGHD972u8fHxH3gZAEBz/f72fbr96Ult+clXDXtTsEJs2LAh56TjMjOd++LztOGi9ZKkd3z7SX3twKwUbMnxw2vv2aH3vfpC/fNXvKj/s4s1JbWOqXRfctnRLVOai6Ws1dL5571Y/uR0//fX3fOIPvWjl2lV56jaq1ZrnVyanz3pWCXYAQULWnXuObr7yKyOFVHvvmGDpqbm5Zqo7bFNCq8P6kXr1ymMz8sUFVpB69evl9lxmZle+rILtOHckydAnm2miyizgynUD9K69eu1YcP3n1ABoJkG/Z6/5ql5tYv52n7WAGdi/YFn5AdmJDfF6Gq3LFezSS968XnasGH9sDcRZ4Hz5idkT05LZo14792wYYNGNk9pdPVoI+7Ps1n92KzCbKkYTTJv9H3FytJqpSLC4JIrnvTeEVqHtHb9Om3Y8LJnu4rnbX66K+mQLrjwIo22Unrd2TKpEAu1R0Z4PaB2eM4uj4GE1zfffLNuvvnm/ve33367Lr74Yr3hDW/Q3NycPvWpT+mRRx7RlVdeqbvvvlsbN27sB89n6v7779fVV1+95O9DCLrmmmt0//33641vfOPzvj8AgPr515v3alW7pd+55sIffOFstBX0zEx3GbcKK91r7nlE/2jdan36Ry89xW9d86Xr8ru26ycvXKvVLVOZ14faO9vVn+46qA9dd7F2T3d1rCgkSe/fsk89d938snNThUS+pvdtGdNPXrBWnWBycxVRGglBUSmIXPu5zQomzZeuIFM3Rp3bNo3P9XTRF7dq389e29+qEILMTPNFVDuYCnf98c4D2j4114j11IKUzrSjyXNvsWrZLtqGL1a1kFz+NcsAoGKi3SPOHp0QFGNqb2wLH7tpyY5GHHWhDmzROUVTmoebSU1f9MYW/wdvFxig/kIDpiVjEn3uAzt/TBPUF87pZbZkHWwAZ7ehL0g1Ojqqd77znfrUpz6l3/iN39ChQ4f0tre97Tlf36ZNm3T99def9PONGzfq29/+9vPZVABAjf3Zk0c0V57ZKfBoy/qtik/X/vlC0w1YVxhJx6z/vDlSRO2dzZMZ3GUyzbvUMqkXo1a3gkp3RblGW0Ef3nFAktQy1/EiPY+2Ts7oq+NTWtMKKuX9E7OPPHpQ3ehq5/WcC48asTTw2TKpOqWcL2O+PVfHTDJTlLRzak4bvrhF6a/T/3tK62eXLo20gj6154jMgno1TzIX1odbCEjMTGY649dr4+WRCfYKgEExBh1xFknHWSmmDmZ54D393xsRIaIOggWlo73BBU7Lzl2xMXfmRmmLPQAAIABJREFU1MyV7qNxrI7BMpnk1aiBnfJ9YzlHtP5k10G97t5H85rXi7YrT0zn9QCgMpRFAd/+9rcv+f5Vr3qVfu/3fu/7/s2GDRv0+7//+/3v3/KWtyz5/Qc/+EFJOuW62pJ0/fXXnzLUBgCsfL/47Sc1H6M+c9Plp/z9O779hB44Oqdr14/qmrWjemRqTnfedNmSy7RMmjuDUPmX/uEpbZ+aO+NKzou+sEX7f/ZandMe+vwwvABGWkFz+Wzuiwfn9KHv7dDRt16n6kRvrigVTCpcObyWoptGUsKqwl2tEHSslyqvOyFdph2sP7N4rowyk+ajqxNS9U7hppFW6J9I5pxa86WrFUzfOTytNa2gGF3RUpeA/fPpNixfvhvToGoRozppSSuZvH87ddWyatvTGl1SPgFXpPL6RG5SnlEPAIOQ5hfV9zMGOBPtIMV8FCKPUghpxN9MMTKZFYNhcslMpqDovuhYub5SqNXs41czyUI4deUrsIzMUqt6j65g4aRzRdPydu5qmWm2lOS+ZPK5Ka23zesBQIWRdQDAine4W+qZmZ4k6ZsHj2vt5zcv+f13JmY02S11tFtodSvonn2TOvdzD0uS1n5us56c7qodgh6fntcX9h7V3x48pg89sl9/vOuA1n5uc77cw1r7uYf10V0H9dUDx7R/vqc9M/NnHIaZROV1g4zkoPj1X9upkbBoECWNUmo+pgGiXvQcXpvKPFhpFjRbulqStk7N6a/3TaltUpHPBIMkeboOk6ubq6mjS4V7ur3+8y+todjNA1LTRcxBeTrhW9UKC1XI+et8mdqGlzKNhJC2PLru3jeptZ97WP8wMX3K+/zE8Xl9af9U//t7x6d06V9v0y9seuKF27HPQzDrJ/QL4b7LFFQ4r70FuezaaBsOYHBS2/Dmvems//xm/addB4e9GVhh2mZypc/ZsCQwdCqvMTChX/LvjWm1bXJ5w4esg1VdpEzOwToGaPEyF6aobnSt/ezDSy4Ql/G8OizqLFcueu5XEzqaeBwJ4LkZSuU1AADfzz/56k598ceu0M99a7d++sJ1GmmZevn4dU0raPaE9t8jraDjZalulEaDKcrUja5/8rVdmimjZnK16rcOTatjQf/TOSP686eOaLaImoulJKkXpVXBNFOU+rfbx7Xr+KzcTIWXev3Xdulbb7zytLf/eJGu88e/vku7puZ05dpR/d1PPPvf//jf7tS57Zbu+rErznBPrQz/7L4n9MxMV5tuvnrYm3LGfv6+J7RvrtB9z/L4dkIalCyiq6MTQ8AqvA4qPIfXiqkDV/79bBnVMtNdY1O6fM1IDpOTIFM011zpMjO9f8s+lbmauIiWqqUV9cavP5balIcUSAepX4odFRW9pVa+zdd/dVf/tnvu/crrkVYKei2Y3rbpSbWDPevg1tpOSz/9jcf1T84/V/Ol6/HpebVWUBvCoDwjO/rCvva0D6m8XiwutA03dgyAAXFv5JrXecUK4CRBUqk0ia6PNa8xQEEmz0FTXLR+bJ2lys9mv4Ysd/Jy3i0waPm15bYwicJP+P1ynvuHvAkntQ1XkHtPTlwFIGv2NDYAwIr38/ft1gVf2KINX9za/9l9E9OaLkvtPD6vuTJqJJj2z/X0BzvGtaYd+utfde58SJsmpjXSSnOz52PUmnZLUelk91uHjktyTReFWkprFH/z0HF9es9RxRgVYzpRbN/5YL/V8n949IB2HZuT5wra6NJ3Jo5Lkj6684AePTYvSfqPuw7q2i/t0PX3PLLk/phJ0zlBO9ItZRa0Y2pel921bcnlPvrouB4+Mqs/2XVAe2Z6/XWVb99zWH/46LgkqX3nQ/rAlr269btP6aIvbNVFX9iif/zVR3XbExOLLvOg5hedWfzHxw7qwzv2vyCPzZ/uOqh/n9dtPtEf7zqgTzxxWD/61V26b2JakydMKPjozgM6kNtYv+ZLO7Thr7bqdfc+qtt2T+gPHz31dT6bjz56QE9Oz5/08z974rld1/ZjC9e1Kpgmu8UpL/uyL2zRnplurm6WRlqmIqbnnfIs+Xv3T+pIt6d7x4/pz5+cUBFdRen6k10HZG76010H0qxic/Vkass00S30yacOq2UmM9PFea3qvbPddKIoabIodefTR2Vq6f7D0/31n1JYnrYvekzP037rbGnTRHrOy13zRVQ7SPtme/pXD+xV9MU1QK5TLQF/59NH9N92p8qy+w4e19bJGQVP6zaulAGkfitEs/57QbXWH+H1YgsL6NG5FMCg2KJqmmZZOZO4sLK0zGQy9VdkyccpPF8wKLZozeSmPO/MVs65x3JJIxie/wsYnEXzv9Pkl7z0gJTGl2S2rEvApMA8V14veZ27Fi8NBgCE1wCAgbrqb7br0ru26c+fnJAkrW61FP3k+cbTvShzaS6m9apniqj/9NghtXPF6Svv3i6T6VgR1confN3SNdqyfH25OFWWKq+laplilR4VJZX5R6WntsPSQss/l6ffW6rklqTffHhMZZ7V/udPHtaRXqF5T3//yLF5XXn3I5JMx3sxX5fknu7ZRLfUxX+1Va+8e7sk6T1b9ulnvvm4fm/7fhWSZsuonrtWh6B/s2V/3gbpD3dO6DNPT8pCukPd6Aom/e62dJlS0rFeqavu3q4/2XVQn3lmUn+z75gk6a6xyf7tSdLsKZK9P3vy0JLLVF71N4/oQzvG9YW9R/XRXQf1yruXhvS/vXW/pnuFRltposD+2Z6uuGvhev7vh/bqH9+7U3+5d1IhpJOTnkstSb+9dd8pb3O6jCrc9W+3j+uKRb//zYfHNFmU/e9/9puP68Z7d2pVCPo3m8f0yruWXtdVf7Ndt9y/R5LUi0vb571785h+6huP6eNPpOdfx4J60fXpPUdO2qYULmuhjbdZnpWcqqAl6d7x45KlFuHuUhnTWp8f3D4uyfXvto8rmMnd1C2jQpC6MerTe46oFdKVl151wTZZXnNqvoi6a/9UPpVc6Os1H6NaIW9Hfp7H/FvL2yulULybK6+l9Dzxak1GpcuUpzgpPKfT0ge3javqPmgyhbwO90ppf7nQGtEWbVNVec2J7kls5Tx2AJovhSjNe8+xanAXOEFQWv6lmmiYsyieLRiYdP5qjVonelFX48YKIeQ5x5HPFwyULfqPkIPqfhvv/FQsl3EmTMtCdVK/ZMJNWnqmmcvPAHhu6MMAADX3fz34jGaKqI/d+Iphb8pp2X28q9F20EyRDkhHWzkcXnzQaqbXfnmH1raDPvb4Qa0fCYouTXajNn5lh8xdjx+f00gIeuu3duuCVW1Fl7rRtTqYitz3qMq4ZsqoVkhN/eRSqaAYS5XuCiEFXlV4qLy+VvTUKjp4VKEg+4sHFSwdzL/8r7am2aiS9s8VeskXtuhnLlqrx47PKpjpI4/u1y9sekLntluSUoVsL7qOzBcad8n+4kF1LFVmn9Npyd21Y2peF39xi7oxzT799e89vSieCzKZSo/aMz2v9z68V90y6te+97QUpeNl1OFeqQ9u26fRdtDLR0f0wW379N0js3pquitJat35kN72ihfpLRet07cOTms+ul480taDk7Op4jf7l9/do7de8iJ1QmrN3HXXOS1pfK6rXnSNfOYh9f7ZRrUkzbprNKR95TKNz/f0L77zpD751BGZTPvnuvrl+5/S6nxisme6p08+dUSlXLuPd/Xr39sjk+n/uPQ8/Yt/eFLHiqiOSS8/Z5X2z/X0q9/do//2w6+QSfp/tu7TP3/5eXrbK16sVa2gJ6dn9N+fOqxo0u7pef3LB55RGaPueOaoRkPQbFnqV7+7R5995ohKDxr/X6/Vqs88pI6ZJuYKzRRRr7t3p8bmeprqFfqzJyb09MzCfpDSDD/z1G776el5/X/jaWAhdePLz7EQ0hplniZFtENq011G6w9imrvcoz799BGd2wryKMVgClatja18Xel2SzcppFbkwSxPmEjB88d3T+jQXCnltt/RUwX1y/9qixZOQ1O43S1d7ZAmexQxbXswk/L1nWpwa01+PM2s343ActuwlTIYFpTan8deoehpp1neP1RenyCX4sTGrIAIYKUzb27Iu5wDuaivVjAFtxxgS1V6zdMFg7K4Kqkpzzt7lnOVJjF5CumCEdZhoCwPbOWnn7z0fqW15aro5ax+buU3LbOlldeWf8irAUCF8BoAVqCtU7Oa7Ea9/qXnLPn5VK/U7umuTK49s4WOF6W+duCYLlk9Ikm6/ekj+j+/97Qmfu66Zdu2196zQ1etHdWdN136nP4+WMr9pnMl7aqQ1qmdL6Je8peb+9ueAqqQgj8LiurJFVR6mqUcY8zhbgoJy+jaM9PVuzePKcrUCtVSPq7pIvZDPHdXEUuVHvsBnZQPlKu1fzwNuxal1LJWv5JbSgOXI62g+SIqylOw6NKdT0/mAM301QPTWj8SUoV3DsF7MarlqUpWORwMtmh2qST3kLZNrv/6+CG1Q6qkzZue6jo8tU2Pkm7bnaqHjxdRLUmeSpy18/icdu/uaqZbKMr14NFZmUlf2DupN55/rr5zdFYXjLR14Whb3504viTw+/iTR/Q/9hzRuk5Lbq7dx+f121vH1ZPrwSMzkrv+/tAxyUz/bvu4XrqqrTIPU5eS7thzVHLrV723+5XrrlKlHpqczWF31H99fEIdM33yqcM6p50au/eia/exroro+vgTE/r1V54vM+lL+4/p6wen9a8e3KuRVtpn35mY6W/7f3nsoFa1glbnntqzheui1S2VuWpa+bkic4UQ9OTMvGbLmBtTpXbbpVwPHZ3RzV9/XNt++prUnrs6obKWNk91c5Wzy/ICUanQIUjmijJ1gqn0NNgS8v0OIUghfVf9felprWxbvBZxNcvZF9a9DpKKahVFM22amNbLz1klj1EeQp74kW7b+sF6er4cLUodmi9Sa21LQXc7V2ak2zn59XlOJ6SuBXmDTEGhlSZ7rJTW061QBSML7QSrYqdipWzkilA9u2kbDmBwQlj4nGkSk7HmNU4pLWcS0+Kh1YzEU3SVApaL2UL42ZR2u1X3qyYLFuRWjT00/M5iZXGXx/S8a+WxjKXHbos7nL3w0oJf1Wflols1SQ2eBAngzBFeA8AQveuhZ/TI1Jw+9JqL9b4te2Uyffamy/Q/f22XXrqqrR87/1zd9sMLFdUjwbTxyzvUMtOqlml1yzTaauklnXTItzqYjvdK/dQ3HtOX3vDK57xdv7Ntn749MaN73nBF/2dv/vvd+uXLXqxVwTRTpuD5/318Qp995oju+fHTvy3LEd5tuyd0YL7QaEhrS7tJc9UZqkuhZfIY+8G0pzhbRVmmYNSqgHRhrRxXqr42jwoh5Ipq0+9t26fpuNBmuRddhUthYWmfVCWbx1ujpDJGlSZ1zGVlVfmagtiRYJoPUlmYijK1CSw89luOm5laMkUzRY8qlNpKl+ZSTFUZFqrK3FzpLVcpT5dNOyqdQyw6jyg9pvsUgmJZBXeuX7l/Twr1c6msy9N63Uon/Td8eYfaOTz9o12HdLRb6EXtls5pt1QoLgkxg+Xm0lWgrrT/i9J109d2yULQP/3641o/0krFx+4qcuvrVHG8qP7XTC2l8LhlLim16C6iKyj0W7u7UpDfK13BUpVv6WnwZeM9OzTSDv0q4PT7dDJVernwnDKXeQpbZdKcu85pBZVu6saoN3/jMfUbZ7vr408c1pqWLbquVMF8w1celTxVO4c8/lgFztX+DItnA+c24p6rk9v9yuaFx80kxeiyVqqA9dzeuhOC+ol29RxU2o9mKcivtqH/ulB+vUj99a4XT8BIg1dRbkHbp+Y12Uv7KDc6WNRafKGC7Gf+frdKd/3NG67QaLD8lPM8uSOdVJYraBA2SPKYnmgHu6X+82OH+rO0qbxeYJa7TYjZ6wAGJ03Ka+K7jjMRCKeUzlCqQfd8cmHNCRGx8lWTXJUnTjdBqv4c9lYsr+oIPU0+ZnYUBsdkUu60F4LncZ+l/buX8zMs5E5x0gldbTxNundmCwLICK8BYEju2HNEOybn9J0j03r913ZqLka5uz7x5GG5TBPdUtsnZ3Xb7kO69fKX9v+uqjQOyiGOS2NzPf36955OwZOZvjx+XKOffUhP/Mw/0kWrOktu9z8/fkjveWhMRQ7Ypn/+tWqZ6fK7t+knL1inY2XUveNT6pWug/OFXv5XWzX3v1+vvztwTJes7uhwL+rcTjrAXN0O+uah6TO631XAOD5faPPkvExpbel0nJqrKEO6nCzk8DqF00GmUmmdYo9RKSJOf1vmktNujGpbS1aFsJIePd7VhtFOf73iXg5bO1YVSVgO/ZTaMeewriijRjutFITHFGCXLo20gmK3VOllDssWqj/TmJWrZaa5Mu3jbuk59E+PWb/6Om97VMwBfWov3gpBRa6Wtf6ZuykqKKpMVbeegs0o03ePzGh9p5UGLGJaea+IMQX0/a1L+2PvbFdrWkHPzPb08NHZtEazpNHPPqy5n39talBu6TGIpRRjClv75xSL9qvlELdImbzKaNXSRVIOVVsh7YeU20d1o6ud20TF6P0A35SC/mrd4uiew7cUnlqw3Fo7PQallyqV1kOv1nwOOZj1KP3DxLQenZpT4a4yuv724PG8L9NrKOTZxG6e27qn9lUxP55FmWYhe0yhtqR+G+9+Ph3ShIaqwr90U9tya+5F6x6maq30d0WZBr/TlAVfNCoT+pMWSrmCuwqvGsYvnNBVbe6ju8q84nX0kIP9xaF6OgUtPD1H+pMrPK2rpkXrQx8ryv7a2FKu9K9mcuTHOeZwfiVInQiC3MtcxV+tCu6E10tUZfgMoAMYnPxR0ziW14QETtTK5xHVcVzVwobJDhiUqvtSLlpshPRSauKnyYJqLEBmaRkqYEBM6o9DBE8HbmV0/fmTh/N4gS9p5/1CC3nyv5mdUHmdJ+KrtWy3DaBeCK8BYAh+6N5HNT7b61eXlp6rHS3oNx7aq3WdFNruOt7Vf3/ysA53S33yqSP6zs1XqR/mKSjkyt5DXdfnnjmibn9tGlO3dB2dL3TRqo5+6CuP6tVrV+l/vO5SrWsHFYrq5du+/suP6mM//Ap1ZJopXKMhHbj2Ygpcu+56zT07FILpL54+orXtlmZzmre6tfRg83SEIFXtiB84Mq0XrWqr8FLBFh2guiu0WqnKVZ6rg72/bqsFl0WlBNFSG8cipp/33NQKnmdrxn4Fs0s56JKKfDOtkIJXjzG3J0qBrYKplKllOTysrsBSm/COSdHS3xbp7qhtOQyttt/y72JUL0at7bRTiBtMVRrq8n61aMzBeJqUsCiwrII6uXploeimUlGt/uDwQpgsKVX1xiJfXwrCyzxRIeT742Yan+vpW71SRZRaFjRfRl3/5fQ4Vy2/o2yhxXUOdquTjH6vc6V973J1ciFxVQWfnqeubuFqtdVfl3yktajdcxWWW5rEEJT2a8dCCvW1tDreLD0/y5gruqv9WG2XUkty9xSOF3GhsjyoKk+v1pJOwXbVWrxjqeLbbOGx8H4pTWoHHsz7o0JpskO+rzng74Qgs5gDX+UnX0ytu3O46paeZ6E/yumqgsbonidjpHsy2rIlj69ZqqVNFfHpsYtW3a1q9n41wJ4mRUSPKqKrLZO1lGdPLITXHVN/ooXSXcr3Kddg57bkKyUAbVnot0eXW57okPZR2fBBrjOT3wOdVrcABuP6L+/QsaKaUtYsqYUtaSROVi0DZKa0rIxVR+jAYCws19CctdZNUmz4AWw1+TadCTb7vmJlqboOeszdQ3KXvFvuf0rVe8lyvpW0QuiPFy2efJ4+S4NoGw6gQngNAEPQCdavFo65RbHloKuqrK5aLj4x3dM941PaM9OTpH6waGYKwVSUsb8mcxG1pH30v99xQL/w8hfLJX338HHd9LVdunC0rbK0fhD86LE5venrj2ldJ+ju/ZMaDSmQXlgnWNo+Nae1nSosd80U6W9Ty+8zO7Dst+dWqqzt9gqV0SSLaoWFSs8qvnUpV15LymFlGhiSLKTK3DKmdtstd3XLqE7VMjzvRwtp5nb0FIZ2lMLnoLzmcHXwrhTylJJ6Zal2K+Q1ur0fYBbuGsn3uxc9z3Q3ddotdYvU9NssyIKp23MFT23GO2apalcpGK/KM1zp9oqYKltHWrYojE2Vv26pWrdwyS0d4LdtIfDudynMFeLRXT1PIWYI+cTfFwbWYkwzXQtP1dmdfLq8+eiczu2kuuS03xfarHdCUK90lf2wOcg9KsrU83R9a9ohV+hWo3jpsex6qVXeVhGj2rmlenWyIklyk6mlwqNa7irc1Q6mIqYAe3Hb7GpWcKnUfny01UoVyNV+iC7Pj3u0tF50K1TVuYtC4Oq1o/Q67Cxqpy2l62+FdN9alivx5VpYotrzazS1P3eXSktrSpvSazDmEnvLrymzoNLLXDWd10jMD141zBldaoewqHI+TZ7wnNaGPKlg8XW4e67ot34b9nwv1cvvDdV25VQ6VXi7dMVd29Rz1wWLOjSEqpo9KrUTy/t8pQyqhHxHqor3qu5a/dAfFa+WGSBvATAA1XvwCpnr9MJyKmlxaq1FywalyZ2p9JpKfQxKasGbJg41JbxWf1J+cwVbmHTgeTksYBCsPxa1sEyZW14qz9Rfbm+5VON+krS4wrsav2v4Sx/AGQjD3gAAONu8/K5t2jfbU1SqCq2C56qlb8pjYz9MnYtRmyfnNF9GXfbX23LmmYOoKJVerdub1hNOhc0p5bv96aN6amZeMmmi63r82Jzum5hRqstVv7VzP0+W+usN96L09ExXIbduruZfRpmOl6UeOzanNe3WGR/Umi+qXI1RvXzLUeGEcMz7VaiF0gG0S2q3Fj66vN/K23PFr9SNMQXcVUGrchWxpxC3lyt/g1X72hdVrKb7X5QLAbFZ1b5a/bZGIyG15e5GVyeY2kFqKfYvV1VDzxeeb6+lTiv076ktOliPueq3yPevE3LD5v6AV55FrxRw98ood1MrhP7esrzOdXWSUbqp51Et84XrWlTgW+a+cr2Y2m5XobpyCOwec7jt+bmQ9mlq16xcpZ4C/SJWq5Gb2raobbgks1YeQEnt3kulIN/ydi3KWOW5Ojjm20vtt0+4TL4DRQ5ey3x7i/eXK01MiJ7C7ZZSEB5kCyX4lmrbi/xcL2KakBCqF1V+LlXV5i1V1ycFC+o/zNUjmoPd6J7bb1fP5Op55f02qkX1XFRqS764Yrx6bNp5okN1XdVEhur2Co/59vLyAXkZATthX1XrkadAvHqc02OV2tWnFvguaaYotfv4vCQtPIbVxI582ZUygJRfjaomf3i/nXsK/VHJlfOKK+axA9B0no8hhr0dLzwz0cUCp9QyWziX8sUVsA18IWBFSnNh0/OtKc+7atmiJquWLWvq5yZWMK/KRFK3wYXxjfzzXDyxXKoRxn63uszyJPumv/YBnD7Ca+D/Z+/N4yS5rjrf3zk3IrP26n1Xt1otdatbu2VLtmSwJdl4EWAZyxgw8GF9w44BM2YMHtYZGxiWgWGGAR6YMe/NYMCsxvDAO3gBGdvYRpZkLbZk7VKrW11dS2bc8/44597IrKrurpY7q7Kjz5ePjFSVlRnLjci493d+v+M4qwybWzBK7ZQOqF2fyVUdo0ZUi2jP5EjAY51UkatiGFiFt8rcxx2Lq06aFwF4wycfxOH5rsU/kwqDzLnSNwlaMLNAN0r+51l/f6eJzZaAJyqcPTTXxWs+8nmMBMLp9sLhFANkvQPnq4iCBUKxr9cTIcV8q3u0IFKhFRbObaKoQEVPdbMLCuLcs1cfwvXAVsmdLoIWMxgpEpxATJAIE7jNZSsq7JL0+HVFXeAtJnRM1yuZsgAMqgOOqhjRCirElmTvlUVi7SWd+gh3Ko0BL8ic5enD1C+ubuuo782oPy85PCgJ1yY4d21M5e2SiNwIDebyjirkq7CrR7JXME+R2107J4HJxgx0P+0UdEWPR8H94rVWzGrc+wgTOlVEN0a0KGmiVLuAoWt93Z5jX1o/6cWvA3S7uzGCJSJw7+/EjhrsXMPOdR3RLVZJDNHCgk7UiO9UNGDKb91j3cZeRBKAbVKV3OMgRAt8q6JokQL19qmWHgFc9zHa8SG7DmBiMsQ+j/UBLZDU/dhjzB7jblWP05Cc3nmMSq5WFhA6tl2FxcHX9mv9+xbrlj4w28HNH7xHr9HeigEAkXT/uqd5rQ+KwGkQwQzXqTIjuvO6lzwEPTbccZzVIX3FNPKeYwWOjrMYtuJIAtUPZNQgB6wz9KTUNcLpt/QaVogInzk6j1s/dO9ab8rAYNJUNaH6sX2t+doP34fXffyBtd4MZ8DoEpHO8bVtHAHEuQhGhAbac57TmgwWO6/1/w/L9eA4ztrj4rXjOM4q0wr6MNgVFc4q9ET6JoOstik1t6M6fKuo0b0E1oXBKJAo6MTK+v+qmzq5aCm5LDXjWR20VaW9b0nFbzIXrELmDBV17VqsMiXR1b4xulHFsNkqZtFspnvqafLD8138xYNHTGhFFj8XBCi5qHvYIomDMFE+ZpE1EFnUcnoh5WNZEqFgVhEyi4eU368SFfkZPY7qHP1sFZ6IqCSaoJmKCigfgyz4BUYnAqVFYAeyYgChXDigkdZci7rpKJsYm45BJaLvxYSCGKFvwbcWNivY5xEsOt1c1cwgYu1PnRzJoo7aADYnCGsPcNHJcWX7uhAjStZo8bxdNpFI8eldiwznWvvOzmuRWpxnUlExS/3mBu+KYLQISGUXrVBLo0ifZQIroBHlBWlfY7Lmy8R1fFQEsFCp477gYMc1VQ6r3N+tJMe6lya6c4pyTK8mwgJiLlIoslgOjamzKuRKBGUIKiqnvbMClBTvLuB8LgvbuST0a88mi+KWiG6lfaiDFVCkomdJFc4mdLON51ygkBzdpNdoJBPYzcUeuE4H0CGt/3+hqyeuSNvT8z8RQIsoF0bMx9SIpjGHAAAgAElEQVQbPV1iJnJHdRUtDMkqbA5MsNuOXsGUe5U7Rs+9ZEhOneM4DSenoDTwnkPcnF6yzpklENfpN3n6Qd4j3Vk16jltcxyLJMBcVeFYt7lx2vm8pbngEPDRJ475d905gDqcdQ2DASCKtR6wanca7L2E01oK0F9wk4vwHcdxFBevHcdxVpmWOY+71qe5ioIioE7osce41Oe5EjLxOpogpmIUMVtvY8puW3WPShae6pa65mglFfSK5K3sjfAWQYQKxZ1KRbi0/qIuURW7FkT7BH/xeAff+k9fQGBa0aRyumC84oP36PsRLMoW6ryGJTrnp1TJTnEV8JHFa+5ZHRKJ2bFbmoO4ZLL+4TC3qv57cpOX5hKm5Dq3WHRB6kGujt3FEdjpMysRlCAsxIhWYBSBspAsMZrwq/2IR2ybk+t10wjngxpJhdbKHNMFLH68R4RMkYPJUd0KjMDaw7kWY1XFi1ILtgXp+WO2g0f1lEAitHe1CLqiwnq/QM8AaV/lblQRs8iR2kno1xip1A87u5vzIK4PXDcKdoy1zFFsUdiUJW4bC9ZLPGi8eMmsjuo8HvQ4iF0vQBoPsFh7fY1IumbU5a3x48gCb3qNiCBGdfrruWYVnZPubj2n2QTiAjp5C8lZw+lYEgSEysZZhDq47ZOyOB9FHfURyOkILMjiPAh5u9JxIqiIrYez3wndidp7W53XXEfgmwM5xe0L2+fZe/UO5yS2t0LqoQ0s2AXIPedPhCwdAsMjXttYTc6+nrqX006CaDSy7L86juMMDBKx4rVmMizigjNc5MLT9AySHs+JTvQnjnNGYcvRUsFprbfmzJDmpg3ZnWVRAZFyQNowzGMIzY9rd+qCdu15TbnXdPqdxEH3vNbVIwLl9R0ghdLV2+I4juPiteM4zirTYhWLOiZUEUzIys3SamGpG1W0bJurNXdUFlGhlOposK4kV6sJ3D35U1VUwWuha0JvUbtQycKI1enNWIhirk/KUddJjBQAC+YAjxA8PKcdq3f85WdWtO9kjXlTXHbXos4LJjAThNI26ed1zZmehOnU3zcvDlmPnG6EiZSEkMR9JGFat7yCCpAFU+6JrVJ/zMc0xlq4LpjUSWyHM6ng0f62ZEYBAgvAKVK7x1VdieCNB7diqmQwBJtaJb5q+3SqBkDqWZzcwYGsZ17fFN1eh+SA1tcE5uycF1E1Vfs8qwhckLm9c4a3lUQwo4IK3BGEbu6LTUgFA9GKE7rmgC6I1HltfaKT4zoiqpNYdLvYnMpJhBVJ0dbAmy/dDqDeLtSHU+PTLZ68TZwLDHr82ebO1pj5SvQaCsnpbTOv9JpuVDd1Be1pXeYkAj2J0cTdSoA267kJ5vSWHodMiuSO0Dj3aOMiObNtoAKwIgSLgS9MsCZiE5416D4QoYr1cUrifOrjnRp858+BaDw26ntDWjTvRMnCerDJJoPyLFTsGqusYCMw9fWKz9eEaDFNJYCQ4KmFLq5/951gczWLbV8lgiIwOlHw5tsfwX+6/eGTXOWDJ6QJrdRjNt3suk1ZsTtj1KHqjuM4gybHPTbwpkPAQBdynbOX9LhNqOdeg3atOU4vlNrpoDnjjqieAzaVnEgHne8Nw3cMkc8bzgVyUg6kFoYo2LmXvM42KOrP7H+20qWWQQaWO45ztuHiteM4zirTCiqwLUTtxxs4RWHX1uNowlJXVKgaKULu25scuWAV+lqBUFAdWZx65ML65YIIFQk6JlB1oyCIVVciOWRUeOtUFRai5Jjr5AJOU5gqqjgUSB2ucyaMrXSSXIuk+o4dEbSItI+1aAS4fpxNVEl7G5fWa5gZIIk9YrqKihX0WBJUnK4/0D7LjmPBjIBeIS+JXuaghe5XLZYvnr1JjiUuCQhswUqUtga5erobBQenRjEeGIEZ8zFiOlvs9X2r5KhmVlc50nmxjQbVYisIpZ0XEj1e6X1EIroWHS+irmR1hNtRZ5OwxKrxWftsp6h13WyVi2NUQTm52YMJxdnxT0mcR3Z6t0NAT41DbTwRzn2Sk1BccNq/dJ5Tf2pBy+LLA5lzmZNoa0J4rOx1dn7qdRo716mvu/aNzmkEufgghQ2oCD5ScHaVBxKLVtfXac9rQRQV76MVBdTjOEnh1pvdjklBjK3twtz/lJ3Xv371eRgvOKcj5J7laaEpJve/RZiT3Rfsk3pz9SvRB7go1v9ZxM5LTK8GSM9PaWkFSeSuF1X1um0Fyq0HqiiYqao6NpzInNd6zS9UEY/Od/E/734ca4mN2OxoEpAWV1jMu9ML5fuk4zjOoCFQ79dVwxBEv5k6y5CesfTZqR4jcRiUKOecILcrQnOKbLQmlxAbfCGxJfKlotxqCL5jiNx5fW5Qt8/jZK7oKeQf9PwxsK1FmqEnkdeTmvkg6TjOM8DFa8dxnFWmJHWEEiSLkYHZBCiN/KqgYmuKEW5zj7tXxEzV6iZu9bikC+Jkl1THp7lgO5U+/rVMqCvs7q/9s3WiVMU6erwwh2+KKU/Pk10RtFkjlrsCLFQVzEy9sn5UIjmGODmA20Edwn3JeuZWKJnRtd7SDBUhmW1hFCqsRUgdD82UXZkCjTsCTCg30b0gjfnOSmyOWEsOXP2H0yMzpX9MwLeDoT2lewRB6al0p7r3btsioBdEMN0qkFZ0Z2+9Qt+L9HgzmXND0ilMx16rsDtVpc56AkJt24XGfNcx8zlOOyvE+n7bRgvtBy2CFjiL9KpR2rgScyYD2QGdjkV6n3Rkqghzb0uOymbS85H+T3uI23EISaA3ydcObjSBuBLK8ePB3NKSlGHbJo10T+J17aZWH7lWB0f0xJP3Cs6UT6TFsEcT1FNP7LSXetySQFyJoCRAhHI/6zQWmIId0+QyFzx7wxgumx7NboEk0LeIalc5cS6M2NQu8xjV45+c1/aQVqvzeVyXFhvPJvJT75gWFcKjqECeeozn8dCjh6vzWu9HWkihRSCCHgc9aa/4AEIH2mM7F5msEUyARLOG90TtIQqa2xXvS8OXoBzHWQ3ICg+beM8hwGOgnWWpE2GA+kGr2XHHznDBqSi9QeMu1U43WcRSzVDnpwTkefNaQuLfdecCPUsCup6Xq9fr3w7UeS0pra4/Nrye3w/BxeA4zlDg4rXjOM4q0wqEhSqiZb2XmSg7CdMDYxWTSEUW22y9rO1lKZa5G6UWpIlyzDBg4g7rJGjBXqcOX66ntaaQRSAL5imS2VSw/DoBmQucUTCjU0WMhKCRzADe9fAxvPfxY/jQ48cAAB9+4hj++qGjuPvYPP7sgaf0bYgguT+zCn5tDhazJ8m7jBSeXZoYWpqIrvHPaQ8pi/sA4frNY5guAhipitNeY3/ZFROlSTBeBFw82TLBFoC5YwOlHtUWk50ESPQ+XOunl4QsngJ6DH/ikq12btQxDgCjRcBkGfBD+zdjquC8rpVE7QAggPqcuNLj5K4koopanZr7FseY3d6puKAyYbqkFEtdC/Migt9+9nkgsjET1DVe2vgTU/+IGJVERJCJ29pPuW9cSYRQr8DN9XgRFaJ/5aqdFhtexzjncRoYt+5c17Owom7ZToxoB4vLprrqOx3hJA5nZ7xFladBLCZcl8x6LRByHH2vU//nr9hhYnl9Dii5rHu3KepiZO5BzXVPw+S8ViFXz1FvhH+7N6LbnObt0FswoLHf7YLxEwe3QgX1CBCry9k+Q2taJJv1k/BeZre4ifhAXURB6XjB7gvWmoAl967X81j3vO5KSnrQa6OutifEqNfq5dNtbB0pEcA4mXZ90/s+hy97z50nfsEi/uiBpzD5jk/2/WzrX3wKb/rUgyf8GwaBmJN5HzEnKMhQLPoMHdScCEnHcYYbsu+qpi46+r3UWY40j6NewUcG2y/UcXrhPPaak7bTK641FRWvdW2EAw/FPYMYnjJyDkAgbUMoAu5pZ5YTBYXwwOw83vPo0wP5fKZkSFkcG86Q2MwiSMdxnhkuXjuO4wyQP/viEbzgvXf1/axFjI4gRx+rtBX136L6Vuu+xSrAtZiTDgkAuZ9wFq8t7odNtCUQiFV4ihATr1UoZQiYUt41ILGOA28FNldnEm8pb6GIuXZNNCsDo92zXV/7oXvwkvfdhacWKrz0g3fj1R/+PL71nz+Pl3zgbnzdRz+PF73vLtPfzLkrSZw3wZrquGlAxbeDky0E4hyjTMmZrEcB0QT9gglfvmkK20dLdWWmCC4yN7FEcxATAjH2jLdwydQoUqQuoBXGhQm/bOKieXbN2UnmVtXH6xazLRRQ1ha/e99mpP5AyQE6Ehi7xlr4zr2bMFWGLG7Dtjv3Frf3GAmEtz/3/DxTZxN3kyBbHysT+62woLD3CJDsUs8xZESYKAKiubPT2AuU/d3Z8R0lOZO1lzVJvSCSug9F68Uu0F7jr9w5jRdumcRUGXD8VVfiBy7aghdumcj9wReioG1C+eZ2ga/aMZ1d8S/YNK6iNICfumQbNrcLMHQif9l028R3FY4jKI95CMA200pxclWUfA4DJdc4TBjWfXj9gS2oojrCf+HyHdgz3gIzYX27xP9+7vnpCrOobEYU4IcObMGIRc4nRAQPfOWlPf296+rkFtfB4qkwosWaqFBYuQdZ4sGICd2CFN+vzmpAwEK5aKLPeW3OdLZrgsypncZVZX2iAmnkOYFqob9nXTUCaJHGgQfS63HUtjO9LkJF7qvXj2PveMsE+6XTyY7t/IZ2wBPzXfzcvz2Ma99di9gvfO9deO6778Tv3fsEAOC1H7kP1/zdHTh/vIVjXe1TnhgLjN+77zC+8aP34d/ddj++fNE9NMWMibnJRVIJTZ2M4Cha1ODxf47jrA7pmaKJtxwC+73UWZbc5qW3uI/s+dNxVgGSWuxpyn0qFXU3ZX+Wg1PfLYImSA2DaCwC7zjcfHRdTscf29MbWQu11F7wbx8+hn958vhAPl99FmLraz22Bvse9RHoOE7CxWvHcZwBwhB89In+B75WICzEmPtdMzOYuUeIrCObCyIEqOO21t9SD1OLDecUMWwuWhKNbDTxMjmv24HNUWxClzXqFdQR3gWpuMbmKk7S7k8f3J4F1NIivgOAVgBg4poWaRKOdCKenKswbzHiRzoVogg+8sTx7KZlE1VLE29VDOt/aI0i+F/XnI92MNFWLCI5HStYz18TKY9XUftnE1DFqO5QIUwVwQRBztHc81XEWBFy5HDqS1xkpzH3PDhLHV1EdZxXyYQLxtt408Ft+JbzN6IrgvWtIkdvJ/d8m4E5s2tPl6FvQbfg2iVN9hmdKJhuBaT2y4Epx4E/f+MELpseQSp7qCOdatG2CJx7o0dTj0UEEwVblDRQEiNw0Jh50rGQhECyfczx1Wm8oHb8r2sX+bgXTJitIkbNwZt47w0XZWf5TLcy57U64KfKkCts33vD/tynPMfIE2G0YPzBtXshQibEMroxomvXDqWMdWJMtApd3ICK6WyidYq+lyT8ign8zHmSNBIoT5qmiuRt1yByprpYoaDaWZMYCVqoEAJZIYXF/Ae285muV3V5d2NEGfT6YWZEiH4+kLezEsEbLt6KA1MjWgWdjr5tvJ5rPVfa/9zuNYQ822MT3dV5ra8NVBehpHH9un95AJ87tmDueT2f7Z7zKDa20ti8/egcbntytq8av/yjT6D9x5/A9/3L/fimj9yL+453cN/MPP7rXY/in5+cyaL0h56YwWePzuPtDzyF13zkPtzx9Bw+c3QOX/G+z6HNhJE//gTKP/o4Rv/kk+gKcKwb8dEnZvCJp47jgeML6CUfFttnQbo3UHb6O4l0Lk9il3ccxzlDEAGIQC2jNInmOBqdM8vl06M4NDVi3Yh6Ch39u9dZJfKcoUGO/5Rk0OTbLlmxl9WaD8W5Y2K/d50D6FoKq/Pa1hhzizFBXhvq7+13hrchr7v0/gx5jc5xHAdw8dpxHGegJIdgL4TkiEwR2NLjmiSLwVUnrfb+FQQGdo62YH4WvGrXOhUYRfCWy3bi4PRIdgpLVnXUkdiJ0QRLkzxJI5DRMyEsmbXfrQncMC05xXc/Z+OYvY7wk5dsx0UT7RxVHkXq2GICfuiTD+BIt4v5KKiqiNluVMexKuaIJqQFJhTEWVRb3Nsm9Voq7HhloUrMb53EXTtOx7saO33eWBv/5YqdkKi///xXXaIOYTsqTISFCIyG7DkGoEL4J77iACbLkHtPJ3E/uZdh4iIA/PIVO/CBGy/C91y0CYemRnIM9bfv3ahu8MCY6VZ43w378d4XXggAmG4FvGTHZN7H1+xaBwawuVVgqmScN97CzdumTUTVScNrdk1nJ/GOsRLb2mUW26VHZLx5+6RFSWdJG1dtGMuu44kiZEF6z2iRx5dEFWphR+Ob9myAWHR1SFHmJsS/dvcGfMfejTh8y2X57wMIc1XEaAjoLppxp8jx45UJutBo6qmS8fW71+XXaZEGMBsFIyGYyC1Y3wr4ht0aMX7rzimwjZvJImC6COq+huCBr7wEIvpQ854XXoj1rWA9oXVK9Kzp0b6q/XSM5quIEbbtsqIBmzGhKxGB60WEVuD6era3GmEVrYOknulsznbUqxB6+NCyCP/CjjSbQ79twj1BnePp80o79pImk6mdvRD++svqfUz3kHT+dAKqEeYaga/jtidNEHlw2d+UVkRRckCLGc/fNG63AMkFIpUAD812cfvT832x4epQJ/yf+5/Cux4+hicWKsyL4PBCheki4O2ffxIX/fXtep0y8A+PHcMHHjmGR+a66AhwrFth1MZ7FBXQK9HY/S/OdnDfTGfJohVTSh7Qop4ksPden04/7v5yHGc1oPx81ryFb6uJdJwl7BlvYUPLnt2jpWlJsx2jznBBSGlNzUmISOsjzdib5eHUBgnWnmwozp00Zgw5J0GirSz2tiFLgjLy2tsgx4KuS/b3vCZbn/LnLcdxEi5eO47jDJBwgp+3rH9xLRLD3IPJZZr6M6vYumu0hedvGrdJHPDrV52ngiwTjlcRI6l3L5I7Vt8t9YNuBa4j7exzUzVlcu1GERTm5gTswdEc3FOlupcLIjzdqTBq7t6CrTJX8ttizoTOmUpQgTDbrTBRMJJEFwXYPtIyZyxww9ZJvGb3+vSh+lZST5pKJnz9no24Yctkjhbf1i5yleimVgkGcLyq0GZGR7Rvr5jANR7UhTpVBjtGgvkYMWrH7J6bLwGgx/pYN2r8dtaq1b1ci+q10NvLa3avw5FXXg4A+J3n7LY+5oKZRWruCzZP4KcObUeSl3/3mj3Y2Cpw45YJfPZlh3Dbiw/gN599HqbKgJ0jLYCA37j6vOz6nY8RowXbcaL8UB9F8ItX7MK49fwmImwdaeF7L9yszmVzXqvQCHz9nvXYYu5pELCutF7cIPzPZ+/OjvgcU84aQ/671+zBbz9nNwBg51jbxGk956OB+5zXALB7tI1AhJluzP2lO1Hw3I0TeOs152PfRBuwcRyYMGuvgznQt7QL/O41exBF8OtXn2c92wm37JzGczaMAlBBeKJg7JtoY894G0e76sBP9Q47Rkt8z4WbchIBUBc8pO2GieVTRUDLLsbKxPDU41zPQbq29LpqB7brkHN0f2UR4bk4RJIDny2KPV0vEZXUseEfe/EBSw2oxz2J5LbzsO1P57xI17x9Tr68ibBrtLSEgxRlqf+uMf/6/pNlka83dcXr2JguC7xu/2aIAPsmRvTagMbE66Ue+yqh68IbYD4KnpjrYIQZYwWjYOC1//R53H1sLp+Pyv55fL6LjWUAEaMAaiGeNKlgLgJzETmevpdAlO9haXvIbo7e83p5migkOY4zfKTntGb2vO75TnacRaSUqAQx3KnvrBr1U15zEiJSfW6T+y9bIyRo3ddwnDuCtxs6F6iz9XpSzYB6XS8Vug9wCknLpEVo3T419DnScZxngovXjuM4AyTw8pE3uV9yEmsB2JQli8TBYpaZCB0T6NKLp8qQY7xnzfWaRKyXbJ8CgBxfrVHg6gq4euMo9o2XEACv3rXOPpPwQ/s35whrJkmpY0i9UvPnMXDMxPIk0FYiJhxpH+EAwmxXMBoI81FQFmwu53p//+nF+zESWF2WUbBtpMDukRJkgjtxXTVeEKGKFUaCHsuCCe+7QZ3MP3/5Dvzx9edjquTsvO5EwVgg/PD+LWBWhzsg+PPrz8fmkRIv3jqJD9+0H6NBY5snLSqaiXCsW6FkwvnjJbaNlACAr9u9Hm88tCMf3+V6UU2XoU8aUtGQcXwZJW2y7C9puOfmQ/iVq3b1/WzfRAvvv/GiPHZSJPhcJRgrQj63IsAvXLmjT+hnm+kvRMFkwfhBEyI1NjzFfGs8N0EwFgL+6Lq9fQkBhfXE/pa9m3D9pjEQEX7ikm1923j3yw9irGAwYM5rWiJe333zIYxYgUXLHMbpNUzA515+CADwpoNbEQiYrVS8ZqYcN92ycTljhQWBCAuSROe6R9LnXn4I99x8CDdsnsBdLz+U0wE6IpgsAwTAL12px/mnL9kGJmCuEhtXKnoemGzj2RvG9DxLtMh2O7Y5gpx7V4isj7rG9THp/rU5BYyryJ16Xqd2ALr/ej5GgsZ1jdv5iSbWpmSGm7aO2ydRjt1PY4I5idYCCOEbdm8AAHzyJQfUiU7Aa3atx4HJNnaMlvjmPevzDPRV5vrPn2VifScKJswJ/bmXH8zu+W4qihHKqQi2VejYGJiPkiPkx0MA537uKjZHEcx2I2a6EYEIEy0Gp3IQ2+9uJTjWjWgxMGKR+4sXUFK0mdjxlZ4FYxevF5GLlNZ6QxzHORdIYSFNvOUQsbbmcZxlCD1JOECdDOM4qwXZDbgp4y4VtTbZgUlILcwor4OsNZoy0uCD7gCo7xcptU1EegTtNO/HgIv2dLyncb/xzz6FL84u1GuRjuM4cPHacRxnoGgk9tInr5KAl22fwteftw4TgVEy40M37c8CT8HATx7ahosnRwBELMSIiTIA1u953PoXBwKOd1XYLQiYKAJeum3KngN1ElQyo2DCZVMj+Kvn78MV68dREuHW3SpeRxF8975NGDH36zUbJ/B1563PcdkCFUEjgPe98CL8x0Pb8LcvuBDXbRzHhnaBHzmw1faKcd5ogSiCmSpiumDMVxVGmDFZFviKbZOAifMAclTxbBXxxoPbcOHkCABzTibnuL1uvooYCYzJIpjTVsW11x/Yims3jOP+r7wUv3zVLrSZMFUGvHLXOvynS7ejc+uVumVEmLWe3vO2AWPWd3mi0K/C+VddiedtHMc9L78EH77pAC6eGsHGVoHffPZ5+I8Ht+AFm8Zt+079JL3w6ivRZsKM9f3uZbLgFVWSThZ1b+/CROm5GPE/rj4PP3vZduyfHMHzNo7jR/dvBVl0d4G6L/OGVoGXbZ/C9+7bBNjYSLHhM111qTMzFmLEZMm4btNEHqkpMny2W2EkMNaXAT940eYl21hYzNRcFIwwYd94e8lrHr/lcrzx4NYs6HaX2fV/f/FWTIRgY1lft3+ifq/uq6/EeWOtLKrPVypei5xYrExO74VK8PIdU5i/9Ur88P4tAIAfvXgrRpgwF3VcJWEZQBaXKzNYM2lBRMmEXe2A11+8uW8VhSnF++u2aWy4isHq6tezyKRC7nfu24TL142BoJHkbbMkt60HdmDCQiUoibB1pMSLtk7VaQo9iQQ5Ht6uFQbwNbvWQayoBVBhvSMRJROiOcUTgZD7cpcEsI2xThSMF3VRTSA9x90ouQq61wFBBDxn/SgEwI6RAhOFxpmXBFw+PYa3XL4zCxkLUQsJFmLE+hZjW7vE1+7eAAFyMcZ8FDAIo4ExGhidGJdMXjkd1VQZbsdXz5vPdJfSnIVMx3GGm9q408R7jqDyCinnBBRMuYVS3ZrFBSBnFbFqzsYERKTUpwbfdklSz2u9WwzDPIao2W53R7HsNgiAm7ZN4jkbxvM1R8waH5KSAQZMtLWVVMQvIl5A4ThOpljrDXAcx2kyAXV8cC+toH2A//vV52Gmivibh5/GZKGOzgjBf7vqPBycHsX3XrgZX/XBe/DQfAcTRYCI9lEDkPsgH+8K3nHdXnzjR+7DPx8+jrHAOTI7JFcoNBIbULG2K4LJorCYHn0gbVn08Ww3mjgeIQRMcMBUyUsmUxMF4/7ZiLFQ798bD23DT376IRxeiPi6Czbgt+9+HG1WAXFLqwCEc+/Vggg3bp3E9124CQCysJZERILgeEed0PNR8FtX78Zbbn8Y/+XOxzBRcO4L3csfPm/vsueBoa7eX71iJ8ZMrB4NjBhVrHzPCy/EfBRziCttJnR69jn1Dl7ppPLtz9uLyXJpjdhkwZgqTxQo3/+6Xuc1QUVbAPiefZvxPftqMZlJx1PJhJdtncJ/f/Z5+XcTBePdL7gwi51vOrgF124ax988/DTWl4xfu2oPLpsexQduuAjvefRpHO1UKFjj3eeqiLaJt8tRBsK1G0bxwwe24rqN48u+JpGc151q+SWVViDMRT3u20YKvO+Gi5a8piCgsgIEdc5HyAnK8d9343684h/uwQOznWV/X5AK/n9y3V58/8fvx1988Wj+eW/PMYa6t0tmVKLHA0Beoddof/1Ptt7QLetfNmYCezp8IQvh0IjrCIzYmGtbvGSwcVeyvle7Z0y+/bq9+PqPfL7ezp79EdT9s3u3Sz9Pr982I7vGUhsBgW7vcdKe3Z0YMRFCLrBIxQRd6DaDCbJo8f6DN+7HOx88gkunR/GPjx/DH97/FD5/vIO/+/J9+NenZvGTTOjEiC4Bb750O375zkexb6KN//asXXjHF4+gK4J3v/AiLFSCY90Kj8x3IAI8MlfhzXc8vGTxN9i1aKZixCigoGL8Yve/ozTZteI4zvBgXR1O+N18NkPWssVxlqPI871ml3A4w0sagk3RHS3YrdEFmMx1wTARhqLwoCfQymkwWsReF4kH0lZxACAx5uedQY6F9G2Z112IckG7x4Y7jpNw8dpxHPg8DbAAACAASURBVGeAMAlkmRnkvrEWWqZrjjKjimKCpk5gnr95IvcDHg3qjh236G0x8VcdkcCsZfmMBUZXgPEQUgNYvPq8aXz9eRvwVTun82ePB3VRjgd1hZM5cUsGvnHPerz5sh346X97CM9aP4rdYy383jXnoytLY2cnioCFKBhLbk4CNrSKPOm6eHIEk2VAixlzMWLLSAFQ3S/wxVsnsG20xPNM9GwtFg1NkO1zSxeMr94xhdHAOPI1l5/GeVBR/qt3rss/++59G/Hd+zYCAG7YMrnkb/7g2vP7/ruwY7rUS708L9629D0BPW4r2fYk5s9Hwcu2jeOCiTZ++tIdy772tXvW41inwr3Wv7uXDe0i7x8DuHR6FM/bOIE2M8YLwvM316Lzjfa6J2+5HHvf+Rl1VAfGc62/9GLu/8qln3ci/u4FF+J7P/YFzJ7AtfTlm8ZVLOcTi+Uv3TaFv3zwKOa6Eb/57PPwq4vi1hczWjAWTii8M+ZsW0ZMKAZq53XsKRLpRKAgdTKMFJYPbgOBQTg42cI/PzkHhhZftINexynaPG1BYXHoLTu3EXXP65HA1neesBBjLV4T51WE5MJO22WpXun/mRCeYsmTa1z3aTZFt9tkMFDdm3THSIHj3QpEFrPeCvjm8zWC/MgrL8c3feRedGMK6V4+TeIVdm3tm2jjm8/fmH9++bpRfOolF2P/u26HiOA5G8bw3I1j2D3WwqXTo/jkU7O4ddc6vGDzxLLn6edufwiV9C/lMNK9q973OjbcJ7p9WENwd1A4jrMakGi8NmilT0tnET0Fn46zmEA9/d6tBVOTRTdnGBEQcWPGXS4DaXjNUIpH18LmtT93RJTnwU5zIWtZmNYWijSxTm25rGh9kLHhZO3Fek0DEgkgaWQRpOM4zwwXrx3HcQZIkRrhLuJHDmzFV5ugPGaR3ClOmqCO18RoICxEwURpTlyqRbVfvnInvnHPBnsfFf0mWqz9YwX4nefsqcVlY6II6rw29++esRaOdbVP74y5s3/y0Hbg0PZ6P8zlOdczoUo9lJOTWUSwoRU0djgwHpxdwERgFEGF4y3tEiLA+RMtHO5EvG2ROKxivmQRcedIidkq4mNfcUBFQAA/cNGWlR76Pp585WXZ+ftMKViDoVezIvr4q65AyYS3PXd5R3ni96/Zs6L3YwJm7Ry2gwqaJ6I0wf93V/jeK+E3rt59wt/9wXPPBwB87YfvXTZaHADedu352P+u27GwwkWZEVYheDnaVI/nHz+0Hf/5Mi0MKC0auxtTkQiyEzpC0GaC9LwnE/B/7duMO55+EJ2qQiWClvWmHg0EkTqyOQDoRI13T4UayS3dZnV0BdbrvUy/N/e2pM+2xYQyxVNCEx5S/+zsCAflnt8FIb9Xb3IDoNPT77toC37r7sdxx7F5dAXYMVLirT3n/W3P3Yv3PPo0/v6Ro0jxYR87PIvfueexFZ2HCybaOG+shYUoeOD4At5x/QX5d6/dswGvtXvYcowHXhINny7l5D2PIlr2I+I9rxexY6yNR+Y7jXHhOI4z3BD3O3mahBZ8+WKqszzJeU1W7AohL3ZwVpXUr7YpCRFk7dea+H3SS+o0oKLxECCxMQUQzskQEIVcbFiwxoSbdp3XGVJq2yAg+580T2Um635AEG9y6ziO4eK14zjOAGHIKSNvRoOKVJNFQLAnuJke9e73r1UR6f/9/GFEiUjPcW86tA1R6sWSje0SP3DRZo0qBhAY5ozu/7zxQp3XEyYIJ7fufadw0TIBxzq1k+bXn6Wu17d9/nD+2YaWCuOv3DGFCydHMVkewUIEZmLElpEA6fm8xSSncaq8vP1lB7No/aWyWMB/JhSkomV3kOWnizhT+5/QmHnd/jYzjnZPvC93vvzQGf3slXL59CiuPUkEednjxD8Vbz2J8N473tf1xLgXFpmVdH3tQW1O6G4Sm+tANSYVmwMBFdc9r8V+R1QvIhXmKm8xm4MrxXKTvdZiys0t3R8bTtmdDQC3vegAvuzdd6IIjOdtHMPv3POkits5uQCAiMaG22JIm7mn+AVArPtYJRH9RK73QKkFgva8DgB+654nwCtcILv35mc2nsaLgPlF99Bgvbq1m6Qe69Rn0sXrft715ftw9d991pfPHcdZFUiQC64ahxDicEgLzhBSMOdEmPRo5IVjzqojaEzRBBGBiBsjxp+I3JGKhiNBiohcvD4HIJtP16lulrHGGiOSiioG+T2WBPJe53W0tDdPDXMcJ+HiteM4zgApWKPAT8Zo0H60RED31Vfh+vfciZlqadziRMEQInRvvRIA8B8Obu37/ZsObQMA3PbkcYjoey3H6w9sxesPbMXj89Upt62XQJSd2b2MmWMcIKxvFehEwbft3YgXbpnE79zzGMaKAu95wT789YNHTirkt9nE6xVv0epSMEAW8X62cvxVV+R//6svu+Akr1w7fsLG8YmYKkNfMsGZpkzjMFUAw5zXxKhAaDP3xdddvm4U8zGqMF0RuhLVLW2/v2b9OG47fByAXkNdqaPJqygYCbXgTCImhkcUBGxsFSqEm1aeZPMF2/9WIHSgPauj1BHkgIrXP3vpdnzHBZtwyz/cY87r/rYDsIhLwERyAfZNtZc9LoG0/xVI978I0By/Aa8njQfC8YXFseHQinCLDxewuU1Wt7jkbMB8YI1ZyHQcZ7ixr5ZG3nGIXIx0TkzofR4SAOyx4c4qY47JptynVDwTRGn2sz1BY5LJkrTWGq1vHoINcQYKiZpscnuz1E/MFhwuGG/jC8fm6+qKQWEF/YCuX0Rb9PAh6DhOwoMYHMdxBshKnNdjgfsmKv944/5lezBPFIx3Pn/fKT9zvAwYL8IpXzdZMqbKldcw/fl1e7GhvfT1Y8zZYbOhDH3OzYnAmO2qHL11tDzpw28rABAMrfiUjqj3gFpbPnzTfvzJdSePUf9SyMJyqkI2t3RBqHte9/CPN16E79m3WXvQm1u6xXXF+ntvuDBfHwXpe5WsLubaea0wadT3QhS89do9+MANF2KECb9w2Y6e1wAdqbe1GzWmXACMcB0Lzqh7h5c929XnvJZaYGgzYVO7wPtfeOGyx0XFbhWuRQgF8cCFawCYbIUlBS2c5tZURwqSVYu787ofXYfwvmGO46wOKQ2jkfccEV/Qd05IYY1rpWce1HTHqDNs6Nhryn0qRQo3/ToiAIj9vX/XEp0iNvuYO7YkUC8d5LWupBq/8eKtYKaBOqAtP62/5zWouQk+juM8I9x57TiOM0AC0ykfvEYD4Rbrf30ybty6VNBejoOTbRx55WWnfF2baUWvS7xk+9SyPx8rbLFGJPe/TrHOk2XAEwsdAMCWkeKkR6LNbH2AV7xJq0qxSNR0mklBgEjsm0QtVCo4H7Me1SLAN+1Z3/d3AQBE0I39valHrThFRKPFNcZb/+aVO6dzXDeg9wuC9PXpvmnrJNaVoScOvO7jXZI6vVvm7mlzPdHrFblzz2tmJPNCII0FS6P57ded3IkfTAQlYYhEaK2JWTwGyEQoEGVh0bakz1T1PQrlPn9+ffZT9xIbzqIgx3GaRYpNPlXh5tmIFkv5gr6zPKE3MlwAif7d66wui/vHnu2kAsymiPEnggBwbim19t8xHht+bkBE2ls6rRcw960NBFujGORISPP33POaaiHbh6DjOAl3XjuO4wwQvcnSSR/6vv2CTSftzTvsjAXGrvF21rBKJhy13tgTBWPOhLZt7RLHXnn5Cd+nlcXhwW7vM6WgJI6t9ZY4g6RkAoFRIfV/Io0NZ41ya1tByv+69vy+vwuUepVZz+ueccIELIgWQHRF0AqMiYLx1mv29DmvtQCa0Fm01jmS3txesxCTkxvqvDaxfLGLuyM9zusoGmduDmWNt1x5TXMgjS8XEkQIypBCzAfLRAFUi9IYmFIyImWhRHdHhrbtwFphp9m7tDqOszqIABA00Xjt91LnZNSRq6mBrTRGRHTODoi1jU5TWsX0lKo2GrKHdbL52lrT1NYfziJEm29l8TpNqg0G9LlngKmIZBnl/c5rnBOJC47jrBx3XjuO4wwYMoGp5GY+gD1nwxjuffkh/Pwdj2Ku0l69T1tv7Lf1CHwl00mPQWvInc3qvCZU7qJoNOWiynd1MEuPe5mWrQQumEHQ17SY8FOX1j3pCcBcVWXndXqv9Lu3XLET81FyctfCooWL0UWidPr9n1obgd/83GO553Xt0AY6VS1eRxBaPZdfSNXWKzwuwbY2xcEGkPbA5sHWQe4Za2N9e77vZ+kTU6xdFNHqcY8NXwJZ0U1aAPj4U7OoBHj2+tG13TDHcRoJk8U9Dumz3DPlY4ePo4PBLuI6ZzcFk7XpqFNpmnUVOMOPjr0h0D/PCKlst2FfJ0tI7lPIcCRIaQGE03SI7DsrF+zbz6GF+rr0JQOe6+scPve8ZkLViZYUt/bXguM4w4GL147jOAOGTFAp13pDBswbDmwBAFy+bjw7r0+Htj0YD6v4lJzXwxDn5QwOTcGn3Hs9EGGhimgFRjR387Ubx5f+HZPG3gN4xc51fb9TwRkoiNGFtgroHUfp2mEi/Myl2/Bd+zb3/f1oTw97jRXvv0jaIUAAiyDX9338FXVLgJIY20ZKtIMuAF2/acJ6WK88kqtg1j6Oqnmj56MGyusObMF7HzvW97PAbOYmm16rog4Q8nlzFII6cZLg8tOfeRgPzC7gthcdWNsNcxynofQ7eZrCc999Jza1Cgj5M6CzPKm9ipJ6D6/d9jjnHmQP5k2JfKZUDLXWGzJgiFQjHB7RWAba59gZDkgAgAHSUZda5KU5tTqvVyNCXnLiAAMQIgjF5l/4juOsGI8NdxzHGTiC7jnk1v3QjRfhdfu3nPbftZj6RMNhI8mHwxDn5QyOclF8/XddsBHftncjCqsKvm7TOD54w0VL/k7Hh/a8XgyJ9oFPzuubt0/jrdfsXvI6pqWuawBoMzBp7uuSOceB5222CebibU/85rPPwwduuNDixYF/uPEira6WlQeHBxOtex0QtAqL+IGw5P7JuhlI+rmgTukc1uKXtYIASJQsuBCa3zvQcZy1Q+u/+DSaUpwliPcBdU5OAABi/Oyl2/QHQs2Mz3eGnsZMVU1Ea7qQqt+bBKIhcV4TGhM975wYYq2aSEVXuVTevrcCs/5+kNtg/z/HhlOdYDIEl4LjOEOCO68dx3EGjEYJr/VWDD8tAkTi0B6r4gTCoNMsykXx9VdvGMcLtkzit+594qQLCsGE3eVewwzMx2jidcRLtk0t+x6v2Dm9RJgGgA2tAke+RvvFH1mmb/w3nr8B33j+BgDAN+9Zj7kqYrJYWp/YZsY37F5n20sgphUvCAXS1zIDMYnJdTLmwChoaRQ4Z3eT9iePqDTibFHc3nwUc6Of3cx0I8aXOZ8rgWxcxt5FgTO3aY7jOH0wJ6fc2X/v7UcgMTZHFHLOOAUTykC4ev2Y/oAaJCI6ZwW5R3RDbr851rgh+3MiiAiIEUQ8FPeM1JbJaTapADwNOV3rqif3bK8aZPFIusZzbDh0DUYikjXccRzHxWvHcZyBI7SsG9PpZ8SikU8/cHx1KKyn7rA6w50zQ0HLFymUdPIecrnn9TK/O3zL5SiZ8LJtUycVU3//mj2nv8GL36Onz/xirt80jus3aeR5IHPkrvB9g8Wpx56/WQ3ndcFL75/BrkUCIBQRI0A2wU3njd/+cXz2ZQexf3Jk4Ns4SK76/z6LveMtvOP6C57R36eum0m8JjTfweI4zhrSwH7XQP1917w9c84UhRWHpfmCitc+YpzVRDO2m/KYR9Dvk6ZfR8l5DcGQOK8HK1g6Q0JPv2ugnl8ncor4AAsZdC5POdlQW4NZazMvoHAcx3Dx2nEcZ8AQDa8gO0y0mLBzpDUUk7blSM5rl66bTZnE60WT9pKXd1UnXrljCh98jHHTMq7qEYv8HgvDMwkL1sN95eI1WZ/p1Q2DDdD75wceO4Zb/uFuAOa8hoCJQKIV26nPXxK6iYCnFs7+O+9YEXC088zvOgRtx5CGLp9Gn3PHcZzTxcIeGijyCiiwR6k6J6Rghogl+BBBJLoA5Kwqi9N2znZ0d6jxz60pE0njutceFRTXeiucQUOWZJad10TmhI4AEcguvIHP/CUiZre3IEI/X/z703Ecw8Vrx3GcgbN8H1ynn9fuWY9fv+vRoY3lLkirQIdVXHfODKVFZi0+zwUB20fC8n8E4A0Ht+INB7cOeOvOHIEsqus0Xi+kUWK1q27wueHJec1EeLpr0dewNnipbzdJFmmr7DAmPNVpgHgdGEcWus/473Uhs45j8wUpx3EGCdmzUtPc1wSGRIGH7zgnIpjTuqBUJeY9r53VRh+Mm7LskAKeGrI7J4S0+RGApcXTawE1qADCOTHq9q/n9dqhSkDMEBGEZNwY4FhIBTd1z2st4OgV1R3HcZ5ZAz3HcRxnxZALniumYB7aWO4ii5prvSXOICksHnvxef4fV+/GH1+6fk22aRCEFIG6wvGcnNfpnyirE+ZVMGGmivjj+w/X28KUNXOCQMR81yI55YIgeKrzzEXfYWE0EO6fXcDPfubhZ/T36biks8Uew+Y4zgAhABI1BrJpUCMd5c6ZIkDHR0pq8p7XzmpjtUND4d49E6SMqKYXgaSmFIThWDMinyucExBgipCe65AqnEUgIlYsPlgRuW5vpf/NuU3bygvsHcdpPi5eO47jDBgCeWz4Cgm0tNfwsBCgot0wVEQ7g6NkrUAehsWDQRJyVNjK9jM5igQEZkK0VfxBu+sC9HN/974n88+y8xrQWLO0vtLnvAaeWjj7l+/GAuOp+Qr/5/4nT/3iZciRi6iPi7spHMcZFDmGsnH3GQGEGiMKOWeegq3ndRYD3DnmrDIm+jTlOU97XqPx8ftkaVjAcBQe+Fzh3IBAkFiLxAVxX6AapzE5UOe19tmunddk6w3e5spxnBoXrx3HcVYBjw1fGcMsXhecelF5JXKTKVkfjYZ1HJ4pAhGI+PR6XoMQYwSJoFvFvNAySAomVFVUxzdSbLh+LhFZ1B4ACCTGfN4IaEZseMmoADw5/8z2hWzlL1e0gxsoKjmOMyyQAODmLTqmPpBN2y/nzPG6/Vvw5C2XWZshjQ336Z+zmpgO1JhxR6c5VzlbqWdTMhRF8kReqHVuoEXsaV4YrNVUIotFNDjZKH1kFq8BVNGKIH3JzXEcw8Vrx3GcAUPLRBA7yxN6nJPDRkEERELl07lGU1j1e9XwpZKC2fqSrvT1hOTTplRkYn2qBkkA1OWN+rOCueN143uC7YhyoRAR4akvoVf0sDDCjEoET8x38Wt3PYa/fujIaf29Svt1Vb3HhjuOM0hSu9/GFcmI9oGsxJ8BneVJ7VgK0uoNieIzBmd10cdixIbMYTTkKTbeBayFptZreq03BtCi1yEQ0Z3BkpJytDhPrOVF3ZortemKA23ppzet9AlMpG1nTmONwnGc5uPiteM4zqAh4Bs+cu9ab8VZQaDhdamreBe9EKHhlKruNf4817HhK309QYRyTHeFQcvWSorh7BVCNJGTzJFBPdvRExtOZ5fz+u33H8Z1776z72dHbPtHghYa/PinHsKr/vFeCIAve89dmKsEN73/c/jVOx894fumY5MW/jwK0HGcQZLuOU10zIhEL/5xTkkZenteD4UU5Zwz6PPdkE6lTxuCpj41ZHdOCKGe0wxDET8RNfI73OmHQLniUKBGDS0O15PP9qqBPvcItDAw9jivJS6Z+zuOc25TrPUGOI7jNB0iwr88eXytN+OsoGAeWsdrsagnj9NMzp2e12SLQit9fVqEJTAY3Rh1jWzAixsprjzbEmDuYUlTacm94nqLS0hOX7y+6X2fw0KM+OCN+1f8Nx87PIu/eegIfvzQttP6LAD49bsexYOzHUy3Crz53x7FTKzQFeCX7ngEP/OZh/FLV+yAiKDNhADGTBUhEJR/9AlUMeL2o3P47NFZXDI1AgD47XuewL0z8/jPl+3In5Gq6vsq2of0Hus4ztmP3nOocYuOSVjw4h/nVASoY4zYk06c1eNfn5rNT3dNuU8RAInS+OtI5zFWeLDG2wJ4oeu5gnaWMuc1LDZcYG0vdL496CQHIoJUsZ6nQotv2D5yFZYaHMc5C3DnteM4zoAhf+paMQHD63hNfYC853WzKUwkHdZxeKbIzusV7mewiW2ODY9YlZ7XAEAxWq/RmLclOcA1Zi+/ssd5TXhqQV8/V0V88vBx3Hl0bsl773vnZ/A3Dx8FAKwvGU8u1MtGc1XEkwtdHO1UOLzQxcefnMHHnpzBXBXxbf90H7b/+adABPzEpx/Cnr/6NB6ZO3FMeVcED8518XSnwhPzXXz6yCz+7ItH8P5HZzAWGDNd/du97/w0fvxTD6Igwo9/+mF88PEZtJkwUhBKErSo7vf90g98DhDCPTPzeMF778LPfOZh/P59h/uPnf1POs8eG+44ziDR23Ize0OL+P3TOTVFT6sTj951VouLp0YQwNA+ts24T5E95Dfx+6QXsgkWEaEaAvWaSDDQpGhnKEiitcbza9qZKdrQYvXV2Ab0Jw4Q6ruYFww6jmO489pxHGfgCABGFAGvkthzthJoeMXr5LzuDsOs0hkYJSeHfbPPc0j9pFZYTa3Oa7FoO40Nxyo5eLXHNZBqLmvntW4LmctPRJC81gTgtidn8CcPHMZbbn8UD8wuYGO7wHddsBnvffQo/uT6CwAAj8538ekjc3jptilsGCnxZE9KRgSw8U8/hSIQWkQYKxibWwGzlWAmCg4vVLj23XcgEHD/bBff8k/34Qf3b8ZLt033bf+7Hj6C//veJ/GO+59CII0B//cXb8FEEfCxw8fwltsfQRkYAuDB4x2kxNFOBL5wfAEby4D5KChJHdQCTQY40o1YVzL+8bEZbGwXmIsVnupE3PIP9+Cbzt+QjwPgseGO46wORJxWI7OjpxFohiWqePa0o3DWhiJn53vPa2f1WIgCZqCqqEE9r8mKhppN/pqUOBT3DEIzW384ixArNBTVq0OaNZqaHZg1vWuQF6CI9bWvfxRYxWwidWEHH4uOc87j4rXjOM6gsafCThS0/enrpIQh6fW0HKkadVi3zzkzqHiNoah8HyTpVnS6Pa/FirJXU9xnKxxRObm3ElzvrWnRpwvChx6bwTseOAIi4MlOxLf90xewvl2iEuDemQW86TMP4VgnYuId/wqCFqX8xKcexM9/9hFsGSnx2HwHG/7sX7FQCX71ql1g0mNFEAQiPDpfgUhweL5Cu9AeXRG6yPP+x2awY7SF77ztfnQqwZaRFi6abOFvHj6Kua75YKxH9y/e8Rg2twt0ouAYKkyUATPdCCYCM2EhCroimGoxFqqIdkG4ct043v/YDAi1630+Co50KqxvF3i6E8EQvPPBo/j7R46hDJSPTTrP1tLdcRxnICTTji5+U0P8f6bHMzfG0egMjuS8FnixmLN6zEfR52MasNi0ilg73saI8Scif1PKcKwzEMhaRTlNhqyVVJ/z2n4OSfeTlRe6P9NtgPSv/7EAFRFIhiNG33Gctcdjwx3HcQZMEhk6QzAZGXYKJnSHdMadFqOGYVLpDI7CdNKmn+fQs7i6EnL8NFTIrfriugcL5wROyv+duzH0bMe+0RICwa0fvjdbBgIzFqJgLkbMVoKj810QBHPdCjPdmCMJAeDpToUCwFOdiE4UfNe/3A8igEGI5u5eiMATCxXGS8YoM1qBdUuibtf//sJhEAgVBF84Po+/+OJTKj4H7Zd6xfQIOlF35fH5Lma7Ece6gjFrLEakUe7zUVAy8GMHtuKLr7gM9958Kb5q5zpcMFEinbUoEU93IlpMONqpwAAmygLMwNbRAre96OK8INbf89pxHGcwUE8yRtOEO4nupHVOTWGPBU2Kb3aGn/lKn2kbFbVrD/tN2Z0TYWElIAaqYVgHEUF063XjMakaqdV1sDWQ1KYrzb8HGSFv7bX7nq2YUy9uLwBzHEdx8dpxHGfg6ESy4ytep2TondeA97xuOCXpo9GwxtefKQLpQvzpXG5sC2JMvKrHh6GOtyTaBjtHRGT/AJetG8MbDm5FYMpxd1EiqiiY6VY41hVMBMb6doGSCYEBQCBEWKhidjCPF4zpgjFWMNqBLThD0LF/ZqoKW9oFRpizIzyazZDAdv8izFaCY90Km0dKtALn6PMP33QA8zHieFcj0loBGA262B2j5Orz9994If78+Rfg2y7YkI/Dd+/bhJ88tB0CgkhEJwJTLcZoEfB0N2Jdq0ABoMWM2Spi30QrL0ykvpseG+44ziDJCRMW99gozgERxfnSScWuNMRzGqd5zEdZnZjfVYYgjX9u1VoXdaAOw3JRowognBNCPQXNAkFhawNJ1k5i0SDrGMjamPUWbYTkCEcDnyMdx3lGuHjtOI4zYJLzreNPX6dkmHteB/v/73roKO6bWVjTbXEGR44NH9JxeKYIqSfpafwNQXIldDcKVisQNhBDKGbRgLOAYD+wSMHa7KQ9oUGEeVERedwE6ZHAKsCzPgJ3omCkCHi6U+FYN2KsCBgr9HcpMi8CAAmOV4LpMmBzu8Dl60Zww+ZxfMveDbj1vPXWhzqiEyPmK/1nNBA2lIzrNo0hikAgKJnw/RdtRsGEA5MtTBcF2sQgEL5i2yRA2qvwiulRvHjrJDa2+jv8XDAxgh+9eCvecPE2fN+Fm/CH1+7F4VsuU9d1wSaiA7OWe++x4Y7jrCYaG64pEk167E3fdk2Pr3W+dEpm/NjFWwEA3iHdWS3mqwh9mmxOz2sAIGIIrc58Y+0QkBXVDkPBi/e8PjfIz2vQAuuCGZdMj+bUyMCnl9L2jLbBbN99seFWHJ4ahjmO43jPa8dxnNXAXHvOyRlq53VPbPjxpjdEPocpbLL+vseexmQRTv7is5hgs8XTibRkc9MRBBVEs75W4XKtxWolTaXTtJaZECPw6t3rcfn6Mdz8mnSAlAAAIABJREFUwXvwhePz+X6yrlUAIiiIMFYQfuziXXj9vz4AkC723fnyS3DN399hC3/AVBlwz82XoM2Ejz4xg+e/5y48+NWXYftffhpTJePC8Rb+9Pn78vZ89ugc3v7AU+hEwe7xNh6d62K6DGAirGuV+JH9W3F44aH8+v961S68+9Gn8fxNE/hnnsHnZhZQEPD9+7fgXQ89jfjqq054LJ61fhTPWj+65Odb2gWu2TCGX3vWLrz30WP4xTse7TtWOTYcHhvuOM7gyD2vJQkoDVoBF0+ucE5NmwlvvnwHfv6zj6AaZN6q4/SwIABTaiuzxhtzBiEgpwc1ldQGCRiOc0fU/GPuGERanA7g2/duxEcfn8HtR2cBIp0zyoDHQo4Nr58VtY5DQMz+zOU4DgB3XjuO4wycVCzszutTE6Auhb3jLRztDJdfIcWGMwEzXV+MairqvCY8MtfB548312Gvfa3otGPDidTVUQlyZfagYVUM+n6W4sKJ1EqcHAIHJtv4my+/AJUALSaMBsaXbRjF3vEWRgLwG8/ahYun2ihAGAuMFjOeWKjwlst2YNdYC9Ml41eu3Im2Xe/7J9u5oGYiML7/wk19wjUA7JtoYyzoMXn78/ZiQYDpkhEYeGK+i5dum8JtLzqA2150IP/Np19yEL961S5samsd6bFKsGu0hfYzfDLfMlLg8EKFDa0Cr9q1Dh+5ab8eJz1YefKvi4DP7DMcx3FORYqAbF5sOFk7irXeDufsQRqf4uMMD/NVBAv1PfM1A2l80SUTq1g3JEX86rxuUOGZsyyLndeAuq3J2nNpSNlgi57J1iN6x71uA3lsuOM4GXdeO47jnCEu+9vb8eRCxC07JvEbV++uf2H9UF28PjUFa//Zzz49h60j5VpvTh8F6QM+g9153WBKZkgUlIFx8WQbxxtaqBCItOf1aZjLyXzaRIQqYtWafwYmyKJaliRa63b1u+EunGjj1p3T+NnLtmP/5Miy73nsVVf0/fez14/i2y/YuOR161sFXr1rHR6a6+DGLRN4bL675DUlE459zRX42g/dg0fnOxhlwnfs3Yj/cGj7KfftzxcJ4cdedeUp/2Y5/rlHGO8lFRjUket0DiwDOo6zVmh7ieb1zEzff83ZI2fgDIkQ5ZwbzEdBsP5bTVtyaFIM+nJYSrK1QVp7mvb97SxP6nlNVM8MC6Y8FrXF2KB7zguA2HfPSnXc1JMc5jjOuY2L147jOGeIL852wMxLquxTFJTHhp+aQISZKmJdOXxfT+lhntmd100mxYaDCL93zR4cmlpe/DzbCQSAT6+aWnvpac/rKsd2D/6+FszJ1/dZ1nsbtj2LF+r+8Lq9Z+zz03u94/oLTvq6t1+nv58uAx5ZRuReC9JhSwt/fJp9zh3HcU4LEVsMbZ5jRtA8UcgZHARC5QPGWSVS6xtIw3peY9VqZdcMTXsnEA9HwUuvE9dpLr3XVjrdLGrWADRtUF84OBc+WeXGss5rL6JwHMfw2HDHcZwzwLY//zQ6EYCoqNML2QOYO69PTSDgWDdiuhy+r6fCHq4JhG4UzLj7upGUVqQgDZ8shRS3fVqx4eY+E6C7itnTgQgisa/+us95TcPlhvu2vRtxcGppX+q1IC1MpN7m5OKL4zgDhJk1NrxhAgqsYKtJe+QMlq/bvd5jw51VYz6KFqZC8jNfE1icrtREKD+sy1AUvBANhwPcGSxk/6PFhnrGg/23pg0Cy3TuOrPbsEziwB8/73wUlK79wX224zhnD8OnDjiO45yFdCBYEIFA0F3cqtmexly8PjWBCDPdiOnyNLKMV4lg6wACwXjBuH+muf2Qz2W057UADVr4WY5Auk5yOgtCuec1AVHViVUR+XPld+85EcH/89zzsbldgjBcldk/c+k2/Lt9m9Z6MwCkKMI68k2F/uE5Vo7jNIvasRUbJqCocD1M3zXOcHPLjimsbw9fkpTTTBaiaGFqw4oUiQnSnK+SZSHofgI0FKLxuVAw4MDm8f1O+yLUEhFbP+qBzhttyWVx0QYBmK8Er/zHuwf32Y7jnDW4eO04jnMGGA+MGAXdKEtjw5k8NnyFBNJI7nWt4VvsKXJkEuHnLtuOV+9ev6bb4wyGwsqQmy7wpSju09nL1JINUOc1rZIwwdZDtW9biHRxTgTwnlgnJPmtoy0KMAjS9FVAx3HWkHoxtFGL3/YM6N81zkphjzx1VpH5GO3ZvmHjLi6dAzSNOk1KhiI2HDLoPsfOMKClLoLesmZGncoWKEBksMUwqQXZ4nGffv7Egj91OY7j4rXjOM4Z41vP34DRwEtiw20Vz53XK6Dg5Lwevq+nglPMsuC6jeO4cKK91pvkDICSeaC9nYaFkCLqTmNfLVEdBGiRziotbATipT2voQsrzNQ8keQMoodNIHaeecgi1h3HaRZshVHN63mt9qDYrJ1yBgg37hpwhpn5ShBMeWqS3HMutGvonYnFISgwJaJGJac4y5OuLUoPbbDYcNRzRtBgp/sEQOLSwsA0+nx+7zgO4OK14zjOGWOsYAiw1HltT18uXp+aQITjVcS6cjid13KaYp9z9nHuxIZbBOpp3Jc0PUxjwysxp8AqwLAzQvVja9+EG/BFlhNA2YWjywIeBeg4zkARQRRN5mhSz2sigkhsfHytc+bghl0DznAzHyNYADSsoJPo9OYqZyd1a59hcF4T4Peuc4WUYGbXWEFp1o3c83qQaXREmlK5JDbcRHQfh47jAMDwqQOO4zhnKSpeC7omErzzwaO4e2YhSyseG35qAoDjVcTO0XKtN2UJhTXeXY0ev87aoQ9G50hsOE5vQsrJ/RzTfW51VvELXv5zKpHsBG/SQt2ZxFLws7jP5EK/4ziDg5mRyooapTeIgIibtU/OQHHntbOazFeCgjWpqEnjToXUZpOKgyUOh2tei7XWeiuc1YCI+tINauk6rYYMODacWKPJF//c/icOwwXhOM6a4+K14zjOGWI0MERq5/Unjszil+54BEngcef1qQlEmK0E02VY601Zgm4RNd2Qe86TnNdN7wscUgzYaewmkwoSWiGdQggGf5xCzi3LHwqi3JGheSLJGUTrDWoXDlPzCzMcx1lDRCwpo1lFRWTpO03aJ2eweM9rZzVZEIsNR8Puvdx8IZXt+4WYlzhQ14Lmtf1wTgRBE9XS6Q492bxa6D7geaOZfpb0vDbndcOXYxzHWSEeG+44jnOGGA26SJHE6xYTIjw2/HQIBMxWEetawydeF0wQxMZPoM91SuZzwl0frC/p6eyqTmEJRLSqPa8ZGtfah6Dv/tr8M/bMSMcnLWS6S91xnEGihUXS2MVvT65wVoo7r53VZL4SFKZCNcmsSNL81LM0txqWc+ex4ecO2fVv/10w5bZgnOfYg3zu0Ur65Xtei6+7OY4DwMVrx3GcM4bGhlOuHCwZqGI0VYVcvF4BBRNmqziUzuvCesc2fQJ9rlOYm7jp7tTkvD6dvWTrdw0RVJBVa/8e7Jz0fl4SRsj+fRicCsOIHjrx2HDHcVYFzS5pYq9CAahp++QMEu957awm8zEiWEJYk4oUNdK42c+tqegLGI6e1/CUkXMGspZgafxpwXj/vw9yJJBd24vn8brmsFTUdhzn3MTFa8dxnDPEGHOf87q0/jEp9sZ7Xp+aQIS5YRWvWXsCrZpi56wJJVMuOGkyweKjT+e2lCqw1Xl9msr3l0CO7F90TqLUy1keK7Y8BALiYue1LwU4jjMYUjuJprVzIGgqiz/KOytFn7L84cRZHbTnNax1Q3PGHZE0/rk1uV+B4RCvyVsenFMQuI4NNzEboDzvjwN8mEvLaktiw6Hb4T2vHcfB/8/em4fZcVV3u+/aVeecntSt1mi3B8mSLdlGyDbEmDnEzDEQMJiAQ0JCIF8S8oBDCJCB57sXchO45Avh5iaQLyRAnjDlAoYEm8kMNoM8YGxJtmRZsyW11C2p5+4zVdW+f+w6Pain091n6ur1+rHs1qk+tWvatfde6/dbaPBaURSlYjR7buAXxKOstGecMjAeBKryen48gVxo6fAb7/Xkl5SqOplLPpL86+zJVJuwcjBxQGIsDHnv7lOI1OY5dTW3pk9qbakGN7rIMhvOhXCy8nph11xRFGUhTFi8Js2/xKoKSFkQSap5/cafHWHnd56odzOUOchHUVwSKDn3HYCISXzSkDO1cm+XRlgu0sSblcO4PXf8swtem/j/Y9fBajbAur3PNLZyc/1q7lxRlOVC40UHFEVRliktvgtWh/HPKRE3AXHJixq8LoOS8np12q93U6bhG3GrsjqZWxkkXGHvxZPRhYQXJF68F1taXKlNn+aZkup66v7CKBxPDtLudWbGlenxuTMiWF0JUBSlSoiR0rA3cf2yVStVZQEkqea1F7uLKY1LIYpLH9mZA0HLlmglmO/b8YTghlBea1LwikHi+XXpck9OGB9XXlfxXig5VIYXdFpG4hIISXmJKoqyJDR4rSiKUiGaPZliG572DFbi4IFFbcPLwDdCPmpM2/CSdXHStETKdB592dX1bkLV8WJ1+UJrXmNdAHu8O6tBHNQz05XwTjUumHixR5/KmXEOvjK+gO4SDxK1rKkoSgMhcdkNgUQFUEpOJWphqZRLkmpeeyLYhCd1LndKymuRZCUaiEleGYoLeeeV63hWZzPQGO9NMTqvWinIBU5s3qR+Pq5CMBHFrsb+45J8F973pfXTpLxDFUVZGhq8VhRFqRAtvkeETNS8FgjDiQGXKq/nxwMKVuhINd7ryReJA2i6eJN0SoHdJOOJgF2YFZiryVbKhpaaPQlevPMpe4wVcKU6cUlaqKskJWV6adHZlXTXPkxRlOoQa3iS1y9biyBqYamUTZKU14bqqu+UpZMPrUuct1Fi7juYmHskOYglIuNK07ABLt6Ew5aSdNw08ULbcIeJ547VrnltIztjzWsdcymKUqLxogOKoijLlBbPEEbheM3rlMQ1WZ30TYPXZeCJkA/CxrUNJ/lBTWVq1nFS8QSs2AXVkTMiSElRF0XUzDYcGa+hWqKkvI7XenSRZRYk/jOK30ta81pJIifGCtz0/Sfr3QyFuG+OE4uS1i9b1DZcKZ8k1bw20hiKUGV2nPKaBNa8dvOORrDTriYmdmtuhOdMJDmuEcp8THVU80qVuphYD6nmnSDiyvJdOF6Mw+aJr3evKEp5aPBaURSlQjR7QiSGIB59pT1DZKNxtaDahs9PaCNEhEwV7YkWi1+DAbzSGHiS/OvsxRNVtyBU3u9MPJYuQ1tMbYaRE1ngk/sFSxhNaIiTfr0WiyBTVDguoNQIS2OKUjlSnuGhvrF6N0OhpLxOniOGKwOZrGNSqkvilNdJOZiEUogg5ex1GiIAWikmHJbq3ZLqYmLL90YI0sel05UVgMQlwabYhlsn1jBxILuq4574q6cpr0vJHHojKoqCBq8VRVEqRrMRwkk1r4HxeqygtuHl0FewrG5Ay3CIldcrQJGrgF+joGw9cdnUTrlcbtckdsLazoKb7NZgUumZ6SHqkpVYye5MFQIzUwq4lGzX1DZcSSIe6orSKEis/EtazWtgRnWQosyGSZDlqbcCgofLnXwU4cU3XJICPiUhaCMEdatJqeRGQ9iGC0Q6V1gRjDt0xYnNpfWB0mfOcaaK+48dKmeqeT1ZEa4oysom+auziqIoNUJE8JApCmuZlMmowev56UwbRoLGXO70cAN4q0GyxONqXte7FdXFqcvtghaETFw/+YLq01XHiye2MikZSESIopWjyFgs8ambspC5EhYBlZVFykwstin1xSm2SrbhCepnrFtE1eQfpVykyov+tcQzyQnEJ5V8aPGNjcd89W5N5Vgp5YGcbXjUGEFjVbyuGCROZJ9c89pOcugSW/1yU5YZal4LiBhNTlcUBdDgtaIoSkUxYqcEqT0nBwLUNrwcvAaYr82GbwS3ctPAjVQqgldaKUkwk23Dy50YlmpeQ8lmrIoNnIQngiViio4vVluXzBB0kWVuJtt9GpGyreIVZTlQKuqh93VjILFeJ0nBhnF1kJZdUMokUTWv0XFWIxNaNyR3zlFJ63tdcC3pSZfGResa4jhL5T+UlUDcecQjaU8udBq0VXXRKeXFX+g44ILqqrxWFMWhwWtFUZQK4okQTFG4lQaAlqKud82L1/C23LWxSVbqi8s6TvZ1nlBeS9kWdab0fNoJdV0t8Evy4UmyHxHByoQCXNVwc2DBTupbVXm9PNn2rf28d3d3vZvRuFhLMdKBViPg1j6rr9apNRY7pS9VlLlIVM1rtcxvaPJRRMYTTDxWTpRK3rq5StLf7mJpmHrlUu06x0rD4JJDJsZrE6W6JqjuveAc3WayDYdI3zuKogAavFYURakovpEpymvDhPWO2obPj9fgdaUnkhGUJOONV1hLLqVA9ELUDC47Ooot/KTkI151ZkpquaQ5RRTZccWlLrLMjpiptuoavF6e5MKQQIOzsyIiBHpbNwbWxu4YScIdUxgm66iU6mGQxFieemrf2tDkw4i0yHh5nyQtObhDaoxa0NXEGECmK1BrzW89eJxjYwVN1FohXDiP9qZ+UPVEhtinZ7ptOIDVYn2Kojj8ejdAURQlSXgIwRR7VkAM2EBtw8vA2EZXvFq1L1oBlFTJSadkAl7uUryJ1XQOlyldCzxxNogiZrx/2P+KawD4va1ra9KG5c5kq1tnwq6LUssNI6gt9jxokmBjUFLyJCmpSHBqxkQpGpWqkijlNYLmTjUu+cg65bUASet7Y9vwpN9+jaK8/sapQa5alZlSbkhJLq7LmLDn9qaVBZOqvsfc/s20fRijtuGKokygymtFUZQK4hsIJy1slbIGEeErJ/s5PFKoV9OWBX6NlJxLYzm0UVkK7j5M/nUulfYuNyA2McG1NZ1QevEEViuwLR47KeJixKjyehkiNEYtxEYm0PPTEMTxk8QE7kpYm7xjUqpHkmpee5q40dAUIkvGmEQqr0u24Ukf/zhHrPofp+CUtom6h5Q5sFMUzt4FSyBiqzv7FhFsZGdRXut7R1EUhwavFUVRKogHU5TXnjHjA76+QsS5fFCXdi0XvAYfoF7SknY1D+vdEKWqeHGANvFYN2lciPIanA11abJbCwxVnjknHcsUu09pAFtCZeEYEVVez4MqrxsIm6yamXFcQUeAStkkSnmdoGNJIhPKawM2OXb1ECuvSf79V8qbrvf4XLDYkplzgt7hysxIXCqtNLZxJQ+n1pqqphuAxDudqea1iKgDgKIogAavFUVRKorvyZRJh7GxtFEAazV4PQ8z1bZtJE686mlIle2TlPrjlWRjCWdceV3mDV2qk22jaJJ9ePVp9H6h8bEX1Ly2GgRdhrjrphduNlzNaz0/jUDp3VJv+9PK4t5DOv5TyiVJfjGmynVPlaWRDyMyxiDxNUpSP+UqsNVfkVxt3FKRrft704ghshZjyk9uVpYvEkucS0+X78XF1ydRi77/wrWIceV11fesKMpyQIPXiqIoFeSBm7fTnvbHf5ZSXdhY4Xi+oMHruXDZnvVuxXxoACHprBTl9ULryMWhaxA32bUlKVqV0cHq0hCRKZN/tQ1fnqjyeh6sVeV1gyBIXMMwSdfDusBCoo5JqSaG5CRweJIsNW/SyEeWtJlQ7yapn5JYAJCUZ2k2SgnC9R6fS3z/iK2/ClypPm68NqnmtfvLSZSU+NXbv42mlzAbd7tJUF+mKMri0fVARVGUCpIyU20rjYHJI8CvnhzgTE4D2LPhe6bhSw2vhLpbKx1vpViDWrtw5bUFEa+mso5x5bW1OoldJFNtw1V5vRwxIoQroV9aNEKgp6dBsCSx7irqvKMsgGTVvDZYLT7asEzUvE6eQ4QLriXrmGaiNMcqHWfqK4/SXwhr3w7AIs5toeZ7V2rN+BQ7/tkJSaJJn1f3PVZycptuGy6Jci9RFGVpaPBaURSlgqSMTA1eI5MGgJbv9gwzUKz9RGS50Og1r4EVMYFe6Xg1UhTXG5GF17wWkXgRv4bBa1Oa3Cb/mlSLyYvOQv2VHcrCEWsJIl1KnA0R1Da8QRivVZig6yFxTcgVkdimVIQk1Yk2WEJ9/zQsEzWv3c9JUslLHMFK+rjVCFgjnMoWuOy/HyOILCfGitO2Gwkijo0WqtYOV1/c6lxhpRBf49Kl9o1hSpio6o4zFivTXQ1LFdyqqfpWFGX5oMFrRVGUCpISoThp8GVkYjAoCL4RDV7PgVfvBpSJTuZWBklXp4rz4yr7fjYi4xbUzmKsNguZBmLFd012l0CEaNK1Utvw5YkRIdJFnDlR2/DGoJTklKxQV6y8rnczlGVDkupEG0qlYpRGpFTz2sSlyhIV8IkDqUl/vQuQCyMeGcjRnQsQgZPZ6UHqfz16juu/e6Bq7TDGOYw454iq7UZpEErjtdKl9kqT7rgPkSqPe1xyyvR7rVQuQG9BRVFAg9eKoigVJWWE0SDipfceBJzy2uHShsXCgNa9nhWnVK93K+ZmJUyglVidmniViV2Qk4DENT9dIFlAajOM9ERUdL0koikLD4Lahi9HRCDQl8/sWFVeNwql7jpJV0PEYG2k1slK2ZgEJTt4XrKcFJLGFOV1gpImwM03RJJfssuIYGyEteC5DARe+5MjfPP0EAAvvfcQG/9rL3+zv5dsWD0hhFiw4pJvkn7Oldie28gk2/CJwDXEjoM1mHvMrLx266dJ6s8URVkcGrxWFEWpICnjgq/FeLVCxGUM2rhWnhW3zeHRfD2b2bAsB9tw0BpQK4Uo4SoTif8pW3ldqkAVW/jVaio5XvM6UaGQ2iGYKUlBagW4PJEVYJu5JMSq8rphSKBSTpz9R5LseJXqkizb8GQFRJNGPoxIi0yrm5wESjOApM+9BQtG8EQwsf+7GOHQcJ4Dwzk60x6jQcRIEBBYy2gw/Yz05qbbjC+EHd95gmIUTSivNXM48UicrVDSOPtyoQ+iVNXJQSzgQV8h4Jpv72c4dqg0ceK6IAQJ6s8URVkcGrxWFEWpICWFYD6eNRqmhluCyHLnc7fy7qs21KV9jY7vNf5rSQM/KwNZARnnLiZcvm24xH/YuOa1jWIldpWZSGrRRZTFMTVr3awABUsSMUZUMT8HusDVOBgxIDZRAZTSYD5Rx6RUFZOguu+eGL33G5gf9I7QnS0i1mKxiUqyicXkhAm/AQ1gIxsv0Ns4Udjy53u7ecEPDrJ3MEcQWbKhxcfy5vuPTvn9zXft40P7enjP7lPctst99ov+LL/94FNlt+HwSJ6QSTWvE37OlQl1c+lV5QlsakmNz++lyk4OIgKRW3M5NJIfn+fESxTxulvVdq8oyjKh8aMEiqIoywyxlnzosmFNSTEYz7yCKGJDxsNoDGZGDJZGr24jWgNqZZAw5cJMlJTX5aoZTKy4nvQFNcGb0mFq57lgZGr9Q10IWJ6oheP8FBNf6mGZYG38bknO/SribDUbfYyqNA5Oy5aMMYvRO7+hee7aVrauyowrdpM0f3FVipJjwT8bJrZH94xQGsrYUr1vLH2FgHVpnyZjyHge3+wepv1re7ize5AvnxzAYunJFRguRvy8L8t/nhjgBT94kn8/dp7BWM36o94R/s/Hz/Dpo+cBeLTfbVeMLB1f34OHJYjc/pJU9kCZg3heUeoybuhs5v6XbJ+8QVX7fsHG66WCtZMT6ieC51oSSFEUv94NUBRFSRrGmAuU1/GAy1qqV6EoGXjLwqa5fKWqsnxZCcprV/Nays6sL1l4jf92jc6PF9sgckEdLqVMrBDZiSUoVV4vTzTpYD6sKq8bBJHkBVBKyqRkHZNSTUyCEjgMmri7HDCUkqwTdrFs8ufegqstbBBesGEVP+gZwoohiCLyoSEfRVy7qokIy2gY4RsYDSNu++lRWn1Dq2/oyQWsS6c4myuyPuNTiCyegef+4CA/+OWtvOWB4+SjkJs6W7mvd4Tvnx2mLxfwqtfuZLgQ0uobAmvj2Vbyz7niEtkvdOjyJyeNR9VVXnekPHpfs4OOr+3BysQ8pyQAEoRAXz6KsuLR4LWiKEqFMUChFLw2Ek8AXNDHWMazX5XpeFIyB2tcFqJUVZYvIsm/zkJcG6/s7W1c69oFve14QLm6lGyCRAzoQsoimJo17xak6tYYZZEY0eD13AjFMOm99vLAjeQSGEChVPsXdVBS5iVJNa89j8QE4pOMq3mdrPmLkMRkqOkYEVrSPo/8ylVsyPhcefc+urNFQiAMI5o9j+evbyPC8h/H+vHGS3NYfCAfwsMDOY6PFSlEllf/5DCtvsdYELB/KMvl33ycDRmfILL8+NwIbb5Hbz7AWmj72m7EzfIo2kk1rxN+zhWXrO+S0ScGNZOrXtfC9aBUdtHaCeFAaY1CUOW1oihqG64oilJxJgevS/VarHW1YX0Dffmgns1raLxlsBi4MhS5ChaChEeKROJaVmUmjEwor2Ml9AVK7GrhxZaBtQiUJ5GScL2klA8i2DOQrW+jlAXj1AdJWpKuLM5asN6tUMYRm7gAirUuKVWDeEo5JKnmtSqvlwdGwBIl6loJMBZabr//eL2bUlUuavL5g63ruLwlTZNnOPnqHRiBJs/Q5huaPeHEWIErWjK8cH0rE2Z1zm58JAgJIsvJ0QIdaY9iZMl4bp4mCCaesuUsFCPoL4asSglpA82+wVpLYC1hXH/Yuf0k6EZSZqSUHDL5Sk9xQrTVn32X9veMzpYpa6girnWqvFYURZXXiqIoFcYYyEdOXT0+2Y/HgKdf/XQ6097sv7zC8eJ6Nw2NpWybZWX54oK6Cb/OcaZ12bbhpaA1xBnStQlNmFIHKhrAXixiLTZeHMhFlg/sPcXvbllb51YpC8GIlJ1oslIp6ru5IUis8lpAIjtlXK8os5Ek5bXgEjdCuzwSjVcqBiBBSRPAeJA2rNGco1785bUXTfu74LYbJv4/suN2zhc3+9zTO4SN102KkRNI5MKI9RkfK0KTMUR2Qp0vy6TJAAAgAElEQVSNmPHAYNFGZIyh3ffIhQF+nIxciCybW9IMhRGelO/MpSxn7LRSA5P7eJHq1ryGCSebF29cxX+eGIj3O7F/VV4riqLKa0VRlArjIRQjN+LySmmuVmf65eAZGn5BUHQytzKwybfoFRF+f8t63rp5TVnb/8+nXcQL1rc5J4nI1szB2zPj0uHa7DCBGDOhmhIsVqcAyw7BqvJ6HnSBqzFweUY2MYG7EtZajBhVoyllkaSa1wBitY9tdIy4sZ1t9Mn0QokVwSuZyXWIr2rL8MMXbeP+F2/jP561iXxk+eunddHue1zf2cKvXtyOJ4Kx8NkbN0NcN3gstKxOeTQZQ5tnaPF93r55HQA/e/F27nvRNt579UZafeNK1STtJa5Mw7lEypQCU76ZNEe0rhZ7NfFEePDF22n3zbjKelwPru8dRVFQ5bWiKErF8YxQHK/XYrHWqQV13DU/U2yKGpgVPn9eEYiQKOXCTIjAptYUz+hsLmv7m9a2siHTByKIMdgwrHILHV6p/oKT8ykLJT51pfv5wgx7ZXlgkMQn1CwVtQ1vDCSuSZGky1EqvyCSvKC8Uh2SpLwGdzzFKCJj1EGsUSlV2ElS0sT2tgw9uQKRjv/HuWlt6/j/37imhbc8eJwb17XQmfa5tMXn0zdeDje6z0eCCPugJUIYDUK++rwr+Mu9p+jJhbz5stVsb8/wv4+e49lrWwDozRcnal7X4+CUmlJaeps8LZyqvK7+WM4TuHFtCw/0j1JaWSg1wZXrq3IDFEVpeDR4rSiKUmE8IBunB7t6ZxFxwSFlHq5tbyKcZJHViDytvUkzkVcISZ8sbW/LLHhhwout5S5tSnF0LOLGzhZnZVdFH0mX/y2qvF4CTgHmkAgiT8/lcsMYobjSpUdzIAhFVaY3BtY65XW921FJ4i7ToAmMSnkkqeY1uHtfE4QaGxdmSlaCzVs2r2HvUJZ8kg6qwly/uoUjI3k60z59hamJxW2+IXqjW1tp/epujo8W+OGLttHiu9nVcBCSe8P149unjXOMcAmTes6TjqsqPdUavDSjj2wpca82i5gdKW/8nhu3DUdUea0oigavFUVRKo0nTnn97kdPugU8ETfj13FXInjopdvr3QSlBjR5JvEL1Iu5l19x8Spe1dVOkzG85N6DPPiSbVVo2VRKAXNlcYgIgp2kvLaEWspi2SHW6kLiXIgGVhoFEUmkw4O14HnJOy6lOgiWQgSfPnKOt29ZV+/mLBkjMm7pqjQmpWTPpPVRYq0mjs/BL17m5nNv2TR3GajP3XQ521c1jQeuAVb5U50UMp4hsuCJjjlXBhZmqGv9rRduJbCRc3Ko0X3Q7nsX2Ia78WSQ9AUZRVHmRYPXiqIoFcYzgLVsb8vwrLXNfOTAOWyUJAMvRUk+g6/bWe8mNCS3XNwBwAN9ozXr00rlBERUfb04bKwAcz8ZY1TBuwwxRgiDereigbG2rsrra779BM9a08TnnrW5bm1oFCardpKCxGUrVI2mlItByIchhYTcLsaIJgg1OEacijJJfS+4eYCOWpfOGy7tnHebtHHvuIwxibuPlOlI7Gx24aV+xUXt7nOpnf6mI+2Nu96NB6+xqrxWFAUz/yaKoijKQvBEMAgbm9Ncs6qZaFKQQCcBiqIkgRs7WwlqZPH/x9s3sKU1XZN9JRWZVHtTsKjwevkhJL+UwVIQqW9gxRBR1NX1GHchkqb+s9Y9hzqWV8rBCIgxFBLScYtFSzM0OEYEayVRNa8hrh9f70asEDLGJbuq28/KwOWH2zlzw2unvDYE8TtGSuFrizp+KIqiwWtFUZRKYxA8IxQjS9oIH73u4vgTS1EnAYqiJABT6+Cn9p1LwtW8dufQiCHShYBlhxF0IXFOLMU63teeSF3330gIccJMvRtSSawLyWvNa6VcXCDRUkhIv23EqvK6wTECSDKV16EmTtSEdBy8NkbV7isCO+U/0xDA1ugd1pHyKFVsN2bCdU2V14qiaPBaURSlwhhx/xYjy69dsprXXbIaKNVs0cGXoijKQql5sDxhyCQbSQGs6AldbggyrkhQZqaeC1y+MbrAFuNKPCSr7qqMl69Q5bVSHsY5OJNPSJkOI9rHNTpurJysvhdi2/BkHVLDkvEMEdaVyNCTnnjikc2sOeIiBktt5owdqRlsw0VdpxRF0eC1oihKxfFEpihwfCNsXZVma1uTqnIURVEWgdF614vHusBLaTHTBbL1XC43nG2mJh3MiqXOymso6mPlsO6PpA15rbVx7dWEHZhSFQwCkqDgNWrf2ugYElrz2oiOf2pEWlzQ2mid8RXBx67r4rrVzUyveu344Yu20pnxatKW9pQ3/o6ZCF6r8lpRFPDr3QBFUZSkUVJelwZaXU1pDr7y2jq3SlEUZfliVCm8aERkitWtEYMdN2ZTlguCBg7mot4LXC5psb5LvefyAVvv3s/g655e13aUuuskJcmIuJi8CKpGU8rCKa+TYxsuUt/SDMr8uPK1yUuwMaC24TUi47mgtaA1r1cCGWPwjczaYzR7pma542kjiEAunJSqYq3OfRRFUeW1oihKpfFEEKv1rRVFUSqFTPpTWThTlddRooJKS+FLT/XzzO8dqHczykJrXs9P/Wte1233gFtkHAqCmtUnnA0XQElYeYL4lBrUvlZZACLJUl7rO6ihMXHnWyub31rhG1QFXCPSca1ro1btK4ZvvmArD7x424yfGaltGQJfhLHQsuvF23hGZ4tL3NX3jqKseDR4rSiKUmEM4Bmj2emKoigVwi3D6dLV4rBTal4bM3tts5VGxgj7hnL1bkZZiBWt+zYX1hLU8fx4Qt2V1wBYyNV5/FmqD52sJBlnqilYfRMpC8BSSMhjYETq2scq8+Os6pNX89qVTUnWMTUqGWOIrHveNWFSMUJNk2E8gZHAjbIkTsbR4LWiKBq8VhRFqTCeEcSiE3xFUZQK4dQkyVKS1BLDRO06g8EmsCbiYmjyzLJZEFXl9TzUOXjslNf1vz6CkK230tNaxCRLtVUKyNdahaQsbwRDPiFZR0aMBhEaHGMgiTWvDa5ug66tVJ+0cTWvNVEr+ZzOBjw2mJ1zm1qPeTwRRoIAALFxSaCkdWgNyqZvPs4dj56sdzMUZUa05rWiKEqFMbhF5kZYxFQURUkCRgRx0bt6N2VZIjJJBWkjjAgFa2lKkq3vIsgYIVom72q1zpsbob6qQI9GGfdZcnXuJ12gN2kBFFcT0ojogr5SPmLJJ+RBMGjN60bHANbaZZOUVy4GwcS1cNt81V9VE1fz2jrltT7viSa0lpdf3D7nNmJrO5YbvnXnxL7Fje1DTV6vEZZGMJBSlJnQN7+iKEqFMbjBVkPYRyqKoiQASdhCXC0REQTGFx/cz8mpw7kUMkaI7PJYFDFGg2bzUd+a1xDUbe8TiNRfee1i15KsAIq12JKVqi7oK+USWfIJmQ+KoAq4BseIAMlyvQB37xkRcjpurTp+fA+J1WJNSac3H7CxKTXnNi5hrz4diokTrPW9UxvEZQsoSkOiwWtFUZQK4xnBNIh9pKIoShIwGF1FWQLGTNi+lYLZBX1HkTHLJy1CrC7gzE196+J5RhomabHuwWsLSVNel2zD1UpVWRAi5INk3DEGtW1udEwceUhS3wsuiGVAg9c1wgiI0ZrXSacnV2RDZm4zXjPZuavGCLFtuN6HtcGybNzIlJVHzWzDjx07xhe/+EXOnDlDZ2cnt956Kzt3OkuIxx57jC9/+csMDg6yZcsW3va2t9HePrd9RTl89KMfpVAo8MEPfnDJ36UoilIuRuLs9Ho3RFEUJSEYwUVEdE61cCxTFBSCRUSD1+ACjoizQk2Zxk43N7qQOA91tg0XodgI6+rWkmuEZ7uOC57VwWKx8UJuvduiLBdEhHxCngOjQYSGx42Vk9b3uiCWESHfCO/YFYABbGSXjTPRcuJtD53g4HCOH998VV3bcT4f0OYb0vPMfYwItk5yXAGwVhN3a4QzXdBnXmlMaqK8ttbyqU99iptvvpm///u/59Zbb+XTn/40xWKRsbEx/u3f/o3bb7+dj3/841x66aV86UtfWvI+u7u7aWpqYu3atRw5cqQCR6EoilIeBri8Jc3nfmlTvZuiKIqSCNxcSidUi0UmBVycaThqGx5jGsBmuRy05PvcCPUt1+KbxgjsiBGydVZ6iggiybOuxbr7LFF26ErVqWai2HfPDJP5yu6qff9knKtY478rVzIlL5mkXSUjgoglp/dfTfCMe4drwmTlaU8Zjo0W6t2MsizDIXabqZfyuiQI0vuwZiQt8UlJDjVRXgdBwGtf+1puuukmAHbu3EkURQwODnLs2DE2b97MNddcA8Att9zCn/7pnxIEAb4/0byTJ0/ymc98hh07dnDw4EHGxsa4/fbbueeee+jt7WX79u28+c1vHt9+165d3HjjjaRSKXbt2sWWLVtqcaiKoijsevG2ejdBURQlUTS4KLbBsXHN65JtuAsuqfLaIRayoaV9/jWcuiJYXUickzorr2mQcjENoLx2apnkBXlFBCNGa14rZSNAoYpZR61+7QJMahve+EzUvF76hTqdLTJYDLm6vWnpDVsigrNEV9vw2uAUbloioxp0pLzxhNlsZLny7n08dcu1eDVWvPbmg3ktw8E9d/Ua8qjyuraICFbnmUqDUhPldSqV4tnPfjbgAtn33XcfGzZsYM2aNfT29rJhw4bxbZubm2lubqavr29qQ42hu7ubnTt38r73vY9LL72UL37xi7zjHe/gL/7iL9i1axeDg4MARFHEL37xC57xjGdw3XXX8dhjjxEEauCrKIqiKIqyHHFTep1QLQYXcJFJtuEg1lLQCSrgEiOWg/JaEKxNoJq1Yti6Bo8NNEbwmka4ny3WRnWzmqwWIiXltaKUiYVCFbuFVb5XsyQRETSI0OAYKY2Wl973DhQjnvadJ5b8PZXAiAui5fX+qwmlIMFySNQaCiJeft+hejejbNpTZnyMZoDTYwUOjeRr3o6eXLEs5bWbP9av5jWqvK4dNmkpp0qSqEnwusSePXv4oz/6I+6++25+67d+C2MMhUKBVGpqp5lKpcjnp3fgLS0tbN26FYD169dz1VVXkUqlSKVSdHR0MDQ0BMC+ffvYvHkzTU1NpNNptm3bxp49e6p/gIqiKIqiKErFMcSF/JRF0Z0t8LEnetwPVpXXk1kutuEAntTXGruxsXVd4PJNfZXX3z49xJqv70GE+tuGUzn1X0NhQcRqAolSPmLJh2HVvj4V2/uO1eCZV+V142NwJRsr0fd2pAyRtQ0RzCiVYq238vpvD/TwvZ7hurahFrgkiNndflq++ihfeKpvxs9qxacPn+Ov9p2hyQjf6xnhdLZY1/aUS7tvpsw5RGDHdw5wb29t76uylddSmWSYxWCMQRCq9wZVJiN1rG+uKPNR0+D1zp07+ad/+ife+ta38o//+I+cP3+eTCZDLpebsl02myWTyUz7/cl/Z4whnU6P/ywiRPFizs9+9jP27t3LHXfcwR133MEjjzzCrl27qnRUiqIoiqIoSjUxIpC0QEgNmRzQKtmGa81rx3ILXquX1MxInW27PVNf2/IWzwUasNTfNjxe+0pakFfElRlYHr2F0ggI1a15DW5Bb7BY/eX9mWped+eK7B/KzfIbSq0xAtjK2T0bgf5C/UNHJnYQylXRgr8cPvjYaQYKyR+FeSZOQJvl85Qx9ORqdx42f/Nx7uoemvJ3IsJHxpNyLSeWELz+1OFzdP3XYxytQS1qT4SMJ5zNu/MnCNiIJ0cKbL3rcX7voaf4xcBY1dvRmwvYkPHm3c5I/RIRxVqnvNZBV01Q23ClkalJzevh4WH27dvHTTfdhDGGa665hosuuogjR46wceNG9u3bN77t4OAgQRCwZs2aRe1rbGyMJ598kr/7u78br5kdRRHvf//7GR4eZtWqVePbdnd3z/t95WyjKIoShiE9PT14ZQwCFUVZnvT09NS7CSuWYiE/rv7QsdnCcBNR4Ye9g+zuG3E2gDbi9NlzdBeG5v39JHN2pOgWvXrOclG2sYteZ7NZPIET3adp9zQzfjLDocViGc3l69Y/5LNjFKKobvsfGykS4QJZZ/r66U67gFKt31ujo6NEYUQQRQwOD9HdnYxVxzAMwbr/9p49S3eusfsLpXYMD49SjCzd3TMs+lphrFCsWr/QOxZgsBzqPoNtruwc9G37Bnnp2jRv3tjM4OAYYRBwrr+f7syEQ+LWXb383ZXtdKyvf13klUx/f5ZstshAv7N9LQbBku+5nkKEWDhwsptNTbVd3yi9t7LZLP39EYV8HhuFdJ89R7cdqWlbJmOA4+fO0+1lK/ado6OjDNoc3d0NpByOIorFIufO99HtTz9WD8vhswN0t9UmgH02X+SxM2e5gYlrnxrLkwstp0+fRkTYffIMl+YW3g994OAgDw8XOVcI2XrXPk4+f8P8v7QEBgayZAT2nuhmS7NPqSTWRx7vZiyM+MqJfr5+aoDtLYYv71hcTKQcjvYN8fS21Lz9xEAQEYRhVd5h5wYLFAqFWb87n88RhRF9g4ON9XwklDAIGR0b03WWJaBrhdWjJsFrz/P4/Oc/T2trKzt27ODkyZOcOHGCSy65hDVr1vCFL3yB/fv3c9VVV3H33Xdzww03jAeeF8pDDz3E9u3bp/y+MYZrr72Whx56iJtvvnn877u6uub8rp6ennm3URRFAfC8fjZu3EhXS3r+jRVFWbbouKA+ZA6MIriJq16DhSGcRQTyVsDzSRkwYYFVnWvouqi93s2rKz39Y3gyQGvnGro2rpr/F+pI8/E83kCRtRs2sr4Mq7+VxGAxRDiLSaXq1j+sOhUS2Fzd9j84lCN6tA/PCJlV7XR1rR//rJZtaj0d4g+HpIyhtW0VXV0X12zf1cTz+hGJSPk+nWvW0rW+rWLf/b8Pn2c4DPmTbdVdNFeqw6qBMxQjO+O9LqaXSLyqPYODQzk86SfTuZauNS0V/e4HHjjLSy9bS1fXBjpGz5I+V6StYzVdXevGt/HNOVKrOujqWlvRfSsLo7PQR3NxmHVrOxEzgJgK3HPZIkbOkVpd+XurHLq6umh+qkBnZwfNgxY/G9G6upOurs6at6WEL+eQ1na6uirXV7eeOUlHe2bKO7ve+N55V5qzs5OurukB1IzXx1i6iW/nmzg2mudDOyr/nj86kmf7t/djENKeYTjdwncKaY6NFnjR+lXcOdiLYLnqZ2cRLN8eFl5wxRquXrWwAPaWfuG/+s4SWDAGpHM9Fzen+NThc3givGNLZfu21fnzIKPcsrufD1yzIbZoF07lQ9ZkfKyNCKzlQDbiX/oNb9nUyTe6B3nPpPHBZ4+d5+BInutWt3BgKMerLu7gnt5h/nLvKY696un8d/cgnlj+4/gAYRTxx9s38PhQnjdd1sF/dw/xx9s2MHI0x1Ub1tDVtXrO9rYUQ5C+qrzD1qVGSJ8pzvrdzcfyeMMhLW2r6OraWPH9K1PxHx2guaVF11mWiJ6/6lAT2/CWlhZ+7/d+jzvvvJM77riDT37yk9x22210dXXR1NTE29/+dr7whS/wnve8h3PnzvHrv/7ri97Xrl27uP7666f9/Q033MD999+/lMNQFEVRFEVR6oAxqjRdLCWrW4CitYjYuOZ1bdvxQN8oV9z1+JS/u/Luffz+wydq25ALWE624b6YutZ1bmRETF2tBV1dQKinq6nrJm0D1LwG6mg1WS1E3LFV+uw+MjDKPx46u+Tvedm9B3neD56sQIuUimGhsMjnYCyM6C3DorhatuEpz6N/0v6NEYILLNCNtQwH9beVrhWjYUR3rnEVgILF2sr1vcYw5R6oNC+79zDP+/78fZareS11r3ntGWGgAWzUq41BsJYZa16fKwR4Aj25Iv9y9DyfPHyOm+6p7Hvnc8fP89z4XVaMIiIL/3DwLH+5p5sHzo/xcP8Y/3VqkIwxBNZdj290D7JvKMdYGPGTc1PV+WNhxJn8zPfxxqYUY0FI2ggecHSswJV37+fP9nbz1Fh+ynccHZ34+XwhpCdf5Iq79vHeR0+Nb7NvaEKpvuWufZzOFhkLI6761n5uv/8YAK2+oRBF/NXjTqUZWktkXYmJXBiRtzBStHz0QA/nCgHvffQUjw1mGQsjxsKI/3XgLPefH2PfYJaPPtHDr953mPfvPkUhgu+eHuAv93bzvt2nOT6a50w+5Hw+5MOPn+ZXfnSYP9ndzea7HufIaIGOdBm24VA/2/BYla7zntrgal4rSmNSs7T9HTt2sGPHjhk/u/rqq/nwhz885+93dXXx13/91+M/v/rVr57y+Yc+9CEAPvCBD8z4+9dff/2MQW1FURRFURSlsTGAGKlvZGgZI3ER2mJkSXsGIlvzmtcdvsfxC+rJ+SKM1XnhW2DZBK89oa51nRsbO60ea61JGfjdh47TVwj4r+dvrfn+DYBthPvZAjZxNa+xLoBd6eNq9T3yFXi3tXge5/LVr9mplI8AhUU+j4eH81z/vScIb7thzu2MVCd47WMZnJQIY2Z4/3jGMLKCCpK+8+GT3H9+hCdeeW29mzIjpXdA5WpeGwaqeH1bfOFcfv6+z4gLZNW75rXBrpya15Pedf9+vI8vHe/j7hdeycZv7GVjU5oz2QIbmzMEUcT5Cp+Ta1Y10VcI8I0hiuIAtgj4HsdG86xNr6arOcX5QoAvhkgAC/uGcvzZ7m6euaaF56+bcEfJhREXf30Pr7mkg3965uX8yaMneVpHMx+89iJW+QbEkBIIgCMjeU5nCzR5wlOjLlHlD39xgu/3DHEmG7DnFdfy7kdO8M3uIZo8odUzHBst8Ps/P8F3zgwwFMD51z4dgONjBd646yj7h/I0ecK9Z0e49+wwFiFjDJ4RssWICEuEMBJEFCNLFFmMQDqC53z/IL4IO7/zBL+yoY29gzlafMPJ/gKns0VGg4hcaEkZKFrh7b84RadviMQSWOHkaI5/OOgcuHryAUbg1FiBqDlNm19ezWsr9Ukgl/jPC5OmlCphwWr4WmlQ1HNOURRFURRFaWiM1MQsKLnYCIvL9G/zjFNe1ziTvcV31zAfWTKxkj4lQrbOixLLSXmtweu5EII6n5qUMWQ84dGBytXDLIfPHjvPoeECxji1VK7O94ggYIUoYYtgIhIrryt7XK2+qUjwuskTcsujK1sxiIHF6nQ70z5RrH705ggeiBG+fnKAN1w6t/3rQkkZoX+SWtEg0xRwBhguM3D+r0fP0ZcP+dOrq2v/2vSVR7n35iu5aU3lrP1LNHtCvoHfwSa+TyqllBQs/VVUGrd4hrEyxl8S/5uvswLTE6lKokijYYBDIwX+7yd6ePuWtVzX0czbekb48L7T+MYQRBHHxiKMMeStC4r+9f4e/vya6c/29rv3cdPaFl59yWoOj+R5/ro2ft43yh0zlMn4+qkBftGf5VVd7XSkPEYCsETj+yxYy8HhAh/ad4Zt7U20eIbvnhks5ctxV/cgiHD/uRF2fvcJiqFl/yuvAcA3hrvODLP1rsdZlfI4nSvyhRN9jBQszca930Nr+Z2HnqLFM1jgqbECN//oEAdHcgwWQkbDiG137yOwET7ixjoiPDqYZW3G41zBKaPTX3kkHgdFPNg3RmfapxBBfzHgeWvbWN/k8Z3TQxgjrEp5fOamy3nL/ccJrKU15RFai1hLi+9hgxAbufbtOp+lIyWMhRHDgWV4KEd72sNaCCIoRm7booVCBMM2QBAOjxVo9w2joSUfuTHaWBiNz8XmvBekfsrr39i8lozvqfK6RoiAtep0pzQmuhKoKIqiKIqiNDRqZLU0nBWYpRiVMtmdPV2tMSJTLCjTnpCtsJLm7T8/wVV371tAmyAbWq686/GGtgMFt3Ba7wBtw2Jt3QP7PpCugyV/XyHiHw6dxcRL/HW3DRfBEjWU8vqm7z/JLT8+vKTvEHHHVh3l9dKvWYvnkQ2TH1hZVtjFK6/BvTPPzWJ3W8IDPv9Uf8Xtu1OeN015feH7x5Pyg9cfe+Isewern9gTAefz1ekDWyqUaDIf2761j/c82r3g3zMCmMq5QxhbXdvwFs+UlTxYKkXRnStydtLzsO1b+/jSU/1Va9+FuOB18jOEXr6xjZQRjo8VWP+Nvbz83kO0esL/8fgZl0QQQV+hSH8xohBGjBZDPvbkWQ6N5jmTc9dnLLT0FUI60j6nskV+cnaEv9nfwxt+eoT3xDbbw0HE1d/ezz8dPsdPzo9y9+kh/v5gL6+67zDtKZ9i5FLFTrx6B0EEQ4WAJt/1iZta0tywutkFieNZ4sMDObJhyIlsSG+2yIlskbVf38P1330CT0CsxYhT8j46kGewENKTK9LiG4wRJP4MC0Ek/Oz8KMfHimRDy1gQkTbGObBQcmGJKNiIp0YLHBvJY4FWYzDivos48ToCBoohbZ6wpS3N1tYmDEIhCOl/3dN5bVcHI7fu5HWXtNPsCSkR0saQjhXlNi4JY21EiNCXD2kRWN+cgsjiY90/cbLTaDFkLAgZKER0pAzF0NLsuxGitRbEHU85CNP7k++dGWbrAuZZi+U1XR3saG9S07WaobprpXHR4LWiKIqiKIrS0MTzdmWRiLg6iEVrESOIMGuw5Pb7j/FrP1lakGc2jDBFxZMywliFFwJbF6iMcsHriCNjBQaqFHW8/f5jvO6nR5f8Pb4xdbfGblREpqsCy+E37j/Ga35ypCJtSBm34FjrxJA2XwiiaKLmdZWcBNx9XM65spP+bAyajTC61PNi4cRYgU8c6KlMo2JaTGWcMJo9U3dbXWUqLoCxuL4JXHD4/DzKV09cUOLEWHnJV2/adZSbf3iQjz4x933sY+nPT3yn2Om1Rz1jGCnzuWoywlANAn8GOJevTiJai29q4loTASOLSEYwkwJ5c3FsJM8bfjbzmOQDe7rZ8a19/M6Dx+OEwyorr8s4TiPOXvkTB85yyX8/PgHtJQEAACAASURBVP73vbmQ7myR33rwOG+K6wlXE88Igyugxvunb9zEFa1pCmHESDGiJxfQmvLHg5/ZMMQ3wplskVW+odkThoOAa+/ez8Xf2MOtPz3Kmq/v5tafHWGwGPCL/izf6xkiF1l68wEpEV5672HW3LmH3lzAn+3p5m0PHmfX+RFGihHniyFr0z7F264neuMNrEl5+EYwIrT7HmNBRD6KuLQlDeLaFEWufzqXd/Wrh4oR2SBioBhxJhdgjOuLQ2sZDSLyUcjZfEB7yoVErLUusIsLAOdtRNHaOAgc0pn2SeGSbgEQoYgwWowQgf5iyJqUh2ecq5SJvzOMLKNBSLMntKU8urNFOtMem9vSjL1+alnTLz77Cg6+8lp+aU0rRqDF9/npi7ezrS2NxR3fSDFkVcqj2Tdc2Zbhf1y5DhC2tKZAILjtera0pWlNebT5howxNBnnhnNFa5orWtPOoSeMGC0jgG1EpimvNzSnODqSn+U3Kotvyn9/Ptg3yutn6deU+SkluitKI6LBa0VRFEVRFKWhKcPZTJkFEcGIISJWgFmnKpgtwDZQCDiTW9ji3MmxAs1ffXTe7aYFrwWyFQ7GtvqG/AK+U4BcaBErVatlWLSWI6NzL/Tc/KOD/PKPDs65jaH+6uJq8Zmj5/nHQ2eX9B2LOTfnC8EUJddSSBnBN5Z8jdWvbb4hsDJu110t2/CT2WJZlqml7nohzegrhDR/dffiGlYGLZ5hZImBM4ldGgYrHCBu8Q3FyC5ZXdTsiyqvGw1rSQmLTiooR3ltxEkBnxorr975N7sHeWQgS3d27gBvyhgGJ0mtjZlee3QhtuFNnjBUA1cIA/RVydq52UhFXBLmIy2m7PM6GWMErJ235vWajM/XTg3QM4PbzPqMx5GxIj/oHUGkurbhrSlDtozAlFAqmxIRRNF4glZKLKfzRQ4P5zk7KWFh31Cepq/MPyZdKAYYqOL5aCSEUrkfS3vaQ4CMCKF1wdl0/P9NnpD2DM3idJtpz+POUwN4IuzuzzIcRIyEEWeyRQyWFt+Q8gzf7xmiVHE5iCw9uYCeXMi6jO/6igvu/2ZPaDbCVW0ZLm9J05sL6Gr28cVZfP/n8zbTJIInQqtvKFpXoqgz7ZMyzg7ZWvBFSHmCRVjlG1p9j2LkxisWnOoaZ5WdFuF8wQWeW3wTz6dihXNkSeH66FbfY23ap8n3eNPlnVgLaSN84dmbafIM+cjypstX8/XnXsG3X7iV91+9gUdfdvWM57095fHrl3XwyxvayEYRz+xs5rFXXMuXn30FGc+jGFlee8kqfueKNfzVjou5cU0rn3/OZh57xbX8f8/djCfCE6+8lk9c10VXs09nxuMlF7URWMvel1/DT168jdDCJ595OatS84eD3B0wdRLebJze/RMHexdwRy0OfwHJXxub0nztZO2cGJKHq7euKI2IBq8VRVEURVGUhsaIgAawF8WbLusAawljFUHJGm+24HWL7zG2wABIi2/IR84CcC6MGPqLk2zDTXmqm4XgLHgXorx2Na9FnK1fNWg28wcUmz1Ddp5z4RQIlWzZBMXIKTrqxZ8/dnreYMp8LObctHpexY7bFyFlDIUar/20ea4moAGQ6imvm0x5Nv8iC695nTZCPoroq1JgoMX3GFlqYNe6BJxqBC8ynqFvickzzUbGg6TFyK6YIEsjI3GfkFvkM+lUxPMErxEEM6fyet9Qjivv2sdwMba+xdKdK/LiHx7ked9/kmJk6ckVKUaW4TjJwxd4YijHOx8+4fYj0xOEPAMjZb5vm3xTk3rBnjHVsw33TE2C1ymxjCwi0F9a3J2rRm0xspzLBxiExwezjAURB0byPDmcoxi590gxKoWrZMqYrdI0GynLvtgYwYhL1EgJ7BnIMRZEpDzDqbEiHSmPs7mJdnakDAEu4Wou+gvBlDIzxchy/9kRnojPxakLft+T2ZMci1HEtm/tmza2LkaWo6NTE0uyYcRYEHFkpMD5CiXPVRojQovnkTFCygjFKGL0Ddfzlk2dPPzS7bz+0k4ub/ZZk06xJmVIex6p+DqBxUYWQejNB3gijISWVt99H9a6QLARClFELrIMBxHnCwGrfYPPdJeGgdddR9/rdnLfzdu4rrOZ3lzAqy7u4PFXXAMCt13Wydjrr2P41p30/toOrm1vIu0JzR5EkSWK50E9v/Z0Rm+9joszPp0pn9sv7+TDOy7m+etaCSPLb1+xhnwY8cqNq2jyDSlx8wpP4GntGawVfnPTGgJrOfHqp/G6rg4ubU5x+6a1PPnKa/jkMy9n5PXXMfC6nbzp8k5GXn8dt13SwdPbm3jmmtayzv07tqzjq8/dwolXPW387267bDUjt+7k9Zd0cN3qFj6y8xJ+eX0bt126mlde1I4Ab7i0c3z7392yjgOvvJY9L7uGrz53C6devQOAi5pSvHXzGl64vo2ndzSXdR/MNJbzPeGOR05OS2iqPJbh4vz7cO+uACOG3gZ9psqlENmKJdUuhFINd0VpRPx6N0BRFEVRFEVR5kKnUovnX2/cxDe6hxgKotgWD6e8nmVx0wVRF74YIbjF71VtmVm3MVyovBayFV74cLbh5S/6uuC1RbBVC163eB65ec5pkxHmE7x7ZnHq4nIYKoas+8Ze7BtvqMr3z0famCVaytpFWaq3+mbpdtIxKRPXB4ws+TAi49UmTzztxVUf42e6WtbRzb6hpxw7XmthEbWhBejNFVmT9ubddqG0+FIR5bVHdRwaMsbQXwhZn1n88kyT5yzrQwv7h3Lc8L0DhLddP/8vKlUlBYt2QzDl2IbHwaC5lNdr0z5Hx/J03LmbzrRPaKE7W+SSJp+f9+f43LHz3PHoKfpfu5P2O3dz+jU7SBnn2HJyrMA17a5G6zTbcKR85bURTtUgeG0EzhWqYxve5BkCawmsxa/iIn/ayOJsw+MmzXW77To3ys33HsIIvPS+I2QMNPset1/WyflCwL1nR2hPuRIEVuC+s6Nkw4jmKrzPjAhNxtBXCOfs98VaRMCPLfKf84MDGGBdJsWPeofpTKc4NlrklT8+zLdesBVwyWQHhnJc2pziNx84zi+taebdV20Y/86vnRzgc8f7ODyS55YfH+Fj13Xxmp8cZiSwXL0qw0s3ruLvnuzl/Gt3jv+OJ3AqF/A3+87wZ9dexHsfPcm+oRzvumoD/3zkLIdG8uwbynH96mZCa/n9h09wT88wYDl6y47x72n76m6afI9WzwWIX7i+vKBmLRGBnR1N3NDZwtdODdCZdu+mzz5rEwD/ftOm8W3/4OETfLN7kKa07xLQrBDGzkobMj4jQUiT8bC4gLYLhrqfxkLLJU0pBoOIFJaLWtLccfUG/u1I36xt+1/XXcLWeK6xqSVFdNv0cesVbWlOZou0eB67XnIFv/3giSlq54dfup21k963b7p89fgx/vMvXU7aCKNBxM0/OsSJbIH1mRTv2b6B/2t/D5+9aROfuWkTAnzxOZvnPZdffM4V825TLl967tK/6zPP2jT/RjGCnTEZxhdDActg4Czeq8V9Z0f4RvcQg8UiX3nullm3++qpQX77weN4WE5ni2xYwliq3rTfuZsv3LSZWy9dXfN9z5X4pCj1ZPk+0YqiKIqiKMqKwGgm8JKQuO5a2jNE1tXAnk091OLLgpXX4K5Rbz7gyjmD11MtKFOeVFx53ZZamPJa4hrBIlI95bUv5OYJrDb73ryKWQ9TteB1KrYBHCiErK5C8HAuWr66m46Ux8ASFF4iZnHKa98sSuE2EymJrSp9j4EgYmMNgtdve+g43zkzhCcgRrDFqHrKa89jrIyT7OrmLcw2HJzq42whYGYzzaXRbAyjSwzqC2AMDFbB+jgtNlZez95/lkOzJ/QVAtpTHoKlO1ukqzlVmUYugq+cHODISI73XX1R3dpQbfYNZulqTs/4mYjrW6urvAYEPvJED7dc3M6z17pA2DdODXBopMDm1gy37zqKL0KIq5tajCw/789yusnnqbECf773NKNBxKqv7UYErrhrH5e3pLBYHhvKkYssRqa7WxiZ33GlRLPv1UR5baCqataM5zFQcPbGS+FrJ/o5mS3yrm0bOJ0PuPvUIL+7Za3bh2/KVrRPRqwLCU7ue//zqX6OjxXY0dHMnsExbrm4g/GyvVhMXJ/3VLbI9lVp+vIBG5tSFGxIGEX0FEI+sq8HYyyXNWfoTHscHMnzvqs3ltWm7/UMcWikwB9sXTfj582e8M3uAfoLEe/etn7GbYwIxJbPERax7u+K1jJaDLEWsmHIz86O0HnnHt511Xp8gc8cO89rfnyYjG8YCkJ29+fYOzjG4dE8xQjGwggjwnfPDLOp9SwihmIYcCJbZHNrhsEg5MhIgXt6h7jjkVNc1JSiEFq+0zPM5473MxyG9OcCftQ7SgELVnj2PQfwRWjyXC3owFr6CiFtX32UQEAiZ21tcGOF46P5mtSCXyjv3bYeA7zhsk7+9vpL5tz2k8+8jE8+8zLu6h7kzfcfx095WFxd5X9+5mV8eH8Pw4WAZ6xp4dunh/nY07t432OnKYQRn7jhEl64ro17z46wfyjHb2xaw/PXtfKHW2e+F4DxwPVcfP15W/jjR0/xlZMDXL+6dZpN99oLnt/OSQHYdJwF0uobHnjJtinbveEyF1BcKbNSM0siohcbog0WI9bO/PqrCGszHpGFr58cmnO7S5t98mFEkyeczhW5jvlV5Y1KSgy/+cBxDgzn+bNrXD/7ndNDfPP0EDvaM/yPK6c+Gzfdc4A1aY9vvfDKJe3XjdxXyp2tLDc0eK0oiqIoiqI0NLIA+1llOsYYLCEpYwjjrOrZbMObjVmUGtrAjPUTp2wjQn9hqm14tsJrdgYXLCg3CGuQONhn6a/SgneLZ8jOs2jfVEaAwxMIqvgsiIizbaxx8NrETnVLqodqF1cPvNU3jC5hv4G14xaFKQPFCNLGOQxsrKLyY8e39/Psta2sSXnkIosvgBXESNWC181eeRavglNvLFTBIVh6c9V7BithD++JCw6/+EcH+f6Lrpr2eWCd1eymloWt5mZ8Q38xJLCWXBjR5s/8DH7xqT4++NgZDv3qtTN+3uQ5BXfaCD7CTfcc4PFXXIMIrJrlO6vJ/3uwl8cGc/ztE2dpSxmO3PK0+X/pAq791n7eedV63nnlzMGvenNwpMC7tm2Y+UMLac+MP5P/87HTfO7YeY69asfM21+AERe8DqxlKAh53g8O8uzOFj7zrE0E1lmLGrHYKCIywt6hHL/z0HFeeVEHfYWAb3QPkTGC55z8CS3kraUQJ2ydyRVpMobBIKDZuOC2uGYzWHRjhpO5gLEgYtuqJp4YzrH1rsc5HF9HT6YrrwNrZwzuNhkXQCxx15kh3v2Lk7Pey4vFIJzLl/+sP+N7T3BlWxMbmjzuPj3EkV+d+x7NGKG/AsHr+86N8JWTg/xhHGh9+8+P82uXdLAu45M2hnO58mqYT8aI8ObL1/D54/2MBREtvuFD+3s4ky3Q4hkCgS2tGZoM5KJSkMKACN/rGWL/UBojQsYYoijAirsbPnKgl2YDv7tlLYdGi/zk7DD/fOQc9/3KVbT5Hjfec4B9L7+G6753gDuuWs874iC8Q3jXIyf5+JNn2f2y7aSM8IzvPsFrLumgyRhafI89gzk+cegs/3DoHI+8bBvFyE5J+BNx4xPPQBjacaeRXBARWujJh2RK40kb8aF9Z2hPGT5/vJ823wVSf9w7gieCYBktRhQi9/7PRRZj4LNH+9jY7DMaRgyMBvzF3m5SGF7w/Sc5nS8iQD6yeAIP9Y3RmfYZLIYuoUNcfeRcXA9ZjCAGChZGgyh2+AlJeS7BzY+Do2PFkOtWNzXkDOeNl3XOv9EF3NLVwdCtE0r12x84xlNjBR588bZp2751y1rav7aH2y/vZG3a57rVlQ82fvz6S/j4PIF3pTze/vMTfPqXLuMj+3v4fw6dw4vv2oFCAK3Vi163eh5giXDPUqs/PSn0jkdO8OUTg2Q8g2A5nV3etuEpA4UQTozlOTJaYEtrmlO5Iv9y+DwBlt/YvJa2SedhbSZFdzbP6VyRi5uWkqwoqrxWGhatea0oiqIoiqI0NCXVhbI4RNwis4cdr102e81rw9gigjyC0DNP4MkIDExSmKQExqqgOMkYKbt+7HjNazt7zesf9Qzzxl1HF92eZiPk51kQaPYN2XnU2dW0DQd3Dc9XwRJ5PnwRrIXBJdboXYzyusUz5KJomh1uubR/bQ8/6HGKkJQxFKOItJmapFEN0sapS9ZkUmRDiy+ujm1J7VQNmjxhrKzvdudyoa0QkarV+fON4BsWrPzMhxFv2nUMiOsBWpccczru675ycoA3/OzI+PZr79zLnScHp3zHpw6f4/U/nbv/yBhDXz4ktNB+515Ox4lAF57vrW0ZDo/kKEbw5l1H6YmDdKX+vHlS7eyUbziZLbLuG4/xvZ4R3v7Qcf7o4RO88xcneNWPj1AL1jWlCRGKFs4u8pk4XwjmrV1bL4aKIY8NZnnO2tltfwcKIa/76RFu/ekRrm7PcCIb8PqfTb0fZuvWPWM4XwhZ9bU9bL1rHwP5kIPDef7w4RM84ztP8MofH8ITL/aLFt718EnO5SO+fnKAB/rGyAchZ/MB7WmfUhe3qTlF2ggp4+67JiNEETT5rmZtSXk1VIzIGCGIInryARihzTMcyxZ43U+P8OZdR7FYRgLL2x86zu27jvL+3ae46Z4nufybj087lv+fvfOOu6Sos/63qrpvenKanJlhZhhmyBlfE1HRVdR1TWBWVldXXfXV1dfdFXXNcXcVXTAgiEiULAiCwAADk3N6ck4339vdVfX+Uf08zAwzCK7sh93PPfOZD+Gmvt11q6p/53fO8YT7DeVDzVd3DPLNnUPsK1SnG2IueayTl92/m89u7nvWc/6npmopD1Zef+ipHi58cA+/6BznDY88c9zXe4quUsDcVILx50B6J/5CLi0z0wlGKxGvvH8Ps2/ZjEBMZyP7AgqHLGhbc2X++pFnn0fO7qjjhyfNx1jLuokSAM2exODiVAbLIX/zyH5SnoeN/+g4C1hb6C0HtCQUaV9y7RmL0HYq+drtlW7uz7EjVybQjiA66vZtXLK2k72FgIse3stAKWBfoQrAZeu6WX7HFv5p6wACwb5ClbobNvDaP+5jIjT8onOcG3onKYaaH+4dxQM6i1Uab9zEsrUjXPTgPrbnKu7z41MhEcxIebhWp6fXo1kpD1+CApoTHmlPYq1wLiACAu0sqnORZiJ0JHLGl0zxP9a4czFZ1XjSkffD1ZAGTzBQDfGkQMbZ9Z5w/5wMI4yxNPiSlIx/glPNodqR4/lIExhDg6eoUwpfOttzLETGXePLj50zra7834ZrTlvEh5YeXkFd70nCNx33glpO1/AXgoAwbjw6qTXDRBBi43iY7AvsGqCEwBMST4pnZNBPYUldislQk4xd2gb+RCP1ix2+EFghuLp7gn/c1A/A3LSPERZrLQ03bjxojWv1FTvzAavv3s7Ff2KNeDY416RasaWGFydqK0UNNdRQQw011FBDDS9quPpS7Ybqz4aNCwBSMuVEeSTb8KQUaASBsdPWec8FUjCtQD3ic4CJA4q+vnQFVWOfzmr8SyCpXIbikdPRDjimKfJaOLX24bC4Psn13ROEpy3il13jrGlOc2JL5nkdj7Y86zlNSUkxsvxg9wgfXnb4Yp+yLzB5LSzjwV++ELXwtq28ZnYjr5jZQE8pfIY1qCcF1tr/WhFMWA59+W/7s2zPVf6kvWmdkgxXI+Y8T8XClfvGSEg5TTjkw4jHx4okEAfZ478QaPQl27NlksKR1WnfcwSYtS+cbbh4bpECAkEhMmyeLD2v9xfA3QNZXj27kfnPU7k8hcfGi2yYKPGBw1iO1nuK4UpEk/+nFchX7hvjQ0/18J3j53JdzzizUwmm0isSStJXDnjNQ3t5YCRPMSaZrto/RlIJtuXKB73X4roEtwxk+dGeET62sZ/tFx7Do6MFStrQkVDcPpClpC3veaKbN85vRmBZN17iHY91IoFTW+uYk0mwtC7BBbMbSUrJF7f1c31vlvZkP9f2THJ2Rz3FUGMs/POWfs5ob3BEpHBz67Vd46ybKHN0fYJjG1OsmyiyKVvmnoEcjQmP9y9p45fd43z0qT7Oaq+jMeGRlAJpLGtaU3x46dPK4l93T1DShmt7J9kwVgIh+MeVM3j/Ue38omtiWnV5S98kg+WAUhQBgtBYAuOygn/WOc6bFzSTeQ7W+ikl6X2WPOdnw458lXsGs9R7HkrCyvoUp7Y9t7n7lr4smybLfH7VLO4ZyLK3FB5kffyr7gnWjhc5s/3IxLUQEFjLWFXzwHCBR8ZKpIXkxt5Jvrd7hI8s66Dhhg18+bi5XLV/jLQSLGtIkQ81t/fnaUhIRquRU09bl539xESJfcUqFW2Z5lqdYzFSQFkbqtrihZIIQYsvkAI8KQm1YeN5K7i2e4JPburj6PoU9Z7k4bEiSjhFq41jRoSUSOEaIpJC0FOqMl5VpIXklr4sAphflyQfaXblqxhgTXOanfkyFW353u5h/u+mAb5x3BwKoWFfwT3nFQ/s4ePLZ/DQyCBJJWm9eTNSOCcWTwq0tXxhywD/fOxsfj+c46HhArNSPp4UfHRjP8paPrS0gy+vmcO9Qzmu78mS8SU/3DOKwFKnJN2lCtd0jVPnSdZPVtiXr/K5lQlu7suR/s0GSm88nmu7xvnI+l5aEh495YCBUkA2NDw5VmTdRIkPLO3g551jrGlKc3xLhut7JrhvKE9SOfJ6sBpyW3+O9y5uO+L1PxLuG8rx0EiBAHh0rBiPFcG+YpXd+Qqj1fAZmdezUj6/6Z1ksBIyK+VzXfcEk0H0DAvZqZidc/+wh789qo2StlSNpWQ0Tb5EGAgit++yQGgNUkNZQ5MnSEhJPow4uj7F1act4NLHu9HWKR+HKiEZT1GIDJ4SYOD2wTxCwH2DeRp8xfd3j3BV5yhKCEqRZU+xSEYqqlisgQdGCrQlPIYqEcZCg6/oLYe0+JK8NWhjkcBT2QphvN68fl4zszJJzm7LMCft89L7d6Ot5fsnzuczm/r51IoZ/Kp7gp35gJQUFLWz67bWEmhLZA2Rdc2ZkTakpCAwscuAcC4hoXbnYkZCUTWQDy1JX+EJgxSgjXPFSCiJkoLIGtqSHpExGCmJjAUhMVg8KckFEWlP0uApEgoi61TXLu0ZqsaQVPJPNn3+b4aqRUL9j4CwggNHaUfCZzwMwdoXPApCxc4hxsLqu7aTe8NxJA+4j3rDI/t4fKyEsRbfE4SR4Atb+rl0UQtzjxDn8WLCXYM5tucqfCx2b/nJvlF8IYhMhFSKrbkKp/xuB12lkHovntuM5es7h/nQ0nbmZxK0pRSVyJCQivuH80f8rJt7J/n6zmH2lAIuXdDCoroECSl575I2ftY5xmQQYe1/LbqmhhpeKNTI6xpqqKGGGmqooYYaXtQQYkoNVCOw/xw8rbyeUkNano2jTCvBWDVi9vPIShU8bRseWcvGyTInHULwSiGfoUjNeJJsqGn5C1pVJ5Vk/DkXVCz5yDry+lnyt32l2Jov84Ene7jxrMXP+5hScRbtrCMQpGklqWrL13Y+C3n9Z+Y6P1e8UMrrek8yWI24pT/Lo2OlZ5LXwhEWk8Ez1RKRtay6aztbL1iJJ1xBemehyqqG1MHHLpxCsGIM/eWQQqi5rmeCx8dLB5HXK+7ajjWu6H3erIbpzzjzvt10vvr52de+78keGj3Jt3eNsLguyXgQMVLVtCY8JgJn9VvW5iC75sha9pdClj0Pm8Unxou8dW0nuw+ws21KePSPlTCTFUcygosEeAFtwxNxE0bV2IOKh+C+15Q6VghXmF8/WXle7y+AW/pzfGxFME1ev+7h/XSXAp46dzlbcmUufng/uy48/HWKrKUcGS57qpcPHNVBGFvJJ6RgPNCUteWCh/aw9zC2wJG1bM6V+chTvQTG8qmjZxBoywfX94KQ08p8IQQpIZgMItaOlSlGFs+TLL59G33lgEZPck23s6rdU6jy2FgJi0ViuWx9H2B5ye93UdSGty5oZmc+YGu2TEYKhi0cfec2hHXkdaOnyGvDuokyXraMkpLWpCKlJJdvH8ITgiv2jdGSUDwwVKAl4a7PH8ZK/H6kRFNCuQxcY7ltIMeMlMfOQpmTW9MMV0K2TJb51OZ+BPDVHYMMVyIySvLIeBFhIdSGKhB0Gb6za4RHz1nOS3+/i5GqwWJp9jzK2lDB8smN/Xxn1zCdpZCvbB90Y0Bb1AFK3jpP8vPOcb62c4i9hSrLGhKc3V4PwLl/2EtFa+5/+TLuGMjziY097L7QXae0EnQXqxx313Y6Uh73vmwZkbVMBJqOQ6yb3fwQsKrBFWAbPMnfb+jHWkNKSX5w4nxObE1zxr27qPMkD7z8mdbvx961nY8cPYPruifYkC3z694J/mH5TD7yVC9vX9iCJwW+EHxqUz8dCcX58TxyWFinonLKeMNkqF1ubqj52IY+vrlrmLSn+PzmfpoTPoVAszlbpaI1HhKtLfcN5ZxK0TolpwIKkaGiDXWeItCGSxe1kg00tw3mUEDFQkoYMkpQ5ykKkab3NatouWkTAO9a3Mbdg3lmpny+e8Jc3vVEF7f2ZbECLl3cyk/3j7P7gpV8fssAdw7mqFeKjJBsy5ZpS/lUjGv4qmo3Fgarmp5ilb5SQMVY0p7k79f3YYFPbBogKaAj6ZGQsC1b4ZMb+0gI6ayfsQgDKQXaGjZmK2zNVfj3vSPIeE2a6tnKeI7g/uH+Ma7aP44QllyoCeLHI2NICkFWWz6+sZ+EFAghGQkihqoRvoDQwpLbtzIRahICcpEmMobRQJOWcNHDnQxWA95zVDsfeLKHH504n0se72K8qkkoQUlb3r62iz2vXsn7n+jmq9uHuPnsJaxqTE3vfZoTEiUEDZ46gd090QAAIABJREFUSFk6Nc98ZccQ6ycrZJQ7h56QhEazvxjwzZ3DtCUV2TDiVQ/t5Y6XHMW13eN8dnM/nhKceu9O0ko5hwUB9w4XOPUA5f/U1GyBK/aNMy+ToKoNvhDUK4WRcO7MBmS87l7TM0FZW+p9xZyUx1/NbeYra+YAsKIxycs66pl162aqVhIBYRBR70mUlBjhSOHAuvGg7ZT/hyIbaEra0JxQaAtCw1QHUDkygGsam5/2SSuJEhKsQUgXFBRow/L6FCVteM/iNv5mgbOx7iuHXLKwFQ2cM7OBR+c0Mh5qFmRcXrcVggfOWsoVe0cJjaWoDaPVkIfHysxPJylEIUUNVmuMgHfMa+Fn3eO8bm4zPaWAtyxo5smJMg+NFLDY+P7DGRdXDVw0s47d+SqjYYQnYGlDipaER6uvsAJ+1jnO9vOWc8bvd2GtdU1E1nJKc4r2lE9JW27tm+SN85rpLYcvmNtIDTX85WA58O6oPalY3ZTkzqE8k+ELO34lbh9htCXCsvzO7dz+kiUsb0jy1ESRhHINXo1xU6LFzUkbJsu88oHdvGdxO5884B4gspZCZGiOn7/qru0u6uCoI8eSHHP3dr54zCyWNiQ5rvnZm9+m7lGW1yfpKgYcVZ8kspaSNjQeEt3y6of2sDFbpRTpafL6fet6mJlUhMY1FO8vVqn3JaPVkDmpBCUTIYCv7xzimu5x/t+qOQxXIup9F0+irWX+rVtIKcHmC1cCUNSGvmLIz7vG2ZuvkNOG7+4amZ63Vzen+Oj6PtJeLaSthhcvauR1DTXUUEMNNdRQQw0vahxQ/67hz4GdKgBIHK8luDu2Oj4c0lIyFkQ8OVniqv1j3HDmwRrmoUrEF7YM0FsKuO3/HAU4tc+U8nrJ7VupU5KTWuu4+rSFXLV/jGu6JxACHhkt8Na1ndMEbVodTF53FQM+tamP685YzCWPd3HhzAbesrAVgM9s7mNbrsKnV8zimzuGuOEsd1yXPNbJmqY0/xAXKKZswwcrER9d38N1ZzxNNr/3iW4mw4jfTH8ny32DOVKeYPJZGH1PwAl37ySl5J+Vp5aK1eBHIq9lrJrLRUd+785Sha/tGOL1c5ue9+c/FwjsQVZ0B+Lf945y32CeGw4g7i95vIuduQrHt6T50UkLjvi+aSl4dKxARsnDqqs94fLdcocpmwhgV77Kjpz77vcM5nnFrEauOW3hwU+0TuHYetMmUlK48yyguxRy4j3uus1OeezKV0lKp8j8dc84T02USSlFNibtu0sBn9zYNz1m3ruum1Zf8bXjnpmbKGM1SKgNE4EmpRQj1ZBZ0p92GGi8cRM7LzyGL28f4My2Bq7pnmBnvswJzRnuiH87hyI0ccE7xqyUz75ilYsf3sevz1iCktDoO3VYLtSk1FRx3UnpKi+gOr/Od6TJobl6zTdt5vsnunMkcEqZ5+sSIIjVh4UqJzVnSErB7JTHk7H9bXvCY1+hymse2kNGKSbDiHNnNvEPK1zR76p9Y3x0Qy8Kwd5ClZV3befWsxfzd+v7SApBSkJ/OeKih/Zy+bGzuXzHEAkh+OYJ8zj1dzsIjMUXTjX+vnU9ZDxBxbic+dBYtl6wglc/tI/T29L8smuSXOQKpoE19BSreFJQidV5N/aOI4REW0Mu1CQ9BZFBIxiphKSV5Ged48xI+owHEYsySRIKBsohIPjP/WP4UlAJLAlhiSzkg4jL1vXSllIonCWuMZbIWMrGElU0HUmf4arGE4opI3kNWANlbRmtRFzdOUGdp3jHY51klKRqoLsYkvZc3mFkHPFc1pqU7yER9JVCZty8mXpfUackJW0pGUPRuHEfCENfJUII6CkGZHxFk6foLQW0+MqNBSF437pulBOE8/ENTvU6GWh645zwa7snef+6bkJjeM0f99GgXMPV2vESM1I+neMlXvPHvXxyxUxefv9uLp7bgi/hX1fP4QtbB7h3uMDyhiT3vnTp9LjyBYQ4cuxbu4b5/JYBFFCKDOc/uNepzrvGufGsJbx9bScDlZBNk2Wafadm2lsM+PBTPSAFjTduQgB/fOXRNPquKafhWZT8Qgh8JabtiNuS7roIK1BC0FsKmZFUFDUktY3jJSwZpRAIQlxDTgZJIdLMSicoRYZsEJJQirQSBNZw1aluPvSu38CVp8zno+v7aPQk+cjQkJB0XeQaAexfnzB9bL86Y9H0vx9dn6Qloaj3PK46ZSE/OXkhSsAvTlvIRKhp8RWf2NDHjkIFaa37tcaNLAI351Rje/FGz5GVnhCE1rq4Egsj1YiMUoxHEZOhpsGXFEMQ8djQximEDRaFe60ULh/YWIuxAoMbD6E2FI0hNO65Srq/2gii+LdRNdatqUGVBk/ytsc6SSqBjiw95YgWX7oxHGrakh7FyFLvewxVAnwpuOjBfSSk5Gu7hskFGo0jAVJKMFiOeNva/UgBncWALdky39o5zD1DOUfoW/f5FaP5qznNXH+mW08W3LYNYw0pKalEhqQSgLP1xsB/7hslIQS5UKOE5PGxIhc+uIfLV8+hqxSRAPrKERkZkVQKY+HeoTyPjhV5xUzXRCHjRk9jBKGwjAfObULg1pXWhMdPD1g/rzhlAS03byQlBWe2108T11PoSHqsaEyzPVchpQTtCZ9CqFHSEiHQxmCNuy6OlLbkI40UlgZPkvEkk9Wn1/3IQNZoZiZ9xgKDYcrxB+ZmEnSWqkTWZVt/cfUsXjX74P3O3LTPlac+vd/45elPj+P9xYDFcWPYKa0H70lm37qFC2fX885FbVjcvuKftg7w09MXcuVpC6YV61P4yFO9PDhW5DMrZvGxDT1YBMvqk3xwaTsXzGqczqI9FD85ZQFKCLZfsJLAWrSF+Yc0gh579w6+dfzcP9thpIYa/rsRHtAU2Z70+NLqOdwxuPO/xTbc7WXcvqG3VOWx0SKv/eM+CqEmKZ2rWEoJipFlKn3pdX/cR72npq3GP7q+l72FKp87ZhZn37+b6I3H89ZH9zNQCfnB7hF2FwK+dtycZ3z+Wx7dT08x4D3renjX4la+ffzT5PU9Azl+vH9sen4HOPbu7W7utQZr4Str5nBtzzi39ecZeu2xdCQ9tLVctq6HHfkqVe2a2l77x73cevZRCCEoa0tSSarGYoVgtBrSkfJBCKwVgIu6GqtqPrWpj5kJjyZfMViJ8ISkrxqiEGR+s4m0J/GFZWEmQSUylIzb47n1wDlGnHXfLjKewtoaeV3Dixc18rqGGmqooYYaaqihhhc1XOa1swCs4flDCGe9JoB5aY9XzGzhS9sHpx//Rec4H13fyweOaiOlJBVrOfu+HXxo2Uxu6c/x9e1DzEh7/N1TvaQ8hbXWPS8yfHvXMJcuakUK2DhRInPDRjoSioFKxF39WY67Zyf/duJc7h/O05bwGKkabuybpE5K9hWqFELDSb/bCTjVVN9rV3N9zyS39m8gqZw96cc29jEv4zMz6XP/UJ67B/NoA6nfbODLq2dz50CeOwYLPD5e4oLZjZQiw6Vru/j6cXOn30sJwb+smkVPOaKzUOYbO4d55Yx6pBAIAcZYJmLl7/H37GBRJsFRDSmu3DdGOXKKK6wr1H9kfS/3D+VZ05Li0ytmTZ/H/cUq9w3lee+SZ3bwB9rykt/vZux1q494nRLC5YEeCYGBLZNlVt29g63nrzjosbobN/KfJy+YVif9ORBC8A8b+3jZjHrWNKUPemxxXYJb+7OUteHa7kkuWdTCvYM5tIXWhOKWvkk6SxEfXXbwd2++eRMdCZ9c6M5vNdLMuHUL689bwdLbtiIEtCQUkTUUq5ovbR/kH1fO4kd7R/nY+l6scOP25Ht3kY5VhLf1Z3nZ/bu5cFYDX9o2zOdWzTzgOzhF2FBVk4mv2dZcBWtdEQhrkULyfzf10ZbyCLQlLWGoonn/E938vGecUFvSN2zkMytmcO9QgWwY8fPOCdKe4CVtdfy6LxsnbjqVhbaWiSCiLVaYVY3lmq5xPrmxHykEq+/eRr3ncXN/jhbfoxgaHhwt0HTjJqrWInDH9PuXHsUbHt7PCS1p9hQCxoOIyFj+9qh2PCG5qS9Lw00buO6MJQigzoN8ZGhPKiLjinvWWoYrIY+MFjgzVrU+V3z4yR5uHcjSfdGxhMbSdNMm+l5z7EGuCGkZuzIcQF7X3bARTwq6ii7r9O+WdbB+osSP943y1e1DfDrO8/xF1wR9xYDv7R2JLWsNlchiBXz+mNlOlGfhA+t6+Pj6Pk5tzVA1MFAOaLxhAwGOELt9oEBKCdKe5PHxMt/YOURzQnJqaz1VAykpOObObSgpuLprAm0sOeOUheNhwF39We4dzhMZQMBNfZM0JzyMsVQllI2zru1IJQiqERg77XiwOf7d/W6wwEAlok5JgsgiY7tjicspHqwYAhOhBMxK+kxGhqe5EUFFW5BQjCxSCGc1i8AIMAL6yyENnsJgKRlnWdue8pBYio7fdjaZyhGUCSWJtCM+k1LhOW6Res/D4ojr8UDT5CtGg4i2pOeOWTvvXGstkREI6YhIX7jsWCkFFSvwpCCyGmkhMpaitlR0RKvvuZDh0KKERGsNQmCsU7TOTPmE2uBLicU18WhjsAg2Tpap8zykdXbiQzJkc7Y0nRt/e38WXwrmpH0i48jmQmR4cKTAAyNFElJwU98EFkdo3TNUQAJrR4vMvGUzFsH685bjS0EYud/ZvmJAiy8JDJSM4YGhHA8O5wktpG/YCFgSUvKf+8dYlEkQWYvENSUklYjnEHj5/buZl/bJheYZ6u+DYRFWUKckSjr1eTHUXLqolZ92jrvGndjJYLQaInC55qPVMFZeienxkpSSf1o1i3Jk+MbOYbKhxheS3AGOIVeesoCl9Ulmpn2Oa0zS7HvcOZQ94tFN4TMrZ/GZlU+vZeoAHq8lJueVECSUxMS576Fx6m9fSCaDiOaERzVyZEJZG6TzWgYERW3wBNS7+juhsWSUs6dGgC8s1ZidULiIkRZPutxtJalqR3IG2oCVBMbSkfCIrPu9SiFc3LAQBMaggMAYtBWEBjpSHj2lKnWeQgiNNZrQuIjiloTCwzW3CFwDiwDuHsrR7HvsyVeZkfSoRIZQwMyEI4JvHyjEtseCSx/rosH3SEmXwyysU2i7+SXLv24f4vLtgzR6rimhrxyyuM5nqBLhCRErxwX7iiEzUj65UOMLR5b/cazIK+/fQ0oBVoLWSOHOgQa0MdOZ9+5dHAlvrVufxgOnSq5oTZPvse7c5Qdd+6R04/PMtswR9w9bz19B442b8JXgNbMbGK0afj+Sx1h37ut8iYmJ2siAto70zkfu9/Px5e38645hMr7CWOdx/4mjO7iuZ4KeUkhCwk9Ons9JrXUsu2MbX1pSTzVV97xtfxc/i6PJ5cfO5qj6JCsbnWvLMY0pXhc3Ah5KXAN878R5ADw8WnT7XmD9ectJx1EHhyOu4Wkr7PZnmRe2HLJ/q6GGFzOEAH1IB/nsTIKEdC40LyRk/PetC9u4umsMa+GDT3UzJ5Ogaiwj1Yj5mQSRMUTW4itBqN22xGK5cv8Y6ydKaGvZmqtyTdc4Arfea2NoSnh0lUN+tHeE9RMlzu6o55s7hgmwiLgptt6TSCH4z31jdBYCbjp7CQ+NFnlwtMANvZNkbtwIFm4+ewmtvseOXIWEgrGq4bIne8hFbv2b/9utKAlvntfMw2NFKtqQDTQNSnHbQJ70DRsRWMoGvhI35FW1IaMk9Z4iG2ouWdjCVfvHQU4R+paxQNPqSzzh1maJWw91vJezCHrKEZE2FLSmOeERaksE6LjpVRuLka4B6Mr947x7cesLel1rqOH5okZe11BDDTXUUEMNNdTwooawlmlmo4bnjQtmNXJLf5akkqxqchmXEsHC27bx1LlH87dP9ZD2JD/cN86clEfGE4xW4Ks7hkgpyac39+NJQb0nSQgYCzXCwmSg+dzmfs7qqEdY2FMISSqngKoYS0oKduTKXPzwPpqTPoFxqhyJ5Fe9E7QnPZJKUo40YZzZufKubSghiAykFZhYtbU3H9JdDKhap7RKSEfIfHbLAE1xQXR/qUpXKaBOCQa14e839CJwhdSklHx52zBNCclIoLl82wDf3iWp9zwErtt8c7bKdT2TdCR97h8psH6iREG7IvJU2cbiSJq7hnJo4YrDAxVnfdme9Hj/ul7eOK+Fel/SUwpYXOfsa52y+9mLPI4gl6ybKHHyYTK1E1JQiTQTsTp6yv7u9Ht3ooC/39DLtnyVx0YLZCPD2lcefdDrV961nf84cR4vm+EUWm9bu5+nJitsPn8FQ5Vw+lztyJWp8ySjlZA632NFQ5Jc5HIf9xZD3ruui1PaMmQ8RT7UPDRWYtNkNwjJ6+c2MiftU9aWU3+3g4SAUqSpaEeyjhrLWDXgzN/twIopgkERWmfvevtAjkfHSqwbK1K1TjXpyjMWgUQbS6AN6yfK7MpXKWnNpzf1T9vxaWPQUhBoZ/HZ7CuykaE+4ZELQ7Tjr5ECiqGmGBlmp32EkPx43yj1CUVoLZExfGvXKKnY1tVKS6lq+U1fFgPI2B41MM4qdTI0tCdk/HzN2rHAKaItmHh8aeMsbovGgrD4CKyEUIOShtc+vI+0UvxxtERCCqrWkg0jLt8xSMZTMUEh+OC6LtqSHg2eIjQaXwkCbQHpDkzDGx7ZjxKCUBtOaa+wsj7JVZ2jpJRHWjll9J0vW0qjciqNlJAsrksydkBWd0Ubjv/dTn5+ygJeOsMR4ZnYQWBq/GVDTWgtHvC93WMsyvgc15xGCoGnJJ/d0s8V+8bwpFPBJwTU+2paZVmNrSD/76ZeklKCdQ4RUgrWTpRojOecYpyV7EkJRrvfrHGNA5EVdJdCOgsTrmEBCIEkkht6s8xKezGR6pEUAulJtLUo4WyKpXBzkEFQDfR0PrCHjS1wn6kin5HyGA80nnRzFBb+ZkEL/7xqFp/Z3M+t/TmObkjSWw5pTngsalQ8PuqybUNr3RynLRMmoiOl4vxVy/mzGvhtX5Z3LGpjX7GCLwSPjpXIeC6bXSK4/oz5vPyBvRgsk689lhm3bOaougSD5YCqtvjSqS9DY8hfvAaAt67t5LcDeWamFXvzVaeejiyvmNXIrf05LIKKNgRG4EtBc0ISapxq21oMgn85djZf2T5MIdI0xeMx4ykqxlnrSoFTPQmoGIMxlu+dMI97hvJsmCjSVw7xpCMTrbEI5Y5RW6hYSyqyXN01Qb3voad8hoUjA30pmAgi6mPVtxKOzDXW5dn+YM8IbUmfamQoGYPSUDKWE+/ZgRc7t1ghiLSmqgWlyKBxTViRsSRlbIcfNwNIoL8S0ZpQRNbZfrs5yLiqeFxgLmtD6Vls+oUQfPW4OdzWN8mGyTIzUz6PvXoVD48VuXL/OA+8fBnn/2Eva89ZxoUP7SMbaE5oSfOzU1dMW/O//bEurukeZ+cFx7AstkO/ayDHo+NFhOAgwvGSRa7gvO0gcmz+EY/v+UAJZ5ceWMuT5y5n9V07qGhLg+/O2cKMT1G4NUTbeL8mnALtgln1DFZclEIp1NN2Oq+a1cCN/VlKbzwB/zcbObMtw9ZsBSkgJSVNCY/RqstMt9bwpgUtXN8zSbOveN28Jj67chbf3DnMlZ3jmKmMYwOvm9fILf15POHIdyVdg0PBxE2QwpHL689dwaomR2Z+6KkenhovsSGsxAu+I581Ao2gaNy64CV9fOnmWmPBGIMnBYUowqi4gUkb6jwX82EsfHbzAHWeU44XIpeVvLIpxXmzklzd6QiZqV1GOXKK8rSSFEJNVRsEguakohS5YzcCiqFBKYGPi4woRGb6OuVfv2b6urXfspm3L2jmi6ufqSqcwshfrTniY1PIXfynnwPQcctmLPCSjgbmpXwKxvCOhW30VyJ+cvLBauiPLZ/xjNfnL15Df38/c+bMfMZj/xW8Z8nzzyYHOKu9jtzrn9t3r6GG/40QQhKZg9e5mUmPr6yeMx0X82xYfsc2HnjlMmYnn3sU1RT++dg5/POxc7i2Z2J6rhRKUggMZW2ZmfIRwBvnt/DdE+ZR0oa6GzZikITG5c9vzlXwpSAbav597ygJpahGGl8KrHAEbkUbHpsosjNfoai1izMCHPUrsMata/cOF5h162YQMFqOSCi3d0oIyXue6CYR739K2jVS5kI9fW8XWUtCCH7dO8mMpE82NHhSUudJKtpgrcECb5zXzCmtGVoSiskAGn1Jk6fY+6pjuG0gx1X7x9HGkc+hEEzoiE+vmMNNfZNszVYQSHe/bd1ePxe6/VSzp9BIktIpuKO4ucwI6/ZiRrC/FHBD70SNvK7hRYcaeV1DDTXUUEMNNdRQw4saU6a4Nfx5uPKUBay+ewerGpNccfICvrVrGIlgoBLQcetmmjyPyBhC4xRBzQkPT2okTul4ICILvpRkwwhfSkIsZ9y7k3qlQEBgNNoqwBVTXdazZm5GMRK6YrDBFVgHK87OshS5LEshYLhysPI4NI4krBiDiaBeuVxBa8HaCInE4IjBTZNl+koRzb7CV44Ai4xxVmtYQiwToSsOC2kpVQwNDSo+Josxli9u7UdJSdUYRkNHwCeFoBIPP2NAKQDBgyMFlt6xjVxoWFqfpCPlFFlvfnQ/D48WWd2c4RUddVggKRyJecGDe7krtot+29pO3r2kjZd3ODLZl5JIa876/W7OndFIxhP8+oxFXPJYJ53FgIQShFhGqiHH3bWNOXVJ7h7MIYWkTkFFw+58lQWZBL/qmeSih/bx90d38J1dw2Q8SVexyqc2DfDuxVU+eFQ7CzMpbu7P8pL7d/H4WJmkdDT+JY93xznNlpSUJKVkqBqRlLD6rm0IYONEkYwSTASWaqQpC0kxijj6zu2cN7OB2+JmiQZfko00SgjOndnAuoky+4tVesshGU8QWqemC4whKQVPjZdISafUS0iJLyAQgLVoLGXtbGWrxlINIhoSHhXtFBcitmpVxlKJSbz6lKKsLQpYlE6xu1hFW2ffHEWWGUmP0Bg8aalTHoipRhlQwjJUiUgq6ch76xoMUtIJCkMjOLo+QWexSkIpAgtJIYgseMLiCUk1JjjK2tn/+gbqlECK2NJXSgpaI6xkItBkUpKSNhS0RRtLa8KnakxMbjj1aMlYSuWQjoTnlPqW2FbXYo37jU0GhnpfIazlkZE8+/JVJgKLklFMRlpW3r6NlHKEcIOSNPqS0BjO+cMe7nzJUQgBA6WAh8cK/HjfKDsLAZNBxFse7eT4ljRXn7aIGbdsjjPLIbKGXEygCJx6UylJVylAW0d0giuSFbT7Qc1I+QxWQpLSFRpt/OqKtlS1JtAu3zsbGnxhCWP3DY0hwl3bqtYoCSnPKeK0jZUk1tkGVzTkQsP8jCChnAVlhJi299UWKpErGqalU3SbmKyem3Y2tuEhhduOpMce6eyFf3PGIl73x05+EVvxXnfGYo69ezsrG1I0+IqElHx6+QxeP7wPKwTLG5JcvnoOl63rZjI01HuKBk+y/wiZ68vu2EYudMr+deeuwALRm46PCXhBz2uOpTWh2Feo8tXtQ9wUOyQcyKlec/oihioRM1Meq+7cRnvSZ/sB2eGRtRRCw/zbtpJQgpe0N/C5VbNo9BRrx4u8fW0nJ7fWEVmLAb6yZjY/2z+OLwU/PGk+D4zk+eSGfsybTyAwljV372Ay1GzOlrn6tIX0lUN+N5Tju7tGuP7MxRx9xzYi60jspBBkpMtJl0JQpwS5mAWPjKEQOpVu2vNISqjE+ZaBcYTmrGSC8TAiNJZcZGjxFROBZmYqQVFrovhahtpZbeZCgxLQ4CtSwlmNBtZlN1e15slzlvPSB/agrSUlFVXj1FzZyCCExFpLaHF2zAmPrmJw2OsGTJNe713cRm85ZF5sH3xWWx3Rm453VsvaUNaGh16+jL95tJOJIDooU/7q0xbyo5PmUxePb4AfnDiP7+4e4ca+LD866S9DTv8pKAFz0x7bLnA5msc0pahqQ0U7Wv8V7XX87dEzaPQV/aWAv9vQh7WwJVvm+yfMZ0m9I97P/8Me1mfLGGu5/qynI0myr19NRklGqhHZULO0PsnntvTzvd2juLY3+NmpC9kwUeYtC1r4wiqnFL9saTvnzGrgs5sHwMJT5y3HE4KWmza5jHpPMiPpcc6Mer6zZwSLxFjDUXUJduer0+T1v504n+5SwL2DeT74ZDdAPHacDbYvBL5yr/Wkc0vQVmLQRBZakx4D5ZB5GZ+xSkRKCspWOCmycOeoFBPTb1/YwjeOm8tXtg/RlvRdY1ihjLWCbIhT9UfOPWRKZa3ihh2LpRLBgozPeKhJxtavR8pO3nr+Smam/vvKvvtffQz50DWFHYhDiesaaqjhfwisJTqM81lzQvFve0bYU6zyhrnNXLro8ITnnkKV/YXqNHn9rie6GatGfOIwzStHwpxUAotbd7bmKkwazYykx+rGFHcfEBOSUZLoTcfjXb8BG+fNVzWENqLBU6Q8FxMkpGsqDSJNSUODpyiEEYG2NPuuibVqDMaAwbnFlLTBk+BFrnk6pdz9p+uIhUIYUYz3tn68xwgt+BJC7ZpWjXH3KUVtiIxr/vKE6+dSSlINNVeftggpYMcFKznr/j20e5J7X74MgEUZ37lcvOl4EtdvpKgNrb5id77K7LTPtrj5CyEgjpyZm/YZCULOm9VIdzFgXynA4u4DLJbyxceRvmEjRojpGI8aanixoUZe11BDDTXUUEMNNdTwooazDa8pr/8r+OzKGY5gBvxYJQeAhQhDGDkFZDpWEqaknHrYKX2Ms4QsRIbXzmnk5t4s9Z50GZ3S2b7WKcFr5rZy72BumkBo8hS+tETacs1pCxmuRlz2VA/aChribMwGX6JwXe4KR1IKBNoKStrJ/9KeIKEgqVwWZmAs/7B8Jt/fO0JgXCatNTBUCWlPeHixHXgkBFpbIiGIjEUJR1wI6zruI1ebJu1JCpFhXyliUZ3vcsKrBpqnAAAgAElEQVQFZDyFAGSopxVPxjq1cD4yJISlrGHjZAkrQArJfcN56jzFrkKZnfkKDUqQkJIEmt8NT1nDOYLv1v4sr5rTxFg1wsPZx5ZDwx0DkwCk+7NklKAl6bnstziTbFu+ypZcFU8IZ4kdK9Nu6ZtkYdqnGGn+MFLgmKYUdw7ksALSSrE1V+Gmvgm+vnMIYWO1wViZVGxDbK3LLPYQFLShajRYp1LMSA8lQiyCa7onCLQjkz0lmQw0npQIa7lzIIcQLme9rN21SUtJk6+YnfLjDDpnu51UTmEsiZXlxpFjCSVRTFlwOsvvSkzItfoek5FhQTrhCvbWoIXkujMWuszqTf3O8li4z33DvBZu7p9g56uO5ar9o7zniR48CX8zv4VPLJ/B+skSP9gzSm+xSsUKvn38HD62oY+qgY8s6+C3A3mGytV4zEoCC5HV/OK0hbx+bhPXd0+yKVviDfNaeGysyIZsmet7JjFY6pXk306Yx/vWddPoKWfhZ8FTknJsj4yNi0zaxFl3wgmopSDjCaLQnSNHnAlC7ci0i2Y3siVbZnu+iuZp4lfERSkdE9rZ0DAZVqZtqAPtCHURq9qrxhG3JW1o8hS/H87zzZ1D024D/7R1gNZEggZf4kvBZKi5ZyjPf+wZcXbQNs6nBbKx7f3LO+rZkiuzYaKCcWJpp+wQEITOKrvRV9QrwfHNafYWA6o2cmqQmHxOK2cnn5Q+vrB4SlCNppTQEBpNRjk1vst0FeTCKD4HgoQQlI3LnK73JOfMqEdbwdVd42AtaaWwyjW+vHdJG9d2T0yrrjXOkveelyzhmLu2k/EUY1XNgtgQ4a/mNJGRkofHixzdkJpWfE9hy/mO4HvjI/vZnqtwdEOKX5+1hNBYXj+3CV8KRiuz+dL2YdY0paYz1g+HTy6fwZZshb+KLW6nPmnKnrY1tnVfUp/kR6cs4BXdE2zPVfj2rpGD3meKwFpSn6DvkCYhTwiaE4rvHj+P3fkyF85pYlVsr1vSaX51+mJObslQNZYvHzubU5ozfOCVT0cEjFaj6ezZhBTsuHDlQe8/N+3zzkVtvHORUz9ec/oiSpGhs1Sloi0bJsvsKVQpRIbGeO2oV5LvnzCPd63r4sNL2ylqjULwu6EcRQ0VE5H2JDectZiX3b+bYuSMTRt819SQUYKyFvz45EVc9mQ3BW346uo5/Mu2QZeTKQRppfjE8naSSvDZzQN8/4R5zMsk+OaaOWzMVnjfkjaOa05zW3+OteNF/nXbIAjBFSfP46Mb+jh3Rh2vn9t8xGt3IOaln6k6k8BPT11ASgoW1yV456JWlsfn/UAcSFy7a5jkxJY0581sfE6f/ZfA5atnc/nq2dP/vfkAdfd/7Bnl+OY0J8WOIcvqk2w6zz1+bfcEB7Z+vHZuM2ua0rwyzmieQia2Y+5IetNW7Cc3Z/jmmjm0p/xp94NDx9byhhTLG1JcdEg28jeOm8v2bJnXzWvm7I567hjI8YP6BPW+T2gMF8xupOmQvPIFmQQntWb41vHz+Lv1vQTG8i/HzOZzWweYkfQoR84pQOIU5sYYMp6kGBluPGsxr394P4szSTqSHgOlCKsjhASMU/ZrY2hP+ZTjzpLPrJzJZ1bOZKCqWX77Vn588nz2FKu8ZnYTb17byWglcNn2EKvALb86fTHveryLn5y6gL35KttzFbZmK/RUDq+A/O8krgHqPUW9d+Qc+BpqqOF/Gux0E9iBaPIVnaXQuWNYyxe2DtDsSd66sJVPrTgwzkewvxBwZmx+kAsiukpHbvo6HGanFBkl2Xz+Cn7eOc7WXJm3LWhlTXP6Gc9VQvDL0xbyvid73F5AChp9D2MhpeDixW1csXcELQUVI0gpwcs66rl/JA8IUkoSancnShxzEcb7zMBo8trFi9T50jWQChc9FQh46/xW7h3OUTVT95oGKTzAkBJQ1pqMrxgPImakPKx1e/Z3L2rjqu5xron3UQB1nuLDR7WxKHbwAlhUl+D6MxdjEVx56gIue6qHl82o552LW7mmewIrBCZuBv78yll8cdsAd5+zhHsH85zaVsd3dg2zrxjw/46ZiRDwiQ39JJXkbQta+O1ALo4qqaGGFx9q5HUNNdRQQw011FBDDS9qHC6Probnh7cseLoj3pdiOmf1TfOauL43S0I6Yq7NV87KW2rCmCh79+JWhqshd/Xn0cCFsxt4cqJMIYiIcJZyb57fxBUnL+Cx8RJ39Ge55vRFfGpjH6VIs7wxyeqmNK+b54r8D48V+VX3BN87YS7f2TXKcDVgQTpBa9Kj2ZdUIssNfZOUtabBl1gLKSWY+mOtIbTw8RUz+PaeEUxkYpWq63IvGZcva3FE4VsWNPHL7kmSSrKkLsFQJcLglARVY3jXklZ+cvIC1K83OKvdwNDsK5QUjhQXkH3Dcbz3iS6u2j+BVC5XM7KWYqyIklKQVi4LVkoZK8UEodb0hZaFdQkSShJqgzHu+KdUVfcO5UhJp9C01uIL4yxurSt2S89jIoho8j1SnnuOtiClJLQaY10h3cb5bBOhpsVXTEaGb+wYcpmhxnX5SyF4ZLRMo++skpt8l5cMxJmjzppaY6ebAtKxKreqncVyZAz3DReRQFVbOlIeJRy56uGK9BXtiPBSpDmrvZ6duQqjQcSslIeKVQbaQudFq5jz2y0kpUAJ19CQlk592V911/FtC1u4pnscTwh8AbNSHroSsawhydeOm8tPO0e5YyDPm2L73Mt3DDM/7REYy/mzG/j6mrlcKZw68V2L23lguEBvOeKk1jRrmt3fR0aLDFciBi5aBcDjY0Wu6Z7gkkWtfPeEebz0/t08OVEiKaEUOQXwW+PPu2RxK+B+X2e0u+LQaCVkfl2S/4hVkW8/QJFy6eNd7MxV6Ks4ZZ8VFovknFkN/HG0xPHNKbKhoRRqjBCcO6MOpRS/7h5HC0lVW248aynnz2rg3Y93saIxxentdbz3iS4s8PYFzVzdlaViDIFx2ZtSSII4a3TKWjwCIu20F9pYQgOL6hPkI8vnNg+6gpxwTSGBNkxaQ6OnGKkG1Cc8/nHLAHXKNbAY67pAJgM3mN60oIUns2U2TZYx2ln1vmleC7/pncTi7NyTEl41p5HQwL5SwDsXthFYy9XdE7y0LcNIoJkINMYaVjYm2Z6vcunCFkLjlJC3DeRZ3pCitxTgC8Fr5zZzZlsd736iCysshTesIXXDRgJt6Ej5DFQifnXGYr59wtxp4vdADFciNmXLpJSg2VesakqzsjHFuxe38m8nLnA28DHef1Q77z/qafI2d/Fxh513F2Z8Zqd8jq5PcnR98qDH3n9UO3cP5g5Lah76vOeDN8fj8p+OnX3Yx3/7kqWH/f8A717yTOXU8oYky2O76rcvbGF1c5oTWw+ONXhJx/PLVz80W/fa7gm+uG2QfGSo8wTvWNjCj2Kl5j1DOZY3Jnn3Ylf5fsuj+3lyskzuIqdqLkWGwBoiLWhLeJwzs4HeUshgJWRvrGZ/28Jm3vl4F8c1pblgVgNbslU8CS/vaODjsfrrQ0s7po/nfYec84vmNLK0IcnOXJkberO8bWEr713y/K7LkXDJAXPDZUuf+3teuujPs0F+IfBsx/2WQ671h57Hd5zaM/w5ONQm+lWznxvRf1xzmuOa06yfLHFV5wQXz2/iX3cO0ZFUTErQQnBGex0zUh5JKfjRSfO59LEuduWrnNmaYWl9kqFKSH+5wJntDTw0UuCdC1vJRhGToebN81t4/yFjZ3ZSPcOWO6UkGU8xM+WhDXSWQ965qJW/nt/MX8935+WcGQc3ANRQQw01/KUhYnedQzHV/ONJwf3DBRo8j94o4ivbB/nqjiEyntvnSQFdsb24i+AQTFQ1/ZXnnpd9dENqeo685AgK7wPx1oWtvHVhKw03bqLBk/jSxb30lzV/vaCZK/aN8bb5zVzTM8nJLRlOaE7TWQoYroQYBBfNbqI+bkz6Vc8knhCsaEzSWQyYDCPqlLtn0bibzRBDGAnetbiVgtbsyFU4b1YjaSn43t5RtLVU3ng8b1vbyZsWtPDux7tp8iQpKTmrvY5LF7UTYQ+6Vweesc+o9xRviNfFSxa1ctdgjpUNKU5vq+P0tjpOacnw8FiRH540n6I2fH5LPwAfWub2N788gBwPrGVrrkJkLa+e28RtgznARcXUUMOLDTXyuoYaaqihhhpqqKGGFzWkrJHXf0n40qn3VjakuO7MJVwRamdFayztSY/3rOtm7ViRdecsJ62eVnz5128gowRdxYC5aZ9doabZk7QmPK6IiYal9QlKcZVjdtonMB6/f9mygz7/Z6cu5IcnzSetJP+xd4yVjSnu/j8HEypr7t7BtnyFa05dyGe2DDBSCV0OppLMT/isO3c5ACsakuzOV0krSSYm0mYkFd89Yd7/Z+/Ow+Q6yzvv/+7nnKrqVd3arX2zJVu2JcvGCzYYsI2BgI2NwQkOhCVAkkkyYTJseUkmc2XedyYmbwiZECBksCGEALHZjDHgsJjNArxbsiTLtqy1ZUktqffazjnP/HFKLbW7tbnbqqPq7+e63FZ3V506Vd1dp+r8nvu+9f+s2y2T179etkSP9GzUgUqsa2e36dHekp7oKymOvCrx4XaWh+5qbzXSvJa82gKnL790sc6shU6fu3iR/n7NAnV8/XFVJBUCp858rSuopNwRM3IrsWrzWKUFzXlVaq2rzScKXZCG2LUe6l7SwXJVi1pyaXW1WbriP4llzhQnUk+UqDMvFZwpSkz5ML3dapz+bVSStJV1UxhofyXW4pa8hpKKmlyoUpxWWS5rz2tTb1lxYBqIYvVXEy1szWswTlSKvGKf7kyUJBqMTbObcjpQjtSec3JmmtUUaMtQVZIpTrw+/ZL5+q+Pdqk5dIoSp0SmnEvnvcmcqj7Rk69bqTPbChqM0hmgH3hslzpyaYC9faiiWYV0pvZAlLafvWJGi752+VL99cbn9Okt+7W/FOmLlyzSYz1F/eOaBXrfQ9v1ytnt2tBbUm810Zvmd+hN80dW3O267tzhKr6xfOHSxaO+tqAlP1ztJ0n/etliPdJT1Ibeki6a2qIvXrpIf/zwTm0eKGv7deeMuv6R3r98lt6//OjtEL9wSdpe+p2/3qZ79/TrsWvP0ep7N+nOy5dq6jfW6U9XzNKb50/V7z2wTY/2lnTnFcsUJV5P9pX0WM+QlrUV9GR/Sa85o1231bb17V29WtbWpNBM/3LpEj10cKOeHKioUFsQML0pp99dMl3/8FS38kFaeV1JvPqrscqJ14FKpLYwbV/YkTP1RaZKEmtle5P6ql67SlVZnLZZz1m68KLsnMxM50zJ62uXL9aqezfJlI4DkNJq26WteX3h0sVa9f1N+tfLFuvT1UQX/+BJvXRGiz5/cbrvn3qmW5Wtif754vTv8OGDRb136Qy9ddE0PTNQ1rK2grYPVbSwJT/icRyKE7UETruKFc1rTr/XU41VevMFw5fpveF8rbp3k66e1aZPXVT7Oz/KYqh/v3zs6ufP1fbzhfjbC+Yf8/tfO6Jt8ung0O/uRMu5tFoo8VJHGAwH19LIk62StKQ1r2eGDleZtoROK6c0qaea6K0LpupvVs/Vf3pohw5WRp4Y/3xt3689wRDz+c5uL+iOy5dq9b2bVIy9mikubWifu3iRPvuShQrMNKcp1Mtntml/OdaWwfLw6I9Dvlj7Hf2dRWnwsHOoos9fmtcDB4f0vge267ZLTr5l9kOvXqFDR7HPb92vTz7VPfwcCQCnTLrecZTOfDoqSUpHj1R8okqcdvKqWKKeaiKTl5Ppti3d+vFz/drQX1LBpL3lSH/40A6t6hjdaWQiTckFum5Ouz7zkoXaMljR0ta8nitFOr+jSV+4dLE+e7EfHtPxYM+QJOnRa88esY3H+zaprxLrhrkdevviaXrL/Vu0daAi7xOtu/ZsrfjuBlXfvEar7t2oTX0l3XnEa8l/235QC5tD5Wudzw69nvloU6jzO5r0lSO67rxk2sk/v//b814fvX3xNL29Fu63Bk7ndjRr62BFK9pHP855s+H3v525QLH3CmsdmYCsMc+yiqN65JFHtGbNmnrvBoDTwMK7n9AvrjpLC553Yg1A4+jq6tLcuXPrvRuT0u8+sF1f2XFQxShRcjOvzcbrju3prNIb5k89/oWP8KVtB7RloKxXz56iR3uHtKK9Sa8ao/KncOejuv2SRcOVqS/Ul7cf0PK2gi6a1nrMy31x6wF95PEuXTevQ585gfmf/7ylW5sHSqrG0he2HtDB2lzSr+08qJ/uG9Cnnt6vT144X793lIrH3B2PKudMhVpFcm8lnQ/unPSnZ83SX254TgXnVExizcqHumb2FE3NB/rK9oO6cmaLvvfcoExp+zjVTv3MaQoVJVJTznTtrHb9y7aDqiaJnElOppbQ6Q+XzdSi1pzu3H5Qj/SVVYq8zNK5vd7Sma5T8qEGKpEumNqivDNt7C9rMIo1FCdK3rJGbV9/XLFPW0q3BU7TmkL1lGN99iULVPFet6zdOtxO+iuXLdI/Pr1Pu4pVfe7ihZrdlNdDB4b0Bw/vVOK97r1yqd76y+16/dx2LW9v0n17+vWL/YP6pwvnyzvTO3+9XY9de7aWtI5+bbSzWNXDBwZ1/TFa7n5nd69++5fb1HPjqlHf+8wz3VreltdVp7Bt7h89vFPf7urVtlp19nj9t/W79Y9P71P3DavU8fXHteX1K7X8ng364Nmz9GfnnDHmde7Y0aPVnc1a3l4Y8/tHmnXXesVxrGvP6NCXX7r4mJddePd6RYnXgtaC/stZM/S+B3fImVPPjeen2/rWevVHsa6a2aquUlXd1UTdxVgyr+JNadXx9G+mM2avmztFtz8v8P36rh7dOK9zzFNiP9zbr1Kc6PXPa/uLyeOurl598LFd2luKtLqzWfe96qzjXwlAQ+L9FpAd+Tsf1Uumtuj+q5frP/b062827dG9rzhTT/WXdfb3NqgjF6qnGqngXPq+RWloPBClI2nSzjymqXmnWKZQ0t5yVWZOL5/Rqp+8iMf7f916QAtbc7py5sR1qfjtXz6r+/YO6vZLFurq2e36dlefrp875bTuEverA0O66r6nVHBOl05v0Xdfvuz4V8IoHLtePFReAwAAINNO37eD2fSWhcdvuTaW3150+HqXzTh6oNwSmHYfZf7iyXh++7SjOXKl+Yl47xFt2D6x5nBl5E3zp+qm+VN127MH1F05eju7gnPKBemq9TUdTVrcWtAXth5QKfZ699IZ+vP1u7Xj+nO17Lsb9CdnztRHVqZB5P9eM1+f33pAd3f1q/TmC/TOX2/TV3f0qOBMNy/o1N5SrId7hnTzgqnaW4707a5exT5t2ff5SxbqjXPToPfZgbJWdLTof6+ZN2K/3vnr7Tqno6A7tx/UlHygi6e2aENfSeuuPUfL7tkgSRp40yq9de1W/WBvn0IzTcuFevp1K4e3ccvarbp5wVR9u6tPW4equu9Vy0fcxor2gm5ZdHhRwtY3HL5uJfFa0JrXjQvS77/pxqMH0/Obc5p/nFmxr5/TMWZwLUm/f5KtlCfCJy+cr09eeOxK2pOxoDmnSq1q/1A7xANHub+HvGXBibfR3Xv9eSd8IuWMppz2lGJdOaNNv7Vwmn7reX97e994nlZ+b6Pac6Eubcnre3v6ddfLl+h1P316+DL7bzj6vr/pGD/rq2l9O+nlnZOXaYyxmgAAoE6sNsbo+TpyTpKpnCSakgtUjL1yZmoOnFpzoforZVlg8onJnMnM6UC5qryZWoJAoUsX/76Y3nYS7w1P1JcuG9ml54Z5p//Cy0OV1957eV6IIYMIr3FUN/3iWf3qwKAuntaib5xmLc0AAEDjcGbpQF+cFrpvWHXU1ryng6n5QF1DRw/fB25apWriVfFerYHTrmJVf77yDM2otZ1e3dminmqsrjecq6bnta9eOaWg8zqaJaVtbP/pJQtVjNMZ24lPZ8Ol22jWa3+6RQ+9ernKcaLCEdv5n6tGhtaHfL7WmvR3Fk7TnOacnh2s6H/U5t4mNx9upfzlly7WrmJVifejOsYc6mxQipNR+348H1xx9FbZGO2N8ztHzdatl+9feaam5o/dB/kXVy3X1Hyg7UMVfabWajB6C50wMH45k2KfiKM8AADZEo0RaHbmQ3l5lWPpe1cu0zt/vU37y7EKgak1NP39hfP1J4/uUqI0EO2vSvOb8tpXjlQITHmT+qIXN7zGienMOcXey8yk0/j9OxrXyZ2RwKSyu1hRImlzf7neuwIAACaxtBUXb6ZOF6dzcC1J/+v8uXrHkunHvEzOmVpr4e685txwcC1Jj1y7Qkta82OGv5dMax2e1y2lM6w7c2loeORo95mFUA+9Oq16LpxkiDynOSdJY7brPmRec+6Yo05ONrjGyZtVyM468uMF10de5vmzp4HxyjuT9xLxNQAA2WGS4jEOzfnamxYzaTDy+otzztCS1pwCMw1UE10wtUWtYaBvXLFU7aFTNfG6ddUcndmWlzMpH5j6qoTXWTA1Hyr2Ju8Tcb4FWZSdd8zIlH3lSFWZfOLlefICAAB1ZJzQxil0ZHt0AMCLKx84xZx3AAAgU0xSfJT34b+/ZLr2liPtGKrovUun6yf7BjSrEOrW1WmHqAM3nC9J6nvTar3r19vUEyVa1dGkqMerEDhtf8PZp+pu4BjyztJzLRbIK6n37gCjEF5jTJf9cLOKsZdMSmjTCQAA6sid5pW8AABgbDmTElF5DQBA1sRHyTM/VRshc8jtlyw66jYOfe8/LZuh9z20Q0/0liZs/zB+gTMlCZXXyCbCa4wpZ6bBJCa8BgAAdZdWXvN6BACARpN3Lg2vKfgBACAzjlV5/UJ99qIFE7o9jF9oJm8S8Q+yiGFmGFPOSd4keU4VAwCA+nJm6VAtAADQUPLOlHDeAQCATDGToqOVXqNhBDJ5b5LxSgzZQ3iNMeWdU+JN3jPxAAAA1BdtwwEAaEw5J0U+UUzJDwAAGWKKaSXd8ALzaZ87XoYhgwivMaacs7RduJmShGcvAABQP7xlBgCgMeWdU5xw0hQAgCwxeRaWTQLvWTJDTU50ukMmEV5jTDmTYu/lvU/bhwMAANSJk+gnCgBAA8o7UyxJ8gTYAABkhMkUc1xueGdPaVLojPMtyCTCa4wp50yJqLwGAAD1d3gRMCvqAABoJDkzRYmXmXHeFACAjDCTYo7MDc/VTrF4ftbIIMJrjClt3WVpeM2TFwAAqCNnIrcGAKAB5YM0vA449wAAQGaYpJiCtoZnwx854YLsIbzGmA7NvPaJl+fJCwAA1JHxZgoAgIaUd06x0qM8p8gBAMgGc7QNnwycmWSS90m9dwUYhfAaY8q52sxrJYTXAACgrpyZJN5MAQDQaEKTEu/lnESBFwAAGZF4xZ4Dc6NztdWD/KSRRYTXGFM6dyoNrhMOVAAAoI7cER8BAEBjCcxknDgFACAznBnh9SRwuPMNxYvIHs4CYkyBpfOuvTzhNQAAqCtnJvF6BACAhhQ6kzMWzgMAkBVmUkKg2fDScy0iu0YmEV7jqEIzJQmrnwEAQJ35RJ4T2gAANKRA6TlTwmsAALLBJEUxo7saXVp57eWZ3YIMCuu9A8iuwNKZUwnxNQAAqCN3aBATy4EBAGg4oTN5pf8BAID6MzMlHJYbnjNJ8mmpPZAxVF7jqELn5M0r4UgFAADqyNXGmQAAgMYTmCTPyDIAALLCJJlMMYfmhpaea3F0ukMmEV7jqHKBU+Ilz7liAABQR04mM162AgDQiEIzOWf0fAMAICu8l5NUSWgd3sjMSyK4RkZxFhBHFcjLi7lTAACgvkxe3vOmGQCARhQ6kxnnHgAAyAozU+CkKrOQG5ozScYCQmQT4TWOKqy9eUw4SAEAgDqiCQwAAI0rkEneM/MaAICMMEuDoyqxQENzZrQMR2YRXuOoco624QAAoP6cmVgKDABAYwqdyUTlNQAAmeGlwJwqMR3QGpmN+geQHYTXOKr/umKmpuRDMdpi8rrhF1v0H8/113s3AACTnDPjzRQAAA0qdCbnHOvUAADIiLTy2qvKwrKG5kzy3jP2GplEeI2jCuQUe6+Et5AN7dIfPKnX/vTp4c+3DJSVv+MRSdJ3d/cp4ugFAKgzZxLpNQAAjSmQJO+pvAYAICNMpsA5VRgn2tBsjH8BWUF4jaMKTIpjT3TdoJ4dKOvhg0XNbMpp11BVH3psp2Z9a73W9xXlzfR4T1Em6e2/2qpbN+2p9+4CACax9G0Ur0gAAGhEoTOZGTOvAQDICLN0EXmV8LqhpV3uTN7TehfZE9Z7B5BdgUnemZKIJ6/T2bsf2K4NvUX98poV2lms6u2/fFY557R2/6AWNIVyzumpwbJKO726S1Xd8PNnVXCmt/7yWUmmqjeqrwEAdXW48prjEQAAjSYwUXkNAECWeC8nqcqhuaG5Q+sGjQWEyB7CaxxV4ExxwhvI081frn9OvzG3XZdOa5UkzS6EumugrJ91D+pV9z0l771CM+Wd055KouZQShJpf6WqzkKgcpLOudjYV1LoTPKmiF8BAEAd0TUcAIDGFdqhymsAAJAFZiZnXpWYorZGduhcC4XXyCLCaxxVIFPsvbxM3rMAJ2s29pV1375+deYCvWxGqzb1lfXqM9r1t5v36O+f2qu3LZymH3UPqBIlOlCN9Bs/e0ahpNjSmSXlOJaT055Soo5coIPVSItb89pXjlVOvOSlxEvmpGrCEQwAUD9OTmIxHQAADYnKawAAsuZQ5TXH5kbmzNLgmtwHGUR4jaMKnJR4L2dS5L1ypNeZ8oFHd+rBg0X1RbGWNue1ob+ki6e3Ku9MVS99cft+NQeBilGsznyo/kqiZudU9IniONFF01v1wP6iOvNOeTPlTGoKnC6amlPeOf3H7n7FtdcnVF4DAOrJ5MmuAQBoUFReAwCQLSZTYFKFmdcN7VDa43kVhgxy9UTHWeYAACAASURBVN4BZFdgUuwl82LmccZc+oPNWt9X1FAUKzBp00BJ+cD0wIFBRZLKUaKh2GtvuapS4tUaODUHTodmhUZeuvtlS9USOt2ysENfuXyRLpnaouYg0I9fuVzfv/JMbb/+XF05szVdZccLFQBAHblDg5hYRwcAQMMJasd3Kq8BAMgGU1qVyznhxuZM8t6Lky3IIiqvcVQmk1l6oIon8XHqqvueVjVJ9LOrlh/zcjf8/FntKFb00KtXnNB21+4f0LU/eUbOTCbpT5fP0mA10td392t5a0HfuXLpUa87vzWvJ/vT8Hp+W0F7k4pkaWv3SpwocKa8M4VWa/3t04NR1Us5M926Zo4qidefnzNL50xp0pUz2rWio1k/3DNw+Daa85pRyMlZWREvVAAAdeRM6UGOk9oAADSc0KV1FZ4TpwAAZIYzU9V7hXRjbVjO0kDBM/QaGUR4jWMKROX1zEKoR3uGtLNY1bzmnHqrsTpzgc7//kZFidcfnzVT//DUPvVVE81sCo67PS/pw4/t1B07+1ROvKIkUSEwfezJPQrM1BI6xTr2AWN2IVQx9mrPB2oJnFZ2NOmJ3rJ8IhXfcsHwW/5S4vXeB7arPef0qQsXjNrOh86ePfzvf37JwlHfz7t0AQNtwwEA9eTMJDGICQCARpSeFPdizTQAANmQFrRJ5dirTEvphpW+AqPyGtlEeI1jCmqrbyZz5e3MQqBtgxWd972NOr+jWb/oHtCb5nVoc39JrWGoP1u3W5JXWxgoOYEn+o8+3qVPP7NfA9VErTmnuJZTJ5LixKvF64Qq3WfkA5Vjr/ZcoP913hz90cM7tam/NOIyTc70xUsXnfydrjk057yasPoKAFBHCW+mAABoVIfahk/esw4AAGSLyeQkffqpbj3WV9SqjqZ67xJeBE7pz5rXYMgiwmscU+BMifeTuvJ2aj5UbF4Dcaz7uwfUHJq+0dWrnHMy71VJEpVjryZnik8g5F/eXpCZ1BI6BbW5Eok3VaJEZpLlg+MuFniyv6yLprYokfTkQEVXz27Xxtedozt3Hpyge53KO5MmeeU9AKD+0srrdE0wAABoLGE6H4SZ1wAAZMShUaItgakYU9TUqJxZrfIayB7CaxyTk9LK60n+JnJKGKocJ5JJgaWTuOIkUcWcAnOaUTAF0nGafR82tzmvHYOVdKaXSdXE6y0LOvXNrl6V4+S4ldd7SlV97iULdOn01hFff/P8qS/k7h1VvrYEvjqZh54DAOrOkVsDANCwQkvfF9PwCwCAjPCSN6/+OFaR88INy0b9A8gOV+8dQDZ1FSPd3z2owEwmTeq24ZLUHjoVnClXWxHuvbRqapuGokR3v2yJPrBilqYXQsUnGPKv7mzSJ9bMU+y9LpvequTmNfr3y5foD86cedztPN5TVDGKRwXXL4ZDbcMnc+U9AKD+nOOdFAAAjSqoLVLjbScAANlgJu0uVvTwwZK896pO8mygUaVRR5p1AFlDeI0xTcs7XTW7XUG6AHrSV163B05OJudMrWGgX1yzXA9dc5amFULtKUfKOycvnVDbcElqCQJdOr1FP33VWbr/6uXDX2+tVTofa7HAt3f36bq5HeO6PycqXyt1I7wGANRT2siKciwAABpRUPs/bzsBAMgGk1QIAvVHsZpDU4nwuiGZJM/PFhlF23CMqRR7FZzJmWSibfhvLpyqP195xqiv73vj+ZKkTz3dLZkpOYkeG6s6WkZ9Le9M3vtjtg3/7u4+/cYZ7Sd8O+ORd+n6lir92wAAdWReoo8VAACNKay9D2bmNQAA2RGYKTQp55yKEeeGG5GzWpdZlhAig6i8xpjKiVdTYGnbcPPi+HRseWdKEq/Yj++ByjuTOaf4GAeMjpzTBVNHB98vhryjbTgAoP5cbRYmAABoPLUGZPIc7AEAyASrFbS1hoG8pGJMONCInCkNrj2vwZA9hNcYUylOVHC18JrK6+MqBC5dKT7ON9uFWvvxKCOVzjknmTkqrwEAdeXM6CUKAECDCs2pJXR64rVn13tXAACAJHnJzGtha043zu2gbXiDstpHKq+RRbQNx5hKSaKmwMnJy+zYM5gb3RN9JZ03pemYl8k7U6ITn3l9rO14L8Xj2srEybs0lGfxAgCgnlzayYoAGwCABhTWFs7PacrVe1cAAICkDyyfqZ/tG9KrzmjXrmKFyusGlbYN96LVHbKI8BpjStuGOwXOyeJkUoeXPZVYF087dpvuvDN504S0DffeZyi8Tlde0TYcAFBPJkle8pP49QgAAI3qsy9ZUO9dAAAAR/j9M2fq9888/PlfrjyjfjuDF42ztJCOymtkEW3DMaZS7FVwllZeS5M2vN5drOrBA0O6bm7HMS+Xd6Y48UrGOR8i70wyU5yRhztnaalbdRJX3gMA6i9dDQwAAAAAAICJYPK1Lnecc0H2UHmNMZXitG14YDap24Z/e3evrps75biXSyuUpXicIX/eOSXey4+zgnui5IN0xiiV1wCAerLhDwAAAAAAABgvZyaZ5JWNLAI4EpXXGFPaNjydO2WTuG30N3f1qiMXHPdyeTMlsgkIr9M23VmpvE4rwaVqwgEMAFA/zg4NvQYAAAAAAMB4mSSfSKLbHTKI8BpjKsWJCpaG15rEldczC6Eum9563MsVAqc4Tsa9RulwBfc4NzRBcsbMawBA/Zk8864BAAAAAAAmiLN03nVGmsACIxBeY0xp5XWtbbgm78zrE5V3pkQT0TbclPhsVV57z88fAFBfaeU1xyIAAAAAAICJ4NKe4TS6QyYRXmOU2Hsl3ivnTM685KW43juVcXmXtgxPxvlMn3emJLHMhMX5wMl7r2rM8isAQP04SfK8mwIAAAAAAJgIJpEQIrP41cQopTitupaUVl6bTdq24Scq70yxpHics6ELgau1Dc9GWJwzSeZoGw4AqCtj/hIAAAAAAMCEcZbOvObUP7KI8BqjlBOvgktPEgdmkmfm8fGk7b6leJwhf9p+3Gem0j2dwe1VZfECAKCOTF7eOBYBAAAAAABMBJMkigWQUYTXGKUUJyMrr1122lhnVSFwihIv52xcQe9wCJ6Rhzvv0rbhE/Hz//Qz3bp7d98E7BUAYLJxZrQNBwAAAAAAmCCuFlx7sh9kEOE1RjkyvD4085q24ceWzrxOw/7qOJ7sD83OzsrjnXNp25CJqLz/00d3qhRlox06AOD0kjaEycaxEQAAAAAA4HTnTPLyqtVgA5lCeI1RRrUNl6i8Po68M0VJIiepMs7Ka29SnJHHO+/SGdwT0TbcmamckVAeAHB6cTJaWQEAAAAAAEyQQ3UCXhScIXsIrzFKWnn9vPCa0PGY8s4UK328xhtex7HkfTYC7LwzJcnELF4wpb9bAACcrFojqzrvBQAAAAAAQGNwZmnLcIoFkEGE1xilFHs1uVrb8NrXqLw+trwdbhteGUdAe6hteKDxVXBPlJyZZFI1GX/o7CRV6n+XAACnITMx8xoAAAAAAGCCOLO0TIDzLcggwmuMUvZHtA13Jnk/ITOPG5mZ5OTlbPxtw2PvFbrxVXBPlLwzJRP0808rr+PxbwgAMOk4EyuBAQAAAAAAJojV5l17Ot0hgwivMUraNjz91QgkyYy24ScgdCZnpuo4Hqrhyutxth+fKPnA5GUKxxnKS8y8BgC8cC4tva73bgAAAAAAADQEV+u66um6iwwivMYo5cQPh9euNmWStuHHF5hNUOW1FDqXifA6Z2nldW4C9seMmdcAgBfGSVReAwAAAAAATJC0TMDX/gVkC+E1RinFyRFtwyWZqLw+AYGpFl6PZ+a1UyKvYJzbmSh5lzYPmbDK65jfIwDAyTOZ3rNkWr13AwAAAAAAoCGkEZCj8hqZRHiNUUqxV1NQC6/NJG96tGdQL//x5uHLvPYnT+uCezfqzHue0M1rn1XME5xCMzmNv913IJPT+MPiiZB3rlZ5Pf77ZZLK9c/jAQCnoStnturWVXPrvRsAAAAAAAANwcnkk4ROd8gkwmuMUk784crr2ozJaYWc7u8eVHDHoxqKEj3UU9S2war6q14/2tOvC+59sr47PQ5/+liXFt79xLi3E5jJ5McfXptlbOb1RFVeS+UMVJMDAE5PjjZWAAAAAAAAE6JWeE3XcGQS4TVGKcXJETOvJS8pTqQmZ5L3OuOudco7UzXxqvpE1cRry2BJc+5aV9f9fqGaJ6hFd+hMzkyVcc51DpwpcNmovD70BBGaG/djZKrfzOtr7ntKZ3xrnZZ9Z/yLFJ7PS/rYxj0qZ+DnBQCNzPFmCgAAAAAAYEI4k3wiec5rI4MIrzHKkeH1Vy9fog+smKVYXs2Bk5k0FCWSTIOJVzHyKiZeQ9VE3ZVYDx0sauX3Ng5vK/HS4z0lPXawpJ1D1VG3lfixA83ES/3VUxN0toROE3FTgaUzOavjfK538plpGy5J5tNgfkJmXtfpPk0rhIplGnyRwvOPrOvSeVMKL8q2AQApsmsAAAAAAICJ4czSky2ccEEGEV5jlCPbhktpKBvFXs1h2kPCzFSMEy1qzqmaeAWS2nOBQjP93oPbtbm/pNf99BmV4kRzvr1e1/zkKV3706d109oto24rf+ejevBgcdTX79rVo5mnqJK7NReoOgEzuwMz2QS01w6sVsGdkfDamSmYgPtldnihwu/8aqve8LNnJmL3TsjUXKByHGvgRVwQ8cNXnqUFLfkXbfsAMNk5k1Z3Ntd7NwAAAAAAAE57Jsn79D8gawivMUop9sOV15IUmikxqTkI1BaakiTRYBTrrpct1ZyWnJpDp0JgagmcHukZUs5M33uuTx3fWCenRPKmcpJobymWJN2/f1D5Ox+VlAbjWwYrw7f11rXP6pzvbdD8lrwqcaLiUSpl/+SRnVpQm1O9txzp1k17XvD9bXamSjz+Z+jQTG7CwusMVV6bxgyvK4lX4c5H1R+dWCBs3qtc+3mWEq+tR/zcX2zTCrm0Q0CSqOPrj52y2wUATJy8c3r02rPrvRsAAAAAAACnPWdKT/4bpdfIHsJrjFKKkxGV1wNRonW9RTU503PXny9zTomkPeVI18+doqm5YLjqODSTOZPkZfIyM5W9V3810Y7BkqZ943G94WfPKJDp7zfvU2DSMwMlbRuq6K6uXi1oyWlPKZIkFQKnO3YclCQ93lvUnLvW6Y8f3qVPP92tnmqs/eVI/7b9oDb2lfSRx7t0xl3r9ZO9A1rXW9SP9/af8P2duMprSd6PezZ0YMpU23BX+7keCp4/sXmvZn9rvSSpmnit6xldOT/2dtK24au+v0kP7h/U1sGyFty9/rjX21Ws6id7B0Z9feHdT+iDj3VpR7Gq7+7uO+r1tw9V9GRfSU5pR4FiRh5XAAAAAAAAAADqIY0zEvlx5hnAiyGs9w4ge8qJV1NwOLzeMlDWpr6ypuVDNQVO0VsuGP7eq2e3D1+npxLr7t19+oMHt8vMSWZKvNRXjdSZDzQUefVUYzmT2kOn//LoThWc6Z+e2a//s+WA4sSrMx+oP4r1pl9sUcFJ7/z1dn3y6W490VtSay7Qv+04oLwzyXtFPtE71m5VZF4mp4PVWE/0F/XxB/fpVbPa9KpZ7Sd0fwOlVcGDUaLW8IWv5wjNVJmAdt+BmUwZahuuw5Xgv/vANv1o34AOVtIFBiZpfV9Rl89oHXGdnmqszlwwcju18HpGIVR3uarIm/aXY1UTr6E40et++oycSX913hxdNatdV/7oKeWc6YZ5Hfrz9c+p98bzJUkv+9FmVROpksTqKlX1kcd26Z7dvWoPA7XknDrDUIEzfeOKJWoPna77+Rb1VWK1BoFiLw3EsQaiWG3hyP0DAAAAAAAAAGAycFYbeE3lNTKI8BqjlOJkRNvw1tBpRiGnB65ZftTrFJxpdlOoN83r0NWzztWVP96s3aVIg1GijlygFmeKnKnZOSUmOfOSTJFMB6uRZhVC7SlXtb9SVWcu0N5KpJYwkDOvhw4MqTUM5L1X5L2S2Ku/Fo4OKFZggSpxWun96Wf2qxgn6qvGJ3Wf84FTbzUeV3idhs4T0DbcHQqLs7HiySTtLcf6vQd3qCmQ9pZiJfJ62y+3yUxa31uSJL3/kZ0KA6e9xYq+u7tfV85q01+cM1v/8HS3QkmJT3+3FrbkNRDFirwUytT2jUcVJVLiTU1O+ujju7VtaKucmQbjRENxooFqovCOR/TOxdP1wMEhNbtAgUk/39ev9tCp4k37KrHiSlWJryhJEi349nq1hE7Tck7PlSLNaAo1GHkFZrrlV9t1d1eP9r1xlf77+t26eHqzfmfR9Lo+zgAAAAAAAAAAnArOTF5pTgNkDeE1RiklI9uGB84UmDSvOXfc607NB5qaD7T9Deeq9WuPayiO9fvLpuv6eZ362017tK63XAsuvT538QLtKFb0PzbsUX810YxCqMinT5dtgVMx8mnrCkmJ9yolpmKUyEvqyAXKmSnvnKqJl+TlZdrUV9TsQk69Jxle55yppxpr7gncx6MJncliG3cLcidNSAg+UcykodgrTiI5k+IkUcE5fWNXj0zSD/b0qeMbj6nFBSoliabkQvVFib7Z1avvdPUq8lIiaV5TbrjyejD2anFOeWfqi03NoWmwmsjM6dGeoqYXAvVVEw3GiR49WFQ+kKLEdPvW/cq7dIHBUOxViiNVk0DlKFJgTu15p75KIpOTmSmQ1Bt5Nbl0YYFJCk36TlevTNLHNu7Wv20/qCk5DtAAAAAAAAAAgMnBasF1msgA2cLMa4yStg0//KsR1J7GTtbgTavUFJgu6mzVa2ZP0cKWvG6cN0V3Xr5Eb188Xe9aMl3/beUceUn9UaJbV83VY685W+9ZMl1vWzxNX37pIsm8ZKaKlwajSE2B05TQqTVM525LXkmtrUWUeCU+DbtPNrzOB6bdpaqeGSi9gHuaOtRpvRKPt234yPB6+2BFZ353gyRpxXc3qqtYHdf2T5YzUygp8okOVNIW8IGZ8oGTl7Spr6K8M0Xeq+K9uorp59NygZxJprTNu1eicu3H0pELlAukpsAptLQC28kUSSonsQbjRIn3mppzMnnlJOWcS1eDea+KT2TyacV1OVJnIaeW0CnvAvnaSrHYJ4q81FOJtbA1rxn5QAtb0vU6Ye1n9fGn9svM9Mmn9us9D27XK3/8tM79/iZ9ZftBLbx7vZ7qL2l3uarBKBtV8AAAAAAAAAAAjNehc+1AFlF5jVFK8cjw2skreYFPYv03rq7NTpD+z8WLhr/+mjOmDP/7oqkteq4UaV1fSe9YMl1/vXqepHSW8qXT2hR7r2KcaCBKZyMnSaIz25r0pUsXaWYhHJ6XnEh68MCQIu/Vd5JhY06mrmKkV//kafXeuFrtL6B9+HB4fYyK6U19xw/HAzOZHd5Oey7Qlv6yrrlvs3YXq5rTfGr/bM17hWbqrXrNLOSUc6bEJwosbQW+oCWn/iht1Z53pqn5QHEiNQWmha1NKkVeG/tLafV8nKbXU0KngShR6ExzmgvaV6oqvvkCXfKDzeqpRnq6v6zFrQVVk1h5F6q/GqdLKLxXLFM19vrmFYv0m7/crrw55c1UdWno/4NXLNNV9z2t86Y067Heoha1FHTFjDZ96qIFunXTHn3yqX3aX00URbEkr9h7VX2ir+3sVUvg1B/FmlEItbsc6ezvbZL3idZec7b+esNubR6oaKAaaWl7s37wimUKmAcCAAAAAAAAADjNHDqzTX6NLCK8xiileHTb8Bf6BOZOINz71dVjz9I+b0qzfn7VWce9focLdH9tGx95vEv/su2A+qonF15HSvTPT+9T3ky/++tt+spLl+i/P7FbT/aXdfWs9hPaRmhpk/OjhdcX/ceT2jZYVkcu1JWz2o66nXR29sjtOJN+2j2knNkprwJ2ZgqcKXSmjlygcuL1n5fP1D88tU+/vGa5Cs7psh9uVkcukJM0ryWnizpb9cN9/XromrM1FCWa/q11SpRW9UvS6+dM0c5SpKf6y/r4BfP03gd3SJJ+XZurPv/bT+i6uVP092vm67u7+/T95/r0z1sOSGaakQ/1iQvm6sKpberMBQolVdJcWznndMn0Vp3RnNMvr1mhBXc/oT85c4bev2KWJOnDZ89Wa+D0oXW7lTabl4pRosg7RT5WOU5kJr3+51vUGjgN+USxTA/uH9SGvrIOVGOZpIcPDmnaN9epEiX6w9q2AQAAAAAAAAA4XZg52oYjkwivMcrBSqw95cOtqQN7YW3D6+GVs9r0+a371V+JTup6Bef08/2Dass73bGrRzdsP6hPPd19UlXOwXB4PXa4vKwtr8cPFhXo2C3NnbxKidfafYO6dna7frl/KG3d7UyVRBqoQ3j9obNn67Znu3XulGbdcfkSfXNXjyIvXTKtVVI6k/zTF87XzQunjrp+S+j0O4un6a5dvSrF6b6f39mi6UMVvXpWu157xhTteMO5I66z87rDn79uzhTtL8f6J3UrMGn39ecNf68zF2hNZ7O+dNniEdfvui69zN4jLnvI/OacvJc+tnqePrquS4n3yrl08UHs0232VmPJH1p9Zvrgui6dkc9pKE7kE69iIjmXzgT5+KY9J/+gAgAAAAAAAABQTz7R4RpsIDsIrzFKU+C0pCU//PlfnTdHf3XenDru0Ymb25xXOZEGE+nanz6t2y5epHu6evU3m/aqKTQ9/ppzVE288m7kE3JopmYXyNeGZr/7gW1qC52GTmJ+dehMZm7MymsvyUzqzAfHnccdOFNPqapvdfXq/v1D2lksK1+rfn/82hW68D+ePOF9mgj7bzhfknTf3n515gNJ0g3zOlW8qXP4MuU3X3DMbUzLB0rkhyuvJemvzp97wvvwtsVT9bbFo4PxDa8954S3ccgN8ztVnJ/u+wdqVdPX/+IZrespqZx4OXmt6WxWS+j0oz0DeuWsNv1074D6o1iHdr8z7+S9NBglcs5UPUareAAAAAAAAAAAssZMp03hIiYXwms0lDlNoYpxolDSA/sHtfp7m1TySa3i1xT8+yPa+LqVWtFeGHG9QF75QCr7dB5z7KXYS4PRsYPmkdtIVRKvBw8U9T83PqevX7FEkjT3rvWa3ZzT+5ZO119v2qNj1U4HZgpNqnqv58pVNblAiSVKvNe85pwSefUcJwB/Mdz98mUv+LppeK0R4XWW3HVFet+e6C3q3I7mUd93//6IDlRjndEUqhglyru0SjutiBfhNQAAAAAAAADgNGPyDL1GBhFeo6HMLISqJomanVPFS3GShryFwKlSa1m9+vub9PlLFuq3jmhxnXNOOZPuuHyRvrmrV1/cul8V7xWfREYcmOS91+b+qi7/4ZOKE68PPbZL//h0t1pCp4FqrKVtBZ3RnFPfMcLnNLwOJF9V4EwFJw1FXt6cJKktcNo6UH4Bj079TMuFir2XmY4Z3NfbWMG1JH3tiiXa0FfUm+dP1c+6B7R1sKKp+Zzu3d2nX+wfeMEz4QEAAAAAAAAAqId0ECont5E9hNdoOM2BU1MY6EA5UsGkttCp5K02v0EyefVWR87EDp0kk66Z3a4HDgzJBaZiOZadxLiH0DkdqET60d5e5UySk/7/J/epM+9UShIFtZucXQjVVz16hBuYSZYG7jlnCpwpOWIF1P4bVp3Mw5EJ0wuhosSrKXCKTsMq5RvnderGeWmr8RXtTcNf763E+vn+fsaCAAAAAAAAAABOK2n+wcltZI+r9w4AE605cAokNTlTWy5Q3rnhCmyZyUzqiw6Hx9/a1aucc4pq4fC85pyi2Ouy6S0KnVN3ORrjVkYLzTQ1FyjyUns+lGQy85JMxShRf60F+exCOCo8P9KsQiDV2pcHJiXe61Wz2pScxiugpuUDxd6rUGu33SgWt+Tkvek35kwZc9Y5AAAAAAAAAADZRNtwZBPhNRpORz6QySvvpLxzCgOnn1+1XPNa8pK8TDZc+byut6Sv7+rRG+d2aHZT2ohgfkteUeL1pcuWaFrO6blS9YRu95svW6Ib53UqbyaTNLclDbCHolhffekSDcVpA44zmnMqHyPBvefly9T1xvP09sXT1RI6zWnO6d5XnKmz2gsajLPcdPvo0vBaagpMxdP0PoxlaVtBi1pz+s7LlynvWKEGAAAAAAAAADhNJKdzyRwaGeE1Gs7Tr1up564/X6+Y2abQSf944TxdOLVFv371CnmZJBuuvP5OV6+unNGmvzx3jja+9hxJaeX1oYnU/+/5c3XtnCknfNsvmd6qmxZ0qpp4rX/NSrWFTjnnNDMfqjMXanexqtsvWaR1rzn7uNv62Oq52vGG8/TEa9L9evK1KzWnKXdSj0VWTMunM6/3lCL9av9gvXdnwrxyVps2vnZlvXcDAAAAAAAAAICTYi7NS4CsYeY1Gta3XrZsxOezC6FeNatN93cPqLcaaWexoq2DZV08vWXE5eY154bnMv/ukukndZu3LJyqt8zvVK5Whdt74+H51B05p92lE2tB3mimF0LFPm3pvqtYVZUW2wAAAAAAAAAA1I3J5Km9RgYRXmNS+c9nzdTa/YPqrcS68RfPqr8a68b5nSMu0xY6maSeSiy1nvxt5I7SPnrr6899AXvcGAoubaUemNesQqBtQ+V67xIAAAAAAAAAAJOWGVXXyCbCa0wqM/OhkkTqqybqyAXaUxy7Enrj687RjAJ/HhMpMJPJ9EdnzdKfnTO73rsDAAAAAAAAAMDk5am7RjaRzmFSmdUUKvFevdVYC1vyGojiMS+3vL3pFO9Z4/vkmvla11fSvJbTc243AAAAAAAAAACNwpzJk14jgwivManMLISK5dVbjdSRb9FQnNR7lyaN9y2bUe9dAAAAAAAAAAAAkkiukVWu3jsAnEoduUDeS72VRPJesfcqEWADAAAAAAAAAIBJhbbhyCbCa0w6oZm6q7EePDik1iBQT3Xs1uEAAAAAAAAAAACNyI74CGQJ4TUmnY+tnit5r/2VWK05R3gNAAAAAAAAAAAmXNPALAAAIABJREFUFZPJi860yB7Ca0w6718+S/nA6UC5qtbA6WCF8BoAAAAAAAAAAEweZsbYa2RSeKpuaPfu3frSl76kHTt2qKOjQzfddJNWr14tSVq/fr2++tWvqre3V0uXLtW73/1uTZkyZdy3eeutt6pSqegv/uIvxr0tNJa8M1Vir7csmKr/7/w59d4dAAAAAAAAAACAU8bs0AcgW05Z5fVnP/tZrVmzRp/4xCf0m7/5m/rc5z6nSqWioaEh3Xbbbbrlllv0d3/3d5o/f76+8pWvjPv2urq61NTUpOnTp2vLli0TcA/QSHImtecCbRss13tXAAAAAAAAAAAATjmfUHqN7DkllddJkuiqq67SFVdcITPTueeeK+ecent7tW3bNi1evFjnnHOOJOn1r3+9PvjBDyqKIoXh4d3buXOnbr/9dp133nl66qmnNDQ0pFtuuUU/+MEPtHfvXq1YsUJvfetbhy+/du1aXXzxxcrlclq7dq2WLl16Ku4qThMfOnuWpuRC/cGyGfXeFQAAAAAAAAAAgFPKJHkRXiN7TknltXNOL3/5y+VcenNbt25VU1OTZsyYob1792rWrFnDl21ublZzc7MOHDgwahtdXV1atWqVPvShD2n+/Pn68pe/rPe+97366Ec/qrVr16q3t1dSGpY//PDDuvDCC7V69WqtX79eURSdiruK08SHzz6D4BoAAAAAAAAAAExSXqewQTNwwk75b2V3d7duu+02veMd75CZqVKpKJfLjbhMLpdTuTy6nXNLS4uWLVsmSZo5c6bOOuss5XI55XI5dXR0qK+vT5K0YcMGLV68WE1NTcrn81q+fLkef/zxF//OAQAAAAAAAAAAAFnnJa+k3nsBjHJK2oYfsnPnTn3mM5/RzTffPNwmvFAojKqyLhaLKhQKo65/5Necc8rn88Ofm5mSJP0ju//++7V+/Xq9//3vl5RWYg8NDenCCy8csb2urq7j7vOJXKbRVCoVdXd3q6vSV+9dAQAgM/bs2VPvXQAA4IRx3AIAnE44bgHAqWdmipNkUuZgE4Fj14vnlIXX3d3d+sxnPqN3vetdw9XTkjR79mxt2LBh+PPe3l5FUaRp06a9oNsZGhrS5s2b9fGPf3x4ZnaSJPrwhz+s/v5+tbe3D1927ty5x9zWnj17jnuZRpTfNKgZM2Zo7oy2eu8KAACZMhlfFwAATl8ctwAApxOOWwBwapl1y7mA599x4LF7cZyytuFf+MIXdMMNN4wIriVp5cqV2r17tzZu3KgoinTPPfdozZo1w8HzyXrggQe0YsWKEdd3zmnlypV64IEHxnUfAAAAAAAAAAAAgNOdeVM69xrIllNSed3d3a3Nmzdry5Ytuv3224e//p73vEdr1qzRe97zHn3pS19Sb2+vzjrrLL373e9+wbe1du1aXX311aO+vmbNGt1zzz266qqrXvC2AQAAAAAAAAAAgNOdOcmTXSODzHt+NY/mkUce0Zo1a+q9G6fcy370lG5dNUdX0DYcAIBhXV1dtAICAJw2OG4BAE4nHLcA4NSb9o3HFTrT3jeeX+9dOS1x7HrxnLK24QAAAAAAAAAAAADqz5xJsnrvBjAK4TUAAAAAAAAAAAAwiaQTr2nOjOwhvAYAAAAAAAAAAAAA1B3hNQAAAAAAAAAAADCJmEyewmtkEOE1AAAAAAAAAAAAMIkYI6+RUYTXAAAAAAAAAAAAwCRiJnlKr5FBhNcAAAAAAAAAAADAZJKoVn4NZAvhNQAAAAAAAAAAADCJmJN8QuU1sofwGgAAAAAAAAAAAJhMvKfyGplEeA0AAAAAAAAAAABMImaSF5XXyB7CawAAAAAAAAAAAGASMTmRXSOLCK8xwhe3HtBAlNR7NwAAAAAAAAAAAPBi8QmV18gkwmuM8K5fb5P3PFkBAAAAAAAAAAA0KjOTxMxrZA/hNUYwZ+mgAwAAAAAAAAAAADQkk5FdI5MIrzGS91ReAwAAAAAAAAAANDAziTgIWUR4jZFoEwEAAAAAAAAAANDgSK6RTYTXGInKawAAAAAAAAAAgIZmMiqvkUmE1xjBjBkHAAAAAAAAAAAAjYw8CFlFeI1RWGkDAAAAAAAAAADQwHxCJ15kEuE1RmOlDQAAAAAAAAAAQMMyMxEIIYsIrzGS91ReAwAAAAAAAAAANDAn2oYjmwivMYI5nqkAAAAAAAAAAAAamTnRNhyZRHiNkbzkxZMVAAAAAAAAAABAozLRNhzZRHiNkWz4AwAAAAAAAAAAABqU90m9dwEYhfAaI3lPmwgAAAAAAAAAAIAGZt5LRjEjsofwGiOYjCcrAAAAAAAAAACAhmailhFZRHiNkUxUXgMAAAAAAAAAADQwM7IgZBPhNUYiuAYAAAAAAAAAAGhoZibRiBcZRHiNEcyciK8BAAAAAAAAAAAal9E2HBlFeI3n4ZkKAAAAAAAAAACgkaVF12RCyB7Ca4zCShsAAAAAAAAAAIDGZUYehGwivMZIXsw4AAAAAP5ve/cfa/dd33f89T73h6+TOCQEnGJCFpwlFiEjsbMIJoFWkaJC0YoK3aRkJUUpFaJDqyvxQy0gVG2sY6ogaddJRS3QChaoxtAKC0UCihjDoc4PYCb8iJJCgJvFdA6OiX/cH9/P/jjXP47tJqZgn6/PeTyEbXzy9bmfc+/VOU6e5/35AAAAwCRr3bhXACclXjOiBs44AAAAAAAAmGRVFdOM9JF4zSjlGgAAAAAAYLLZiZeeEq8ZVUmLgA0AAAAAADCpqpoeRC+J14xqibfaAAAAAAAATK5BzaS15GuPHRz3UmCEeM2IqkqzdTgAAAAAAMDEqkpWW8uNO7497qXACPGa47ThMxYAAAAAAAAT6XAJMtBI34jXjGomrwEAAAAAACZat/argUZ6RrxmRHmSAgAAAAAAmGg1aGnN5DX9I15znBZPUwAAAAAAAJOrDm8cbqiRnhGvAQAAAAAAYAqZvKZvxGtO4GkKAAAAAABgcg0OD1ybvKZnxGtGOPMaAAAAAABgsr3hHz8tlWbymt4RrxnVbBEBAAAAAAAwyf7lJRdmUIM0+/HSM+I1o+rITwAAAAAAAEygyuFhRk2IfhGvGdWad9kAAAAAAABMsMOnyNqMl74RrxkxPPPau2wAAAAAAAAmVaWGOUgSomfEa07gzGsAAAAAAIDJZfKavhKvOZF32QAAAAAAAEys4ZnXcZQsvSNeM+LwkxUAAAAAAACTqiVVduOld8RrAAAAAAAAmCKVSutaUlIh/eI7khPYIgIAAAAAAGByVSWpmLymd8RrjtPi0GsAAAAAAIDJVYkkRC+J14wo5xsAAAAAAABMtEqZvKaXxGtGtaztFQEAAAAAAMAkOpyCtGv6RrxmlHfZAAAAAAAATLTKWrg2z0jPiNeMEq4BAAAAAAAm3vAo2XGvAkaJ14yoGsTzFAAAAAAAwISrJl7TO+I1x/EsBQAAAAAAMPFsG04PidecQL4GAAAAAACYdE0TonfEawAAAAAAAJg6lWbfcHpGvGZEVTnfAAAAAAAAYMJVJSmpkH7xHcko5RoAAAAAAGDytaR1uhD9Il5zAiccAAAAAAAATLYqTYj+Ea8ZUcM9Isa9DAAAAAAAAE4jR8nSR+I1o1rzLhsAAAAAAIBJ12Kekd4RrxlVR34CAAAAAABggjWj1/TM7LgXQM805xsAAAAAAABMukqlGWikZ0xeM8KZ1wAAAAAAANOgG/cC4AQmrzmOuWsAAAAAAIBpoArRNyavOU453wAAAAAAAGAKSEL0jXjNcVpsGw4AAAAAADDZKiUJ0TviNSOqPFEBAAAAAABMg9ZEIfpFvGZUs0UEAAAAAADApKtylCz9I14zyhtsAAAAAAAAJl/rkhKG6BfxmhGVpMW7bAAAAAAAACZZDQYmr+kd8ZpRLTF+DQAAAAAAMOFaJCF6R7xmVMW7bAAAAAAAACZcVdOE6B3xmlHNpuEAAAAAAAATr1Wa0Wt6RrxmRA08SQEAAAAAAEy6shsvPSReM8pzFAAAAAAAwORrzZnX9I54zQn0awAAAAAAgMlm8po+Eq85TvNEBQAAAAAAMPEqRq/pG/GaEVWDeKICAAAAAACYbJWyGy+9MzvuBdAzraV5qgIAAAAAAJhwLTbjpW9MXjPK0DUAAAAAAMAUaMODr6FHxGtGtZi7BgAAAAAAmHA1GKQZvaZnxGtGlNFrAAAAAACAiVeJyWt6x5nXjCrnGwAAAAAAAEy81qUZaqRnxGtGCdcAAAAAAAATr8oGzfSPeM2IGpR+DQAAAAAAMOla0lQhesZbKhhlz3AAAAAAAIDJV50sRO+I1wAAAAAAADBlqlUceU3fiNecwJtsAAAAAAAAJlxVmtFreka8ZkSVt9gAAAAAAABMukqzbTi9I14zqjXvsgEAAAAAAJhwg8FM7BtO34jXjKqybTgAAAAAAMCkM9BID4nXjPIkBQAAAAAAMAWawWt6R7xmxPDMa89UAAAAAAAAk6yqzDTSO+I1J2g2DgcAAAAAAJhszeQ1/SNeM6rZORwAAAAAAGDSmbymj8RrRpTvCAAAAAAAgMnXjXsBcCKpklHNtuEAAAAAAACTrgaKEP0jXnMS5ckKAAAAAABgglUqzb7h9Ix4zQmqIl4DAAAAAABMtEpq3GuAUeI1J2rJaidfAwAAAAAATKpKi8Fr+ka85gRVleadNgAAAAAAABOrahCj1/TN7Jn8YH/zN3+TD37wg3nNa16Tbdu2Hbl9165d+chHPpK9e/dm8+bNueWWW3L++ef/xB/vXe96V5aWlvL2t7/9J76v6dLSdeNeAwAAAAAAAKdPc+Y1vXPGJq8//elP56677soznvGMkdv379+f973vfbnpppvynve8J5dcckk+/OEP/8Qfb3FxMQsLC7nooovy4IMP/sT3N00qlc6p1wAAAAAAABOrjvwE/XHGJq+3bNmSG264IbfeeuvI7ffdd18uu+yyPOc5z0mSvPzlL8+b3vSmrKysZHb26PK+973v5f3vf3+uvvrq3H///dm/f39uuummfPrTn87u3buzZcuW3HjjjUeu37FjR66//vrMzc1lx44d2bx585l5oBOhxZHXAAAAAAAAk6tq7SjZaNj0xxmbvH7Ws56VqhO/9Xfv3p2NGzce+f369euzfv367NmzZ+S6wWCQxcXFPO95z8ub3/zmXHLJJbn99tvz67/+63nrW9+aHTt2ZO/evUmSrutyzz33ZNu2bbnmmmuya9eurKysnN4HOEGqSrwGAAAAAACYdC3pbB1Oj5yxeP33WVpaytzc3Mhtc3NzOXTo0AnXnnPOObn88suTJE9/+tNzxRVXZG5uLnNzc3nKU56Sxx57LMnRae6FhYXMz8/nyiuvzFe/+tXT/2AmRWu2DQcAAAAAAJhwVVGE6JUztm3432fdunUnTFkfOHAg69atO+m1hw0Gg8zPzx/5fVWl67okyRe/+MXs2rUr27dvTzKcxN6/f3+2bds2cn+Li4tPur5TuWaSrK6uJkn+7v/tyWJ7fMyrAYD+eOSRR8a9BAA4ZV63ADibeN0CGI9udTVJy+LDD48/GJ5lvHadPmP/Xrz44otz3333Hfn93r17s7Kykqc+9an/oPvbv39/vvWtb+Xd7373kTOzu67LW97yluzbty8bNmw4cu2mTZue8L4eeeSRJ71m0szM7EnVSi586lOzadNTxr0cAOiVaft7AQBnN69bAJxNvG4BnHkzM3uSpS4X/8wzsm7g1Osfl9eu02Ps24ZfddVVefjhh/P1r389KysrueOOO7J169Yj4fnHtXPnzmzZsmXkzw8Gg1x11VXZuXPnT2vZE61SWXW+AQAAAAAAwMSqVKrKtuH0yhmbvH7nO9+ZxcXFrK6u5v77709V5ZZbbsl1112X1772tfnQhz6UvXv35oorrsgtt9zyD/44O3bsyA033HDC7Vu3bs0dd9yRF7/4xT/Jw5ga2jUAAAAAAMAka0lr6VpLYvKafqjWZMq/z7333putW7eOexln1LM+sSu7D67kQy+4LL98yQXjXg4A9Mbi4qKtgAA4a3jdAuBs4nULYDz+0Se+lsUDS/nhK6/JuTNj36z5rOK16/TxncgJKrX2LhsAAAAAAAAm0loK6jpNiP4QrzlBVcRrAAAAAACACVaVtTOvbRlOf4jXnFQ37gUAAAAAAABwGrWkGWikX8RrTmDbcAAAAAAAgMlWVWuT19Af4jUn0eJ4AwAAAAAAgAnWkrRmoJFeEa85QVWl8z4bAAAAAACAiTU88zqKEL0iXnOilrRW414FAAAAAAAAp5nJa/pEvOYEVTF5DQAAAAAAMMna8EeLgUb6Q7zmpJx5DQAAAAAAMLmG24aXyWt6RbzmBBVbRAAAAAAAAEyySiXV7MVLr8yOewH0z9df+pxccs7cuJcBAAAAAADAaVRV4jW9YvIaAAAAAAAApkxVktbsxkuviNcAAAAAAAAwhYaT1zXuZcAR4jUAAAAAAABMm7WJa5PX9Il4DQAAAAAAAFOmqlJx5jX9Il4DAAAAAADA1GlJnHlNv4jXAAAAAAAAMGUqlaqYvKZXxGsAAAAAAACYMrVWrk1e0yfiNQAAAAAAAEybtWjdUmNeCBwlXgMAAAAAAMAUqiqT1/SKeA0AAAAAAABTpipJc+Y1/SJeAwAAAAAAwJQyeU2fiNcAAAAAAAAwZSqVqmbyml4RrwEAAAAAAGDKVCVJpaXGvRQ4QrwGAAAAAACAKVSxbTj9Il4DAAAAAADAtGkjv0AviNcAAAAAAAAwZWptt3CT1/SJeA0AAAAAAABTqKpMXtMr4jUAAAAAAABMmapKWjN5Ta+I1wAAAAAAADBt1qJ1S415IXCUeA0AAAAAAABTpmr4w+Q1fSJeAwAAAAAAwJSpVNLizGt6RbwGAAAAAACAKVRVJq/pFfEaAAAAAAAApk5L0qJd0yfiNQAAAAAAAEyZSiVJOvGaHhGvAQAAAAAAYBo585qeEa8BAAAAAABgylQNz7wWr+kT8RoAAAAAAACmVOfQa3pEvAYAAAAAAIBp05KUbcPpF/EaAAAAAAAApkxVUjF5Tb+I1wAAAAAAADBlqoa/ttR4FwLHEK8BAAAAAABg2qwNXJu8pk/EawAAAAAAAJgyVZVy5jU9I14DAAAAAADAtFmbuDZ5TZ+I1wAAAAAAADBlqippzeQ1vSJeAwAAAAAAwBSqqnTqNT0iXgMAAAAAAMDUacf8DP0gXgMAAAAAAMCUqVQSZ17TL+I1AAAAAAAATJnhmdcmr+kX8RoAAAAAAACmTls781q+pj/EawAAAAAAAJgyw23Dm8lrekW8BgAAAAAAgKnT1n6uMa8DjhKvAQAAAAAAYErZNpw+Ea8BAAAAAABgylRVKmXbcHpFvAYAAAAAAIBpszZxbfKaPhGvAQAAAAAAYMpUDc+6lq7pE/EaAAAAAAAApkylUpV06jU9Il6TJFltyT/51DfGvQwAAAAAAADOiHb4f9Ab4jVJkkqya++BcS8DAAAAAACAM8KZ1/SPeM0IT08AAAAAAACTr+LMa/pHvGaEN9cAAAAAAABMD5PX9Il4zYjm/TUAAAAAAAATr2r4QxmiT8RrjlPjXgAAAAAAAACnWdWwCXXqNT0iXjPC5DUAAAAAAMAUaCO/QC+I1xzVmjOvAQAAAAAApsFaFJKG6BPxmqOq7BoOAAAAAAAwBaoqlUpnspEeEa8Z4fkJAAAAAABgemhD9Il4zTGceA0AAAAAADANqpJUSycO0SPiNUdUKs3bawAAAAAAACafM6/pIfGao4ZvsRn3KgAAAAAAADjNqoZNyJnX9Il4zQgbhwMAAAAAAEyHSilD9Ip4zVGtxZtrAAAAAAAAJt/a4LXJa3pFvOYou4YDAAAAAABMhzbyC/SCeM0Ib64BAAAAAACYfMMzr1s6bYgeEa8Z4fkJAAAAAABgGrRjfoZ+EK85qiXN6DUAAAAAAMDEq7WzZJ15TZ+I1xxVNfwBAAAAAADAxKsqk9f0injNMZrJawAAAAAAgGnQWlrXxGt6RbxmhCcoAAAAAACAyXd4Q95OHKJHxGuO8uQEAAAAAAAwFWrtKFl5iD4RrxnhCQoAAAAAAGBaVDpHytIj4jVHVeL5CQAAAAAAYPLV2q/SEH0iXnNUa0efqQAAAAAAAJh4Jq/pE/GaY5TJawAAAAAAgGnRTF7TL+I1I5qnKAAAAAAAgIlXSWqQdNIQPSJec5QzrwEAAAAAAKZHM9ZIv4jXHNXizGsAAAAAAIApUFVJypnX9Ip4zTGayWsAAAAAAIApUGsDjdIQfSJec0RVidcAAAAAAADTYK0JmbymT8RrRjjZAAAAAAAAYPIdPkm2OVOWHpkd9wLoE09OAAAAAAAA08NYI/1i8poRnqIAAAAAAACmh23D6RPxmqOqOfMaAAAAAABgClQllTLWSK+I14yyczgAAAAAAMDEq1RSZfKaXhGvOaqVyWsAAAAAAIBp0RwoS7+I1xzDExQAAAAAAMA0qLXdeDtxiB4RrwEAAAAAAGDqtKRisJFeEa8Z0ZonKQAAAAAAgInXklSceU2viNeMqEqWVrtxLwMAAAAAAIDTqGo4di1d0yfiNSOqkmXPUgAAAAAAABNuOHrdOfSaHhGvGdWSpc7kNQAAAAAAwCSrVJKkrf0KfSBeM+JZ58xnSbsGAAAAAACYaFWVpHPmNb0yO+4F0C/ffvlzx70EAAAAAAAATre1aC1d0ycmrwEAAAAAAGAqlXhNr4jXAAAAAAAAMGWqKlVl23B6RbwGAAAAAACAqdPSWjN5Ta+I1wAAAAAAADBlKknVIJ16TY+I1wAAAAAAADCFWrdq8ppemR33Ao73gx/8IO9///vz3e9+NxdddFFuvvnmbN68+R90X+9617uytLSUt7/97T/lVQIAAAAAAMDZq6pSg4Ezr+mV3k1ef+ADH8jVV1+dW2+9Na94xSvy3ve+N6urqz/2/SwuLmZhYSEXXXRRHnzwwdOwUgAAAAAAADhLrUVr6Zo+6VW83rdvX7773e/mpS99aWZmZrJ169Zs2LAhDzzwwAnX/tZv/VY+//nP59Zbb83b3va2fPKTnxz55zt27Mj111+f66+/Pjt27DhTDwEAAAAAAAB6r6qSxOQ1vdKreL179+487WlPy2BwdFkXX3xxHnnkkROurars2bMn27dvzxvf+MZ84hOfyNLSUpKk67rcc8892bZtW6655prs2rUrKysrZ+xxAAAAAAAAQO+15IfLXf71nd8e90ogSc/i9dLSUubm5kZum5uby6FDh056/XXXXZckueCCCzI/P5/HHnssSXLfffflsssuy8LCQubn53PllVfmq1/96uld/Fnuh8s//tbsAAAAAAAAnJ2Gg9ct3z+wlP+xuDcf/M6ecS8JMjvuBRxrfn4+Bw4cGLntwIEDWbdu3UmvP/b2qkrXdUmSL37xi9m1a1e2b9+eZDiJvX///mzbtm3kzy8uLj7hel71nUr37Xty3qCybjD8GMut5fHVZDUts6m0JMstOWdQWaiWmUpWW8vBVA50LbNJBlVZTZKWnFst8zOV1pLlVPatdKlUZpK0QWW5azlvJlkYVCpdVlrlYEsOrrTMDSpVyXKXzFbLuYPK7CBpqRzqWvatJrNpGVSlS7Ka5LxKFmaG2z4sdy37u2SlS2ZnkpWWHOqS8wbJ7KDywvUt99577yl+tQBg+pxsNxgA6CuvWwCcTbxuAZx5v72QvG8h+cjeynnV8tZ7H8p7vvKdLCdZSTI/qMy1llTl4GrLSpL1g2RQSZdk/+pwSnY2SWrYvZa7lnNnKrOtS6qyVMnjK8lMWmbW+tVSS86tZGEmqTb8WPtXk+UMMlstrbUsp2WhKuestbDVruVQWh5bTuYGgyQt3fDD5rxBMl/D/7/UtezPIEutZaa1dBk2ug0zyfqqDNKympYDXeVHax0vLVkdVNZV5ZzqMl+DtLQsteRHXdK1tda39pg2DJKFqtTdj2S1Ko8vdzmQQWaHOS4rLVk/aMO1V0vXtRxqlX2rLVWVQYYNb7C2rvkavpFguSWPd8nSastMKm2QrKZyblrWzyQzSboa9sd9K8nsYPiYV1syt9YN5wfDL8ZSa9m30tLa8OvVapCVtJw/GDbIQZLl1nKgSw6uJrOVtLSspLJQyTkzw69rq8qhLtnXJVntMjMz/Bpm7fO+bu3zvtyS/d3w8z87qLTWslqDrK+W9YNkpoZfi4OrGX7eq1KtZbWGjfTcwfD7LelZvL744ovz6KOPZnl5+cgE9uLiYn7u537ulO9j//79+da3vpV3v/vdmZ0dPryu6/KWt7wl+/bty4YNG45cu2nTpie8r/95XXLBxo1JknbMfv9VyWwqCzODtCQHu5bV1o67ppLWZf3MTAZJDq12WV67vR13dsB8VeYHldXWcqgNzxY4fM7A8NqWmRpk/doX7WDXsnLcfQzvt8vCYCZzaxH80DHXtNbW3kGTzGZwJGgfXO2GUX12kHNmezWIDwC9sri4+KR/dwCAvvC6BcDZxOsWwPj84dqPZLhL755DK2lJ0pJz5mcyX5XVruXgapeDXZeqpFKpDHvZfFXOmZ0ZhuM2vC4ZBs211pvBoLIwU5kfDLLStRzsVnNs5qoaDm/OpLJ+ZtiqDqyuZrW1pCVVgyPXJcNgOjsYDpwudTlGO3LdTJJ1g0rXuhzshoOgyVp/a224wtayMDMM00ttOPx5OIkf/ljJMHAPO15yqBt+jIf/78N5xs9sGn7MSqq1Y9bepdUgrXXDtbfhNckwVM/WIMtdl6WR1Hf0480kRxrkgdVube2jj7My/JwebpArJ1wzNFc50iAPrn2u2lqHPNwrB5WsHwwf87B5nuyeWtYNhoF+uWtHPg/Hfl2S4ZsUFmYG6Vpbu6+1z+dx61sYJDNVw37aWmowSFrSWteveH3eeefl8ssvz6c+9am87GUvy913352VlZVs3rz5lO9j585t08zBAAAGO0lEQVSd2bJly5FwnSSDwSBXXXVVdu7cmRe/+MWnfF9PmUmese7JP0Xnn8qdzc2c8sf9qXy8U7RBsAYAAAAAAJh6F8zN5IKfYs/6+z35x/jp9avBj9nVTu3xr8zNZOO6k1973uzh25/ovk7t8Z3K5+G8U/xcPeUUrjnvlO7p1JzK533DSb7felcub7755nzjG9/I9u3b81d/9Vd53etel8Hg1Je5Y8eOXHvttSfcvnXr1tx5550/zaUCAAAAAAAA8FNS7fg9rDnCdjUAwGH+XgDA2cTrFgBnE69bAJxtvHadPr2bvAYAAAAAAABg+ojXAAAAAAAAAIydeA0AAAAAAADA2InXT2Bubm7cSwAAesLfCwA4m3jdAuBs4nULgLON167Tp1prbdyLAAAAAAAAAGC6mbwGAAAAAAAAYOzE6yfw5W8+MO4lAAAAAAAAAEwF8RoAAAAAAACAsROvAQAAAAAAABi72XEvAAAAAGBsusXc/h//OLuevz3vvOHCIzcvf/sLue0v7szfHkhy/uW58dW/lBc+7Zg/9/3P5c233ZWr3/DG3HzpKVyfZPfdH8ttdzyQH3bJ3CUvyG/+ygvz7HVn4kECAACcHUxeAwAAAFNr+f6786VcmB9++Sv5/uEbu8X8tw/flQt/6Q35o3dsz+88b3f+7ONfy/KRf/6DfPxjd+XxdbOndn2SdA/mo5/YnRe8/o35o3e8ITfOfSF/vnPfmXqYAAAAZwWT1wAAAMCUOph7vvTNPPvnb8rmz/9FPvPQz+bmS5MM1mfLP39ZLrliIUnyzGdszPyDK1lKMpdk9+f/Mnde+pLcsPzX+VGe/PqhhVywfiU/2r+SdMtZXl7IBefNJQfuyu/9h7szd+lKvvfQnixf/IK86upH85kvPpTdB9Zn26tuzuuv3ZDH7/9c/uBjd+WRA8n8pS/I628ytQ0AAEwek9cAAADAdHpsVz77ncvzoudtyouu25B7vvTg2j+4MNv+2ZZsTJLsy2f/93dy5fVbcm6S7Lkzf3rvpvzqz196TJh+gusPG2zKL/7CpnzhD34vr3nb7+dPDr0gN147jN1ZTrb84r/Jrf9ue/5FvpDbH3pu3vQ7b8x/+ZVLs+uv787uPJrP3nFXNr5ie259xxvyqvO+mc/ev3K6PzsAAABnnHgNAAAATKXdO+/OI1ddl21zyQXXXpOLv/GV3HPo2CtW8ref+q/5y/Uvya9eu5BkXz770buz8RdekitPOvV8/PXHWH4oH/3E7tzwb387H/j323Pzujvz519a2zZ83cY88+lJsiGbL96QSy67NBckmbv4wmw8dCCPdxty9RUbcs8d/z23f/6BbHzJr+bXrraZHgAAMHn8m86T+PI3Hxj3EgAAAIAf07VbLn/iC7rFfGbnSp7/6kuHvz//6rxo0+fy2a8fzLa18Lx751/ktvufm9983XNzQZJ8/+585nsH8vjH/nO2ZyWP/92+LP/Zn+a8V/9aXnnZSa4/1t89mF1zm/Obl84muTAvunZjbv/aQ8nznuSBdEkym2f/wuvyn657MPfu+lr+/A8/lytf/brceNkT/2cd/00DAAA424jXT+JJ/2UXAAAAOOss3393vrDumrzjmYdvWcjzr7s0t+/clcev/afJNz+Z2z6/Ia/9jRfm2Yf3B3/mz+adv/uza795NB9/z5/l0Vf9Wl55afL4ya5PsvzYo3l8/YW54IILs/Gxr+T/7Eme+dSD+eb9u3Ph0zYm+c6TL7Z7KLff9rlc+Oqb89IbLs05j9yaj3/7QHLZhif8Y/6bBgAAcLYRrwEAAIApczD3fOnL2f3wXH73d+88enN3II8+vi//a8+mPPrRL+RvD1yYP3nP2vTyYFN++Tf+VV54/knurlvMX570+ldm7qN/nM9etT2//fxrcvMvPpTb/uj38/EuOfeSF+T1v/T0pDuFeD24NC+74cLc9t7fz8dXk7mLrslrX/HE4RoAAOBsVK21Nu5F9NWXv/mAdykDAAAAAAAAnAGDcS8AAAAAAAAAAMRrAAAAAAAAAMZOvAYAAAAAAABg7MRrAAAAAAAAAMauWmtt3IsAAAAAAAAAYLqZvAYAAAAAAABg7MRrAAAAAAAAAMZOvAYAAAAAAABg7P4/nHbwchmBP1cAAAAASUVORK5CYII=;" vertex="1" parent="1">
          <mxGeometry x="-540" y="-1010" width="1967" height="674.07" as="geometry" />
        </mxCell>
        <mxCell id="JQkQiNEoeJJn7OUn5IkW-3" value="" style="endArrow=classic;startArrow=classic;html=1;rounded=0;" edge="1" parent="1">
          <mxGeometry width="50" height="50" relative="1" as="geometry">
            <mxPoint x="-407" y="-469.65" as="sourcePoint" />
            <mxPoint x="-247" y="-470" as="targetPoint" />
          </mxGeometry>
        </mxCell>
        <mxCell id="JQkQiNEoeJJn7OUn5IkW-5" value="ROM Bootloader" style="text;html=1;align=center;verticalAlign=middle;whiteSpace=wrap;rounded=0;" vertex="1" parent="1">
          <mxGeometry x="-400" y="-470" width="130" height="30" as="geometry" />
        </mxCell>
        <mxCell id="JQkQiNEoeJJn7OUn5IkW-7" value="" style="endArrow=classic;startArrow=classic;html=1;rounded=0;entryX=0.346;entryY=0.964;entryDx=0;entryDy=0;entryPerimeter=0;" edge="1" parent="1">
          <mxGeometry width="50" height="50" relative="1" as="geometry">
            <mxPoint x="-247" y="-470" as="sourcePoint" />
            <mxPoint x="113.58199999999988" y="-470.19651999999996" as="targetPoint" />
          </mxGeometry>
        </mxCell>
        <mxCell id="JQkQiNEoeJJn7OUn5IkW-8" value="Secondary Bootloader" style="text;html=1;align=center;verticalAlign=middle;whiteSpace=wrap;rounded=0;" vertex="1" parent="1">
          <mxGeometry x="-140" y="-470" width="130" height="30" as="geometry" />
        </mxCell>
        <mxCell id="JQkQiNEoeJJn7OUn5IkW-9" value="Loading segments from flash" style="rounded=1;whiteSpace=wrap;html=1;strokeColor=none;" vertex="1" parent="1">
          <mxGeometry x="-340" y="-730" width="70" height="50" as="geometry" />
        </mxCell>
        <mxCell id="JQkQiNEoeJJn7OUn5IkW-10" value="Loading app from flash" style="rounded=1;whiteSpace=wrap;html=1;strokeColor=none;" vertex="1" parent="1">
          <mxGeometry x="-175" y="-880" width="200" height="30" as="geometry" />
        </mxCell>
        <mxCell id="JQkQiNEoeJJn7OUn5IkW-11" value="CPU frequency increased&amp;nbsp;" style="rounded=1;whiteSpace=wrap;html=1;strokeColor=none;" vertex="1" parent="1">
          <mxGeometry x="-230" y="-610" width="90" height="40" as="geometry" />
        </mxCell>
        <mxCell id="JQkQiNEoeJJn7OUn5IkW-12" value="CPU frequency increased to app default.&lt;br&gt;Peripherals clock gated&amp;nbsp;" style="rounded=1;whiteSpace=wrap;html=1;strokeColor=none;" vertex="1" parent="1">
          <mxGeometry x="210" y="-700" width="230" height="70" as="geometry" />
        </mxCell>
        <mxCell id="JQkQiNEoeJJn7OUn5IkW-13" value="Scheduler starts and app_main() is called" style="rounded=1;whiteSpace=wrap;html=1;strokeColor=none;" vertex="1" parent="1">
          <mxGeometry x="1130" y="-650" width="120" height="60" as="geometry" />
        </mxCell>
        <mxCell id="JQkQiNEoeJJn7OUn5IkW-14" value="" style="endArrow=classic;startArrow=classic;html=1;rounded=0;entryX=0.915;entryY=0.801;entryDx=0;entryDy=0;entryPerimeter=0;" edge="1" parent="1" target="JQkQiNEoeJJn7OUn5IkW-1">
          <mxGeometry width="50" height="50" relative="1" as="geometry">
            <mxPoint x="113" y="-470" as="sourcePoint" />
            <mxPoint x="1120" y="-470" as="targetPoint" />
          </mxGeometry>
        </mxCell>
        <mxCell id="JQkQiNEoeJJn7OUn5IkW-15" value="Application" style="text;html=1;align=center;verticalAlign=middle;whiteSpace=wrap;rounded=0;" vertex="1" parent="1">
          <mxGeometry x="200" y="-470" width="130" height="30" as="geometry" />
        </mxCell>
      </root>
    </mxGraphModel>
  </diagram>
</mxfile>
